%
M48
M72
T01C0.0240
T02C0.0276
T03C0.0315
T04C0.0320
T05C0.0354
T06C0.0510
%
T01
X4242Y1262
X7762Y2962
X14562Y6162
X15962Y3062
X21362Y1862
X18162Y10362
X17662Y11162
X16762Y11762
X12762Y12962
X6882Y13482
X5962Y8282
X21562Y12062
T02
X19762Y11178
X19762Y13146
T03
X11172Y13217
X9712Y12627
T04
X7662Y9962
X7662Y8962
X2182Y13202
X2182Y14202
X17662Y13962
X17662Y12962
X21062Y13562
X22062Y13562
X23062Y13562
X24062Y13562
X24062Y10562
X23062Y10562
X22062Y10562
X21062Y10562
X20262Y7762
X19262Y7762
X11382Y2442
X11382Y1442
X3462Y3262
X3462Y4262
X22962Y2362
X22962Y1362
T05
X22962Y5662
X24062Y5662
X24062Y8662
X22962Y8662
T06
X17336Y7762
X9462Y7762
M30
