G75*
G70*
%OFA0B0*%
%FSLAX24Y24*%
%IPPOS*%
%LPD*%
%AMOC8*
5,1,8,0,0,1.08239X$1,22.5*
%
%ADD10C,0.0000*%
%ADD11C,0.0630*%
%ADD12C,0.0740*%
%ADD13C,0.0472*%
%ADD14C,0.0650*%
%ADD15C,0.0765*%
%ADD16C,0.0320*%
%ADD17C,0.0380*%
%ADD18C,0.0240*%
D10*
X000262Y000262D02*
X000262Y015262D01*
X025262Y015262D01*
X025262Y000262D01*
X000262Y000262D01*
D11*
X021062Y010247D02*
X021062Y010877D01*
X022062Y010877D02*
X022062Y010247D01*
X023062Y010247D02*
X023062Y010877D01*
X024062Y010877D02*
X024062Y010247D01*
X024062Y013247D02*
X024062Y013877D01*
X023062Y013877D02*
X023062Y013247D01*
X022062Y013247D02*
X022062Y013877D01*
X021062Y013877D02*
X021062Y013247D01*
D12*
X018032Y012962D02*
X017292Y012962D01*
X017292Y013962D02*
X018032Y013962D01*
X022962Y009032D02*
X022962Y008292D01*
X024062Y008292D02*
X024062Y009032D01*
X020262Y008132D02*
X020262Y007392D01*
X019262Y007392D02*
X019262Y008132D01*
X022962Y006032D02*
X022962Y005292D01*
X024062Y005292D02*
X024062Y006032D01*
X023332Y002362D02*
X022592Y002362D01*
X022592Y001362D02*
X023332Y001362D01*
X011752Y001442D02*
X011012Y001442D01*
X011012Y002442D02*
X011752Y002442D01*
X003832Y003262D02*
X003092Y003262D01*
X003092Y004262D02*
X003832Y004262D01*
X007292Y008962D02*
X008032Y008962D01*
X008032Y009962D02*
X007292Y009962D01*
X002552Y013202D02*
X001812Y013202D01*
X001812Y014202D02*
X002552Y014202D01*
D13*
X009624Y012846D02*
X009800Y012408D01*
X011261Y012998D02*
X011084Y013436D01*
D14*
X019762Y013146D03*
X019762Y011178D03*
D15*
X017336Y008145D02*
X017336Y007380D01*
X009462Y007380D02*
X009462Y008145D01*
D16*
X009462Y008226D02*
X009462Y008226D01*
X009462Y008544D02*
X009462Y008544D01*
X009462Y008863D02*
X009462Y008863D01*
X009462Y008887D02*
X009413Y008887D01*
X009317Y008874D01*
X009223Y008849D01*
X009133Y008812D01*
X009049Y008763D01*
X008971Y008704D01*
X008904Y008636D01*
X008962Y008777D01*
X008962Y009147D01*
X008831Y009462D01*
X008962Y009777D01*
X008962Y010147D01*
X008820Y010489D01*
X008559Y010750D01*
X008217Y010892D01*
X007107Y010892D01*
X006765Y010750D01*
X006504Y010489D01*
X006362Y010147D01*
X006362Y009850D01*
X005987Y009897D01*
X006017Y013842D01*
X010647Y013842D01*
X010603Y013792D01*
X010553Y013712D01*
X010517Y013626D01*
X010494Y013535D01*
X010486Y013441D01*
X010492Y013348D01*
X010513Y013256D01*
X010619Y012994D01*
X011172Y013217D01*
X011172Y013217D01*
X010619Y012993D01*
X010675Y012857D01*
X010407Y013032D01*
X010302Y013291D01*
X010080Y013517D01*
X009789Y013641D01*
X009472Y013644D01*
X009178Y013525D01*
X008953Y013303D01*
X008829Y013011D01*
X008826Y012695D01*
X009121Y011963D01*
X009344Y011737D01*
X009635Y011613D01*
X009949Y011610D01*
X012352Y010035D01*
X012355Y010031D01*
X012471Y009957D01*
X012587Y009881D01*
X012593Y009880D01*
X013859Y009077D01*
X013904Y009032D01*
X013979Y009001D01*
X014047Y008957D01*
X014110Y008946D01*
X014169Y008922D01*
X014250Y008922D01*
X014329Y008908D01*
X014392Y008922D01*
X016781Y008922D01*
X016537Y008678D01*
X016394Y008332D01*
X016394Y007192D01*
X016537Y006846D01*
X016802Y006580D01*
X017149Y006437D01*
X017524Y006437D01*
X017870Y006580D01*
X018135Y006846D01*
X018279Y007192D01*
X018279Y008332D01*
X018135Y008678D01*
X017891Y008922D01*
X019542Y008922D01*
X019542Y008806D01*
X019497Y008825D01*
X019405Y008850D01*
X019310Y008862D01*
X019262Y008862D01*
X019214Y008862D01*
X019119Y008850D01*
X019027Y008825D01*
X018938Y008788D01*
X018856Y008740D01*
X018780Y008682D01*
X018712Y008614D01*
X018654Y008538D01*
X018606Y008456D01*
X018569Y008367D01*
X018545Y008275D01*
X018532Y008180D01*
X018532Y007762D01*
X018532Y007344D01*
X018545Y007249D01*
X018569Y007157D01*
X018606Y007068D01*
X018654Y006986D01*
X018712Y006910D01*
X018780Y006842D01*
X018856Y006784D01*
X018938Y006736D01*
X019027Y006699D01*
X019119Y006675D01*
X019214Y006662D01*
X019262Y006662D01*
X019310Y006662D01*
X019405Y006675D01*
X019460Y006689D01*
X017477Y004982D01*
X004427Y004982D01*
X004359Y005050D01*
X004017Y005192D01*
X002907Y005192D01*
X002565Y005050D01*
X002304Y004789D01*
X002162Y004447D01*
X002162Y004077D01*
X002293Y003762D01*
X002162Y003447D01*
X002162Y003077D01*
X002304Y002735D01*
X002565Y002474D01*
X002907Y002332D01*
X003806Y002332D01*
X007311Y000835D01*
X007314Y000832D01*
X007338Y000822D01*
X000822Y000822D01*
X000822Y014702D01*
X001013Y014702D01*
X000882Y014387D01*
X000882Y014017D01*
X001013Y013702D01*
X000882Y013387D01*
X000882Y013017D01*
X001024Y012675D01*
X001285Y012414D01*
X001627Y012272D01*
X002737Y012272D01*
X003079Y012414D01*
X003340Y012675D01*
X003482Y013017D01*
X003482Y013387D01*
X003351Y013702D01*
X003482Y014017D01*
X003482Y014387D01*
X003351Y014702D01*
X004582Y014702D01*
X004582Y014563D01*
X004542Y009310D01*
X004530Y009209D01*
X004541Y009167D01*
X004541Y009124D01*
X004579Y009031D01*
X004606Y008933D01*
X004632Y008899D01*
X004649Y008859D01*
X004719Y008787D01*
X004782Y008707D01*
X004819Y008686D01*
X004850Y008655D01*
X004942Y008616D01*
X005031Y008565D01*
X005074Y008560D01*
X005113Y008543D01*
X005214Y008542D01*
X006565Y008374D01*
X006765Y008174D01*
X007107Y008032D01*
X008217Y008032D01*
X008559Y008174D01*
X008753Y008368D01*
X008732Y008290D01*
X008720Y008193D01*
X008720Y007762D01*
X008720Y007331D01*
X008732Y007234D01*
X008757Y007140D01*
X008795Y007050D01*
X008843Y006966D01*
X008903Y006889D01*
X008971Y006820D01*
X009049Y006761D01*
X009133Y006712D01*
X009223Y006675D01*
X009317Y006650D01*
X009413Y006637D01*
X009462Y006637D01*
X009511Y006637D01*
X009607Y006650D01*
X009701Y006675D01*
X009791Y006712D01*
X009875Y006761D01*
X009953Y006820D01*
X010021Y006889D01*
X010081Y006966D01*
X010129Y007050D01*
X010167Y007140D01*
X010192Y007234D01*
X010205Y007331D01*
X010205Y007762D01*
X010205Y008193D01*
X010192Y008290D01*
X010167Y008384D01*
X010129Y008474D01*
X010081Y008558D01*
X010021Y008635D01*
X009953Y008704D01*
X009875Y008763D01*
X009791Y008812D01*
X009701Y008849D01*
X009607Y008874D01*
X009511Y008887D01*
X009462Y008887D01*
X009462Y007762D01*
X008720Y007762D01*
X009462Y007762D01*
X009462Y007762D01*
X009462Y006637D01*
X009462Y007762D01*
X009462Y007762D01*
X009462Y007762D01*
X009462Y008887D01*
X009274Y008863D02*
X008962Y008863D01*
X008948Y009181D02*
X013694Y009181D01*
X013192Y009500D02*
X008847Y009500D01*
X008962Y009818D02*
X012690Y009818D01*
X012197Y010137D02*
X008962Y010137D01*
X008834Y010455D02*
X011711Y010455D01*
X011225Y010774D02*
X008502Y010774D01*
X009361Y011730D02*
X006001Y011730D01*
X006003Y012048D02*
X009087Y012048D01*
X008958Y012367D02*
X006005Y012367D01*
X006008Y012685D02*
X008830Y012685D01*
X008829Y013004D02*
X006010Y013004D01*
X006013Y013322D02*
X008972Y013322D01*
X009465Y013641D02*
X006015Y013641D01*
X005302Y014562D02*
X005262Y009262D01*
X007662Y008962D01*
X006713Y008226D02*
X000822Y008226D01*
X000822Y008544D02*
X005111Y008544D01*
X004647Y008863D02*
X000822Y008863D01*
X000822Y009181D02*
X004538Y009181D01*
X004544Y009500D02*
X000822Y009500D01*
X000822Y009818D02*
X004546Y009818D01*
X004549Y010137D02*
X000822Y010137D01*
X000822Y010455D02*
X004551Y010455D01*
X004553Y010774D02*
X000822Y010774D01*
X000822Y011093D02*
X004556Y011093D01*
X004558Y011411D02*
X000822Y011411D01*
X000822Y011730D02*
X004561Y011730D01*
X004563Y012048D02*
X000822Y012048D01*
X000822Y012367D02*
X001399Y012367D01*
X001019Y012685D02*
X000822Y012685D01*
X000822Y013004D02*
X000888Y013004D01*
X000882Y013322D02*
X000822Y013322D01*
X000822Y013641D02*
X000987Y013641D01*
X000906Y013959D02*
X000822Y013959D01*
X000822Y014278D02*
X000882Y014278D01*
X000822Y014596D02*
X000969Y014596D01*
X003395Y014596D02*
X004582Y014596D01*
X004580Y014278D02*
X003482Y014278D01*
X003458Y013959D02*
X004578Y013959D01*
X004575Y013641D02*
X003377Y013641D01*
X003482Y013322D02*
X004573Y013322D01*
X004570Y013004D02*
X003476Y013004D01*
X003345Y012685D02*
X004568Y012685D01*
X004566Y012367D02*
X002966Y012367D01*
X005998Y011411D02*
X010254Y011411D01*
X010740Y011093D02*
X005996Y011093D01*
X005993Y010774D02*
X006822Y010774D01*
X006490Y010455D02*
X005991Y010455D01*
X005989Y010137D02*
X006362Y010137D01*
X008611Y008226D02*
X008724Y008226D01*
X008720Y007907D02*
X000822Y007907D01*
X000822Y007589D02*
X008720Y007589D01*
X008728Y007270D02*
X000822Y007270D01*
X000822Y006951D02*
X008855Y006951D01*
X009462Y006951D02*
X009462Y006951D01*
X009462Y007270D02*
X009462Y007270D01*
X009462Y007589D02*
X009462Y007589D01*
X009462Y007762D02*
X009462Y007762D01*
X010205Y007762D01*
X009462Y007762D01*
X009462Y007907D02*
X009462Y007907D01*
X010205Y007907D02*
X016394Y007907D01*
X016394Y007589D02*
X010205Y007589D01*
X010196Y007270D02*
X016394Y007270D01*
X016493Y006951D02*
X010069Y006951D01*
X010200Y008226D02*
X016394Y008226D01*
X016481Y008544D02*
X010089Y008544D01*
X009651Y008863D02*
X016721Y008863D01*
X017951Y008863D02*
X019542Y008863D01*
X019262Y008862D02*
X019262Y007762D01*
X019262Y006662D01*
X019262Y007762D01*
X019262Y007762D01*
X018532Y007762D01*
X019262Y007762D01*
X019262Y007762D01*
X019262Y008862D01*
X019262Y008544D02*
X019262Y008544D01*
X019262Y008226D02*
X019262Y008226D01*
X019262Y007907D02*
X019262Y007907D01*
X019262Y007762D02*
X019262Y007762D01*
X019262Y007589D02*
X019262Y007589D01*
X019262Y007270D02*
X019262Y007270D01*
X019262Y006951D02*
X019262Y006951D01*
X019394Y006633D02*
X017922Y006633D01*
X018179Y006951D02*
X018680Y006951D01*
X018542Y007270D02*
X018279Y007270D01*
X018279Y007589D02*
X018532Y007589D01*
X018532Y007907D02*
X018279Y007907D01*
X018279Y008226D02*
X018538Y008226D01*
X018658Y008544D02*
X018191Y008544D01*
X020262Y007762D02*
X020262Y009642D01*
X020262Y009762D01*
X021062Y010562D01*
X022062Y010562D02*
X022062Y007980D01*
X017744Y004262D01*
X003462Y004262D01*
X002555Y005040D02*
X000822Y005040D01*
X000822Y004722D02*
X002276Y004722D01*
X002162Y004403D02*
X000822Y004403D01*
X000822Y004085D02*
X002162Y004085D01*
X002291Y003766D02*
X000822Y003766D01*
X000822Y003447D02*
X002162Y003447D01*
X002162Y003129D02*
X000822Y003129D01*
X000822Y002810D02*
X002272Y002810D01*
X002547Y002492D02*
X000822Y002492D01*
X000822Y002173D02*
X004178Y002173D01*
X004923Y001855D02*
X000822Y001855D01*
X000822Y001536D02*
X005669Y001536D01*
X006415Y001218D02*
X000822Y001218D01*
X000822Y000899D02*
X007160Y000899D01*
X007722Y001442D02*
X003462Y003262D01*
X004723Y003542D02*
X004741Y003499D01*
X007869Y002162D01*
X010121Y002162D01*
X010082Y002257D01*
X010082Y002627D01*
X010224Y002969D01*
X010485Y003230D01*
X010827Y003372D01*
X011937Y003372D01*
X012279Y003230D01*
X012540Y002969D01*
X012682Y002627D01*
X012682Y002257D01*
X012644Y002166D01*
X017140Y002181D01*
X022032Y005863D01*
X022032Y006217D01*
X022174Y006559D01*
X022435Y006820D01*
X022723Y006940D01*
X022219Y007165D01*
X018234Y003734D01*
X018152Y003652D01*
X018126Y003641D01*
X018105Y003623D01*
X017995Y003587D01*
X017887Y003542D01*
X017860Y003542D01*
X017833Y003533D01*
X017717Y003542D01*
X004723Y003542D01*
X004861Y003447D02*
X018823Y003447D01*
X018399Y003129D02*
X012380Y003129D01*
X012606Y002810D02*
X017976Y002810D01*
X017553Y002492D02*
X012682Y002492D01*
X012647Y002173D02*
X014774Y002173D01*
X017382Y001462D02*
X011382Y001442D01*
X007722Y001442D01*
X007843Y002173D02*
X010117Y002173D01*
X010082Y002492D02*
X007097Y002492D01*
X006352Y002810D02*
X010158Y002810D01*
X010384Y003129D02*
X005606Y003129D01*
X004369Y005040D02*
X017545Y005040D01*
X017914Y005359D02*
X000822Y005359D01*
X000822Y005677D02*
X018284Y005677D01*
X018654Y005996D02*
X000822Y005996D01*
X000822Y006314D02*
X019024Y006314D01*
X020121Y005359D02*
X021362Y005359D01*
X021785Y005677D02*
X020491Y005677D01*
X020861Y005996D02*
X022032Y005996D01*
X022072Y006314D02*
X021231Y006314D01*
X021601Y006633D02*
X022248Y006633D01*
X021971Y006951D02*
X022696Y006951D01*
X022962Y005662D02*
X017382Y001462D01*
X018255Y001218D02*
X021662Y001218D01*
X021662Y001177D02*
X021804Y000835D01*
X021817Y000822D01*
X017729Y000822D01*
X017743Y000833D01*
X017792Y000853D01*
X017856Y000918D01*
X022555Y004454D01*
X022777Y004362D01*
X023147Y004362D01*
X023489Y004504D01*
X023512Y004527D01*
X023535Y004504D01*
X023655Y004454D01*
X022801Y003292D01*
X022407Y003292D01*
X022065Y003150D01*
X021804Y002889D01*
X021662Y002547D01*
X021662Y002177D01*
X021793Y001862D01*
X021662Y001547D01*
X021662Y001177D01*
X021777Y000899D02*
X017838Y000899D01*
X018678Y001536D02*
X021662Y001536D01*
X021790Y001855D02*
X019101Y001855D01*
X019524Y002173D02*
X021664Y002173D01*
X021662Y002492D02*
X019947Y002492D01*
X020371Y002810D02*
X021771Y002810D01*
X022044Y003129D02*
X020794Y003129D01*
X021217Y003447D02*
X022916Y003447D01*
X023150Y003766D02*
X021640Y003766D01*
X022063Y004085D02*
X023384Y004085D01*
X023246Y004403D02*
X023618Y004403D01*
X022678Y004403D02*
X022487Y004403D01*
X020939Y005040D02*
X019751Y005040D01*
X019381Y004722D02*
X020515Y004722D01*
X020092Y004403D02*
X019011Y004403D01*
X018641Y004085D02*
X019669Y004085D01*
X019246Y003766D02*
X018272Y003766D01*
X016750Y006633D02*
X000822Y006633D01*
X009712Y012627D02*
X012862Y010562D01*
X014312Y009642D01*
X020262Y009642D01*
X019844Y010362D02*
X014521Y010362D01*
X013251Y011168D01*
X011358Y012409D01*
X011440Y012428D01*
X011484Y012445D01*
X011527Y012463D01*
X011608Y012511D01*
X011680Y012571D01*
X011741Y012642D01*
X011791Y012722D01*
X011828Y012808D01*
X011850Y012899D01*
X011859Y012993D01*
X011852Y013086D01*
X011831Y013178D01*
X011725Y013440D01*
X011173Y013217D01*
X011172Y013217D01*
X011725Y013440D01*
X011619Y013703D01*
X011571Y013783D01*
X011521Y013842D01*
X014668Y013842D01*
X016273Y012413D01*
X016368Y012323D01*
X016380Y012318D01*
X016390Y012309D01*
X016513Y012266D01*
X016635Y012219D01*
X016648Y012219D01*
X016661Y012215D01*
X016720Y012218D01*
X016765Y012174D01*
X017107Y012032D01*
X017535Y012032D01*
X017326Y011835D01*
X017237Y011798D01*
X017026Y011587D01*
X016912Y011311D01*
X016912Y011013D01*
X017026Y010737D01*
X017237Y010526D01*
X017513Y010412D01*
X017811Y010412D01*
X018087Y010526D01*
X018298Y010737D01*
X018321Y010794D01*
X018920Y011358D01*
X018921Y011359D01*
X019022Y011455D01*
X019128Y011554D01*
X019128Y011555D01*
X019874Y012261D01*
X019938Y012261D01*
X020263Y012396D01*
X020469Y012602D01*
X020566Y012505D01*
X020888Y012372D01*
X021236Y012372D01*
X021558Y012505D01*
X021562Y012510D01*
X021566Y012505D01*
X021888Y012372D01*
X022236Y012372D01*
X022558Y012505D01*
X022562Y012510D01*
X022566Y012505D01*
X022888Y012372D01*
X023236Y012372D01*
X023558Y012505D01*
X023562Y012510D01*
X023566Y012505D01*
X023888Y012372D01*
X024236Y012372D01*
X024558Y012505D01*
X024702Y012650D01*
X024702Y011096D01*
X024669Y011176D01*
X024624Y011253D01*
X024571Y011323D01*
X024508Y011386D01*
X024438Y011439D01*
X024361Y011484D01*
X024279Y011518D01*
X024194Y011540D01*
X024106Y011552D01*
X024062Y011552D01*
X024018Y011552D01*
X023930Y011540D01*
X023845Y011518D01*
X023763Y011484D01*
X023718Y011458D01*
X023558Y011619D01*
X023236Y011752D01*
X022888Y011752D01*
X022566Y011619D01*
X022562Y011614D01*
X022558Y011619D01*
X022236Y011752D01*
X021888Y011752D01*
X021566Y011619D01*
X021562Y011614D01*
X021558Y011619D01*
X021236Y011752D01*
X020888Y011752D01*
X020566Y011619D01*
X020393Y011445D01*
X020378Y011481D01*
X020333Y011559D01*
X020278Y011630D01*
X020215Y011694D01*
X020143Y011749D01*
X020066Y011793D01*
X019983Y011828D01*
X019896Y011851D01*
X019807Y011863D01*
X019762Y011863D01*
X019717Y011863D01*
X019628Y011851D01*
X019541Y011828D01*
X019458Y011793D01*
X019381Y011749D01*
X019309Y011694D01*
X019246Y011630D01*
X019191Y011559D01*
X019146Y011481D01*
X019112Y011398D01*
X019089Y011312D01*
X019077Y011223D01*
X019077Y011178D01*
X019762Y011178D01*
X019762Y011863D01*
X019762Y011178D01*
X019762Y011178D01*
X019762Y011178D01*
X019077Y011178D01*
X019077Y011133D01*
X019089Y011044D01*
X019112Y010957D01*
X019146Y010874D01*
X019191Y010796D01*
X019246Y010725D01*
X019309Y010662D01*
X019381Y010607D01*
X019458Y010562D01*
X019541Y010528D01*
X019628Y010505D01*
X019717Y010493D01*
X019762Y010493D01*
X019807Y010493D01*
X019896Y010505D01*
X019983Y010528D01*
X020029Y010547D01*
X019844Y010362D01*
X019937Y010455D02*
X017916Y010455D01*
X017408Y010455D02*
X014374Y010455D01*
X013872Y010774D02*
X017011Y010774D01*
X016912Y011093D02*
X013370Y011093D01*
X012880Y011411D02*
X016953Y011411D01*
X017169Y011730D02*
X012394Y011730D01*
X011908Y012048D02*
X017068Y012048D01*
X016322Y012367D02*
X011422Y012367D01*
X011484Y012445D02*
X011172Y013217D01*
X011484Y012445D01*
X011387Y012685D02*
X011387Y012685D01*
X011768Y012685D02*
X015968Y012685D01*
X015610Y013004D02*
X011858Y013004D01*
X011773Y013322D02*
X015252Y013322D01*
X014894Y013641D02*
X011644Y013641D01*
X011433Y013322D02*
X011432Y013322D01*
X011172Y013217D02*
X011172Y013217D01*
X011258Y013004D02*
X011258Y013004D01*
X010645Y013004D02*
X010644Y013004D01*
X010615Y013004D02*
X010451Y013004D01*
X010498Y013322D02*
X010272Y013322D01*
X010523Y013641D02*
X009784Y013641D01*
X005302Y014562D02*
X014942Y014562D01*
X016762Y012942D01*
X017662Y012962D01*
X017662Y013962D02*
X018062Y014512D01*
X022062Y014512D01*
X022062Y013562D01*
X020193Y012367D02*
X024702Y012367D01*
X024702Y012048D02*
X019649Y012048D01*
X019762Y011730D02*
X019762Y011730D01*
X019762Y011411D02*
X019762Y011411D01*
X019762Y011177D02*
X019762Y010493D01*
X019762Y011177D01*
X019762Y011177D01*
X019762Y011093D02*
X019762Y011093D01*
X019762Y010774D02*
X019762Y010774D01*
X019208Y010774D02*
X018313Y010774D01*
X018638Y011093D02*
X019082Y011093D01*
X019117Y011411D02*
X018976Y011411D01*
X019313Y011730D02*
X019356Y011730D01*
X018530Y011980D02*
X017662Y011162D01*
X018530Y011980D02*
X019762Y013146D01*
X020168Y011730D02*
X020834Y011730D01*
X021290Y011730D02*
X021834Y011730D01*
X022290Y011730D02*
X022834Y011730D01*
X023290Y011730D02*
X024702Y011730D01*
X024702Y011411D02*
X024475Y011411D01*
X024062Y011411D02*
X024062Y011411D01*
X024062Y011552D02*
X024062Y010562D01*
X024062Y010562D01*
X024062Y011552D01*
X024062Y011093D02*
X024062Y011093D01*
X024062Y010774D02*
X024062Y010774D01*
D17*
X021562Y012062D03*
X018162Y010362D03*
X017662Y011162D03*
X016762Y011762D03*
X012762Y012962D03*
X006882Y013482D03*
X005962Y008282D03*
X014562Y006162D03*
X015962Y003062D03*
X021362Y001862D03*
X007762Y002962D03*
X004242Y001262D03*
D18*
X022062Y007980D02*
X024703Y006799D01*
X024681Y004703D01*
X022962Y002362D01*
M02*
