G75*
G70*
%OFA0B0*%
%FSLAX24Y24*%
%IPPOS*%
%LPD*%
%AMOC8*
5,1,8,0,0,1.08239X$1,22.5*
%
%ADD10C,0.0710*%
%ADD11C,0.0820*%
%ADD12C,0.0552*%
%ADD13C,0.0730*%
%ADD14C,0.0845*%
%ADD15C,0.0460*%
D10*
X021062Y010247D02*
X021062Y010877D01*
X022062Y010877D02*
X022062Y010247D01*
X023062Y010247D02*
X023062Y010877D01*
X024062Y010877D02*
X024062Y010247D01*
X024062Y013247D02*
X024062Y013877D01*
X023062Y013877D02*
X023062Y013247D01*
X022062Y013247D02*
X022062Y013877D01*
X021062Y013877D02*
X021062Y013247D01*
D11*
X018032Y012962D02*
X017292Y012962D01*
X017292Y013962D02*
X018032Y013962D01*
X022962Y009032D02*
X022962Y008292D01*
X024062Y008292D02*
X024062Y009032D01*
X020262Y008132D02*
X020262Y007392D01*
X019262Y007392D02*
X019262Y008132D01*
X022962Y006032D02*
X022962Y005292D01*
X024062Y005292D02*
X024062Y006032D01*
X023332Y002362D02*
X022592Y002362D01*
X022592Y001362D02*
X023332Y001362D01*
X011752Y001442D02*
X011012Y001442D01*
X011012Y002442D02*
X011752Y002442D01*
X003832Y003262D02*
X003092Y003262D01*
X003092Y004262D02*
X003832Y004262D01*
X007292Y008962D02*
X008032Y008962D01*
X008032Y009962D02*
X007292Y009962D01*
X002552Y013202D02*
X001812Y013202D01*
X001812Y014202D02*
X002552Y014202D01*
D12*
X009624Y012846D02*
X009800Y012408D01*
X011261Y012998D02*
X011084Y013436D01*
D13*
X019762Y012662D03*
X019762Y011662D03*
D14*
X017336Y008145D02*
X017336Y007380D01*
X009462Y007380D02*
X009462Y008145D01*
D15*
X004242Y001262D03*
X007762Y002962D03*
X014562Y006162D03*
X015962Y003062D03*
X021362Y001862D03*
X018162Y010362D03*
X017662Y011162D03*
X016762Y011762D03*
X012762Y012962D03*
X006882Y013482D03*
X005962Y008282D03*
X021562Y012062D03*
M02*
