G75*
G70*
%OFA0B0*%
%FSLAX24Y24*%
%IPPOS*%
%LPD*%
%AMOC8*
5,1,8,0,0,1.08239X$1,22.5*
%
%ADD10C,0.0080*%
%ADD11C,0.0630*%
%ADD12C,0.0740*%
%ADD13C,0.0472*%
%ADD14C,0.0650*%
%ADD15C,0.0765*%
%ADD16C,0.0320*%
%ADD17C,0.0380*%
D10*
X007708Y007562D02*
X008322Y007562D01*
X017002Y005495D02*
X017002Y004881D01*
X017002Y005188D02*
X017923Y005188D01*
X017616Y004881D01*
X017923Y004574D02*
X017923Y003960D01*
X017923Y004267D02*
X017002Y004267D01*
X017002Y003654D02*
X017616Y003654D01*
X017923Y003347D01*
X017616Y003040D01*
X017002Y003040D01*
X017155Y002733D02*
X017002Y002579D01*
X017002Y002119D01*
X017923Y002119D01*
X017923Y002579D01*
X017769Y002733D01*
X017616Y002733D01*
X017462Y002579D01*
X017462Y002119D01*
X017462Y002579D02*
X017309Y002733D01*
X017155Y002733D01*
X017462Y003040D02*
X017462Y003654D01*
X020202Y004013D02*
X020355Y003860D01*
X020969Y003860D01*
X021123Y004013D01*
X021123Y004320D01*
X020969Y004474D01*
X020355Y004474D01*
X020202Y004320D01*
X020202Y004013D01*
X021123Y004780D02*
X021123Y005394D01*
X021123Y005087D02*
X020202Y005087D01*
X020202Y005701D02*
X020202Y006315D01*
X020202Y006008D02*
X021123Y006008D01*
X020816Y005701D01*
X018522Y007262D02*
X017908Y007262D01*
X018215Y007569D02*
X018215Y006955D01*
X014042Y013402D02*
X014042Y014323D01*
X013582Y014323D01*
X013428Y014169D01*
X013428Y013862D01*
X013582Y013709D01*
X014042Y013709D01*
X013121Y013555D02*
X012968Y013402D01*
X012661Y013402D01*
X012507Y013555D01*
X012201Y013402D02*
X011587Y013402D01*
X011894Y013402D02*
X011894Y014323D01*
X012201Y014016D01*
X012507Y014169D02*
X012661Y014323D01*
X012968Y014323D01*
X013121Y014169D01*
X013121Y013555D01*
D11*
X021062Y013247D02*
X021062Y013877D01*
X022062Y013877D02*
X022062Y013247D01*
X023062Y013247D02*
X023062Y013877D01*
X024062Y013877D02*
X024062Y013247D01*
X024062Y010877D02*
X024062Y010247D01*
X023062Y010247D02*
X023062Y010877D01*
X022062Y010877D02*
X022062Y010247D01*
X021062Y010247D02*
X021062Y010877D01*
D12*
X022962Y009032D02*
X022962Y008292D01*
X024062Y008292D02*
X024062Y009032D01*
X020262Y008132D02*
X020262Y007392D01*
X019262Y007392D02*
X019262Y008132D01*
X022962Y006032D02*
X022962Y005292D01*
X024062Y005292D02*
X024062Y006032D01*
X023332Y002362D02*
X022592Y002362D01*
X022592Y001362D02*
X023332Y001362D01*
X011752Y001442D02*
X011012Y001442D01*
X011012Y002442D02*
X011752Y002442D01*
X003832Y003262D02*
X003092Y003262D01*
X003092Y004262D02*
X003832Y004262D01*
X007292Y008962D02*
X008032Y008962D01*
X008032Y009962D02*
X007292Y009962D01*
X002552Y013202D02*
X001812Y013202D01*
X001812Y014202D02*
X002552Y014202D01*
X017292Y013962D02*
X018032Y013962D01*
X018032Y012962D02*
X017292Y012962D01*
D13*
X011261Y012998D02*
X011084Y013436D01*
X009624Y012846D02*
X009800Y012408D01*
D14*
X019762Y012662D03*
X019762Y011662D03*
D15*
X017336Y008145D02*
X017336Y007380D01*
X009462Y007380D02*
X009462Y008145D01*
D16*
X000822Y014702D02*
X000822Y000822D01*
X010458Y000822D01*
X010308Y000972D01*
X010182Y001277D01*
X010182Y001607D01*
X010308Y001912D01*
X010338Y001942D01*
X010308Y001972D01*
X010182Y002277D01*
X010182Y002607D01*
X010308Y002912D01*
X010542Y003146D01*
X010847Y003272D01*
X010922Y003272D01*
X012034Y008587D01*
X012031Y008606D01*
X012059Y008707D01*
X012080Y008810D01*
X012091Y008825D01*
X012096Y008844D01*
X012160Y008927D01*
X012219Y009013D01*
X012235Y009024D01*
X014113Y011451D01*
X012135Y009522D01*
X012049Y009436D01*
X012046Y009435D01*
X012043Y009432D01*
X011933Y009388D01*
X011822Y009342D01*
X011818Y009342D01*
X011814Y009341D01*
X011694Y009342D01*
X008773Y009342D01*
X008862Y009127D01*
X008862Y008797D01*
X008736Y008492D01*
X008502Y008258D01*
X008197Y008132D01*
X007127Y008132D01*
X006822Y008258D01*
X006588Y008492D01*
X006462Y008797D01*
X006462Y009127D01*
X006588Y009432D01*
X006618Y009462D01*
X006588Y009492D01*
X006462Y009797D01*
X006462Y010127D01*
X006508Y010239D01*
X003382Y013365D01*
X003382Y013037D01*
X003256Y012732D01*
X003022Y012498D01*
X002801Y012407D01*
X002794Y005037D01*
X002927Y005092D01*
X003997Y005092D01*
X004302Y004966D01*
X004536Y004732D01*
X004662Y004427D01*
X004662Y004097D01*
X004536Y003792D01*
X004506Y003762D01*
X004536Y003732D01*
X004662Y003427D01*
X004662Y003097D01*
X004536Y002792D01*
X004302Y002558D01*
X003997Y002432D01*
X002927Y002432D01*
X002622Y002558D01*
X002545Y002635D01*
X002297Y002633D01*
X002295Y002632D01*
X002175Y002632D01*
X002054Y002631D01*
X002051Y002632D01*
X002048Y002632D01*
X001935Y002679D01*
X001825Y002724D01*
X001823Y002726D01*
X001820Y002727D01*
X001733Y002814D01*
X001649Y002897D01*
X001648Y002899D01*
X001646Y002901D01*
X001599Y003014D01*
X001553Y003124D01*
X001553Y003127D01*
X001552Y003129D01*
X000822Y003129D01*
X000822Y003447D02*
X001552Y003447D01*
X001552Y003373D02*
X001551Y003371D01*
X001552Y003249D01*
X001552Y003129D01*
X001552Y003373D02*
X001561Y012408D01*
X001342Y012498D01*
X001108Y012732D01*
X000982Y013037D01*
X000982Y013367D01*
X001108Y013672D01*
X001138Y013702D01*
X001108Y013732D01*
X000982Y014037D01*
X000982Y014367D01*
X001108Y014672D01*
X001138Y014702D01*
X000822Y014702D01*
X000822Y014596D02*
X001077Y014596D01*
X000982Y014278D02*
X000822Y014278D01*
X000822Y013959D02*
X001014Y013959D01*
X001095Y013641D02*
X000822Y013641D01*
X000822Y013322D02*
X000982Y013322D01*
X000996Y013004D02*
X000822Y013004D01*
X000822Y012685D02*
X001155Y012685D01*
X000822Y012367D02*
X001561Y012367D01*
X001561Y012048D02*
X000822Y012048D01*
X000822Y011730D02*
X001561Y011730D01*
X001560Y011411D02*
X000822Y011411D01*
X000822Y011093D02*
X001560Y011093D01*
X001560Y010774D02*
X000822Y010774D01*
X000822Y010455D02*
X001559Y010455D01*
X001559Y010137D02*
X000822Y010137D01*
X000822Y009818D02*
X001559Y009818D01*
X001558Y009500D02*
X000822Y009500D01*
X000822Y009181D02*
X001558Y009181D01*
X001558Y008863D02*
X000822Y008863D01*
X000822Y008544D02*
X001557Y008544D01*
X001557Y008226D02*
X000822Y008226D01*
X000822Y007907D02*
X001557Y007907D01*
X001556Y007589D02*
X000822Y007589D01*
X000822Y007270D02*
X001556Y007270D01*
X001556Y006951D02*
X000822Y006951D01*
X000822Y006633D02*
X001555Y006633D01*
X001555Y006314D02*
X000822Y006314D01*
X000822Y005996D02*
X001555Y005996D01*
X001555Y005677D02*
X000822Y005677D01*
X000822Y005359D02*
X001554Y005359D01*
X001554Y005040D02*
X000822Y005040D01*
X000822Y004722D02*
X001554Y004722D01*
X001553Y004403D02*
X000822Y004403D01*
X000822Y004085D02*
X001553Y004085D01*
X001553Y003766D02*
X000822Y003766D01*
X002172Y003252D02*
X002182Y013202D01*
X003209Y012685D02*
X004062Y012685D01*
X004381Y012367D02*
X002801Y012367D01*
X002801Y012048D02*
X004699Y012048D01*
X005018Y011730D02*
X002800Y011730D01*
X002800Y011411D02*
X005336Y011411D01*
X005655Y011093D02*
X002800Y011093D01*
X002800Y010774D02*
X005973Y010774D01*
X006292Y010455D02*
X002799Y010455D01*
X002799Y010137D02*
X006466Y010137D01*
X006462Y009818D02*
X002799Y009818D01*
X002798Y009500D02*
X006585Y009500D01*
X006484Y009181D02*
X002798Y009181D01*
X002798Y008863D02*
X006462Y008863D01*
X006567Y008544D02*
X002797Y008544D01*
X002797Y008226D02*
X006901Y008226D01*
X007284Y007846D02*
X007208Y007662D01*
X007208Y007463D01*
X007284Y007279D01*
X007425Y007139D01*
X007609Y007062D01*
X008421Y007062D01*
X008605Y007139D01*
X008746Y007279D01*
X008820Y007457D01*
X008820Y007337D01*
X008831Y007254D01*
X008852Y007173D01*
X008885Y007095D01*
X008927Y007022D01*
X008978Y006955D01*
X009037Y006895D01*
X009104Y006844D01*
X009177Y006802D01*
X009255Y006770D01*
X009336Y006748D01*
X009420Y006737D01*
X009462Y006737D01*
X009504Y006737D01*
X009588Y006748D01*
X009669Y006770D01*
X009747Y006802D01*
X009820Y006844D01*
X009887Y006895D01*
X009946Y006955D01*
X009997Y007022D01*
X010039Y007095D01*
X010072Y007173D01*
X010094Y007254D01*
X010105Y007337D01*
X010105Y007762D01*
X010105Y008187D01*
X010094Y008270D01*
X010072Y008352D01*
X010039Y008429D01*
X009997Y008502D01*
X009946Y008569D01*
X009887Y008629D01*
X009820Y008680D01*
X009747Y008722D01*
X009669Y008754D01*
X009588Y008776D01*
X009504Y008787D01*
X009462Y008787D01*
X009420Y008787D01*
X009336Y008776D01*
X009255Y008754D01*
X009177Y008722D01*
X009104Y008680D01*
X009037Y008629D01*
X008978Y008569D01*
X008927Y008502D01*
X008885Y008429D01*
X008852Y008352D01*
X008831Y008270D01*
X008820Y008187D01*
X008820Y007762D01*
X008820Y007668D01*
X008746Y007846D01*
X008605Y007986D01*
X008421Y008062D01*
X007609Y008062D01*
X007425Y007986D01*
X007284Y007846D01*
X007346Y007907D02*
X002797Y007907D01*
X002796Y007589D02*
X007208Y007589D01*
X007294Y007270D02*
X002796Y007270D01*
X002796Y006951D02*
X008981Y006951D01*
X008828Y007270D02*
X008737Y007270D01*
X008820Y007762D02*
X009462Y007762D01*
X009462Y007762D01*
X008820Y007762D01*
X008820Y007907D02*
X008684Y007907D01*
X008825Y008226D02*
X008423Y008226D01*
X008757Y008544D02*
X008959Y008544D01*
X008862Y008863D02*
X012111Y008863D01*
X012025Y008544D02*
X009965Y008544D01*
X010099Y008226D02*
X011958Y008226D01*
X011892Y007907D02*
X010105Y007907D01*
X010105Y007762D02*
X009462Y007762D01*
X009462Y006737D01*
X009462Y007762D01*
X009462Y007762D01*
X009462Y008787D01*
X009462Y007762D01*
X009462Y007762D01*
X009462Y007762D01*
X010105Y007762D01*
X010105Y007589D02*
X011825Y007589D01*
X011758Y007270D02*
X010096Y007270D01*
X009943Y006951D02*
X011692Y006951D01*
X011625Y006633D02*
X002795Y006633D01*
X002795Y006314D02*
X011559Y006314D01*
X011492Y005996D02*
X002795Y005996D01*
X002794Y005677D02*
X011425Y005677D01*
X011359Y005359D02*
X002794Y005359D01*
X002794Y005040D02*
X002802Y005040D01*
X004122Y005040D02*
X011292Y005040D01*
X011225Y004722D02*
X004540Y004722D01*
X004662Y004403D02*
X011159Y004403D01*
X011092Y004085D02*
X004657Y004085D01*
X004510Y003766D02*
X011026Y003766D01*
X010959Y003447D02*
X004654Y003447D01*
X004662Y003129D02*
X010525Y003129D01*
X010266Y002810D02*
X004543Y002810D01*
X004141Y002492D02*
X010182Y002492D01*
X010225Y002173D02*
X000822Y002173D01*
X000822Y001855D02*
X010285Y001855D01*
X010182Y001536D02*
X000822Y001536D01*
X000822Y001218D02*
X010207Y001218D01*
X010381Y000899D02*
X000822Y000899D01*
X000822Y002492D02*
X002783Y002492D01*
X001737Y002810D02*
X000822Y002810D01*
X002172Y003252D02*
X003462Y003262D01*
X009462Y006951D02*
X009462Y006951D01*
X009462Y007270D02*
X009462Y007270D01*
X009462Y007589D02*
X009462Y007589D01*
X009462Y007907D02*
X009462Y007907D01*
X009462Y008226D02*
X009462Y008226D01*
X009462Y008544D02*
X009462Y008544D01*
X008840Y009181D02*
X012357Y009181D01*
X012113Y009500D02*
X012604Y009500D01*
X012439Y009818D02*
X012850Y009818D01*
X012765Y010137D02*
X013096Y010137D01*
X013092Y010455D02*
X013343Y010455D01*
X013419Y010774D02*
X013589Y010774D01*
X013745Y011093D02*
X013836Y011093D01*
X014072Y011411D02*
X014082Y011411D01*
X015157Y010774D02*
X016716Y010774D01*
X016716Y010781D02*
X016716Y008716D01*
X016622Y008622D01*
X016494Y008312D01*
X016494Y007212D01*
X016622Y006902D01*
X016859Y006665D01*
X017168Y006537D01*
X017504Y006537D01*
X017803Y006661D01*
X017932Y006532D01*
X018116Y006455D01*
X018315Y006455D01*
X018498Y006532D01*
X018639Y006672D01*
X018688Y006790D01*
X018805Y006839D01*
X018867Y006900D01*
X018932Y006853D01*
X019020Y006808D01*
X019114Y006778D01*
X019212Y006762D01*
X019262Y006762D01*
X019312Y006762D01*
X019410Y006778D01*
X019504Y006808D01*
X019592Y006853D01*
X019612Y006868D01*
X019792Y006688D01*
X019846Y006666D01*
X019778Y006598D01*
X019702Y006414D01*
X019702Y005602D01*
X019778Y005418D01*
X019802Y005394D01*
X019778Y005371D01*
X019702Y005187D01*
X019702Y004988D01*
X019778Y004804D01*
X019879Y004704D01*
X019778Y004603D01*
X019746Y004526D01*
X019702Y004420D01*
X019702Y004419D01*
X019702Y004221D01*
X019702Y003914D01*
X019778Y003730D01*
X019919Y003589D01*
X020072Y003436D01*
X020256Y003360D01*
X020455Y003360D01*
X021069Y003360D01*
X021178Y003405D01*
X021252Y003436D01*
X021253Y003436D02*
X021255Y003438D01*
X021547Y003730D01*
X021559Y003759D01*
X021623Y003914D01*
X021623Y004113D01*
X021623Y004221D01*
X021623Y004420D01*
X021569Y004550D01*
X021623Y004681D01*
X021623Y005494D01*
X021547Y005677D01*
X022132Y005677D01*
X022132Y005359D02*
X021623Y005359D01*
X021623Y005040D02*
X022168Y005040D01*
X022132Y005127D02*
X022258Y004822D01*
X022492Y004588D01*
X022797Y004462D01*
X023127Y004462D01*
X023432Y004588D01*
X023467Y004623D01*
X023501Y003190D01*
X023497Y003192D01*
X022427Y003192D01*
X022122Y003066D01*
X021888Y002832D01*
X021762Y002527D01*
X021762Y002197D01*
X021888Y001892D01*
X021918Y001862D01*
X021888Y001832D01*
X021762Y001527D01*
X021762Y001197D01*
X021888Y000892D01*
X021958Y000822D01*
X012306Y000822D01*
X012456Y000972D01*
X012582Y001277D01*
X012582Y001607D01*
X012456Y001912D01*
X012426Y001942D01*
X012456Y001972D01*
X012582Y002277D01*
X012582Y002607D01*
X012456Y002912D01*
X012222Y003146D01*
X012167Y003168D01*
X013240Y008295D01*
X016553Y012578D01*
X016588Y012492D01*
X016822Y012258D01*
X017127Y012132D01*
X017365Y012132D01*
X017518Y011806D01*
X017294Y011713D01*
X017111Y011530D01*
X017069Y011430D01*
X016886Y011225D01*
X016810Y011149D01*
X016804Y011133D01*
X016792Y011120D01*
X016757Y011020D01*
X016716Y010922D01*
X016716Y010904D01*
X016710Y010887D01*
X016716Y010781D01*
X016782Y011093D02*
X015403Y011093D01*
X015650Y011411D02*
X017053Y011411D01*
X017334Y011730D02*
X015896Y011730D01*
X016143Y012048D02*
X017404Y012048D01*
X016714Y012367D02*
X016389Y012367D01*
X017662Y012962D02*
X018362Y011462D01*
X023962Y006362D01*
X024062Y006262D01*
X024062Y005662D01*
X024162Y001462D01*
X022962Y001362D01*
X021911Y001855D02*
X018355Y001855D01*
X018347Y001836D02*
X018423Y002019D01*
X018423Y002480D01*
X018423Y002679D01*
X018347Y002862D01*
X018246Y002963D01*
X018347Y003063D01*
X018392Y003173D01*
X018423Y003247D01*
X018423Y003446D01*
X018347Y003630D01*
X018323Y003654D01*
X018347Y003677D01*
X018423Y003861D01*
X018423Y004674D01*
X018347Y004857D01*
X018323Y004881D01*
X018347Y004905D01*
X018392Y005015D01*
X018423Y005089D01*
X018423Y005288D01*
X018347Y005471D01*
X018206Y005612D01*
X018096Y005657D01*
X018022Y005688D01*
X017463Y005688D01*
X017426Y005778D01*
X017285Y005919D01*
X017101Y005995D01*
X016903Y005995D01*
X016719Y005919D01*
X016578Y005778D01*
X016502Y005594D01*
X016502Y004782D01*
X016578Y004598D01*
X016602Y004574D01*
X016578Y004551D01*
X016502Y004367D01*
X016502Y004168D01*
X016578Y003984D01*
X016602Y003960D01*
X016578Y003937D01*
X016502Y003753D01*
X016502Y003554D01*
X016578Y003370D01*
X016602Y003347D01*
X016578Y003323D01*
X016502Y003139D01*
X016502Y002940D01*
X016556Y002809D01*
X016547Y002788D01*
X016502Y002679D01*
X016502Y002019D01*
X016578Y001836D01*
X016719Y001695D01*
X016903Y001619D01*
X017101Y001619D01*
X017363Y001619D01*
X017562Y001619D01*
X017823Y001619D01*
X018022Y001619D01*
X018206Y001695D01*
X018347Y001836D01*
X018423Y002173D02*
X021772Y002173D01*
X021762Y002492D02*
X018423Y002492D01*
X018368Y002810D02*
X021879Y002810D01*
X022275Y003129D02*
X018374Y003129D01*
X018423Y003247D02*
X018423Y003247D01*
X018422Y003447D02*
X020061Y003447D01*
X019763Y003766D02*
X018383Y003766D01*
X018423Y004085D02*
X019702Y004085D01*
X019702Y004403D02*
X018423Y004403D01*
X018403Y004722D02*
X019861Y004722D01*
X019702Y005040D02*
X018403Y005040D01*
X018423Y005089D02*
X018423Y005089D01*
X018393Y005359D02*
X019773Y005359D01*
X019702Y005677D02*
X018048Y005677D01*
X018022Y005688D02*
X018022Y005688D01*
X016536Y005677D02*
X012692Y005677D01*
X012625Y005359D02*
X016502Y005359D01*
X016502Y005040D02*
X012559Y005040D01*
X012492Y004722D02*
X016527Y004722D01*
X016517Y004403D02*
X012426Y004403D01*
X012359Y004085D02*
X016537Y004085D01*
X016507Y003766D02*
X012292Y003766D01*
X012226Y003447D02*
X016546Y003447D01*
X016502Y003129D02*
X012239Y003129D01*
X012498Y002810D02*
X016556Y002810D01*
X016502Y002492D02*
X012582Y002492D01*
X012539Y002173D02*
X016502Y002173D01*
X016570Y001855D02*
X012479Y001855D01*
X012582Y001536D02*
X021766Y001536D01*
X021762Y001218D02*
X012557Y001218D01*
X012383Y000899D02*
X021885Y000899D01*
X021252Y003436D02*
X021253Y003436D01*
X021264Y003447D02*
X023495Y003447D01*
X023487Y003766D02*
X021562Y003766D01*
X021547Y003730D02*
X021547Y003730D01*
X021547Y003730D01*
X021623Y004085D02*
X023479Y004085D01*
X023472Y004403D02*
X021623Y004403D01*
X021623Y004722D02*
X022359Y004722D01*
X022132Y005127D02*
X022132Y006197D01*
X022258Y006502D01*
X022492Y006736D01*
X022588Y006775D01*
X021092Y008137D01*
X021092Y007227D01*
X020966Y006922D01*
X020732Y006688D01*
X020593Y006631D01*
X020626Y006598D01*
X020663Y006508D01*
X021222Y006508D01*
X021222Y006508D01*
X021296Y006477D01*
X021406Y006432D01*
X021547Y006291D01*
X021623Y006108D01*
X021623Y005909D01*
X021623Y005909D01*
X021592Y005835D01*
X021547Y005725D01*
X021523Y005701D01*
X021547Y005677D01*
X021623Y005996D02*
X022132Y005996D01*
X022181Y006314D02*
X021524Y006314D01*
X022389Y006633D02*
X020598Y006633D01*
X020978Y006951D02*
X022394Y006951D01*
X022044Y007270D02*
X021092Y007270D01*
X021092Y007589D02*
X021695Y007589D01*
X021345Y007907D02*
X021092Y007907D01*
X020097Y008962D02*
X019792Y008836D01*
X019612Y008656D01*
X019592Y008671D01*
X019504Y008716D01*
X019410Y008746D01*
X019312Y008762D01*
X019262Y008762D01*
X019212Y008762D01*
X019114Y008746D01*
X019020Y008716D01*
X018932Y008671D01*
X018852Y008613D01*
X018781Y008542D01*
X018723Y008462D01*
X018678Y008374D01*
X018648Y008280D01*
X018632Y008182D01*
X018632Y007859D01*
X018498Y007993D01*
X018315Y008069D01*
X018179Y008069D01*
X018179Y008312D01*
X018050Y008622D01*
X017956Y008716D01*
X017956Y010561D01*
X017983Y010592D01*
X018030Y010611D01*
X018195Y010776D01*
X020186Y008962D01*
X020097Y008962D01*
X019857Y008863D02*
X017956Y008863D01*
X017956Y009181D02*
X019946Y009181D01*
X019596Y009500D02*
X017956Y009500D01*
X017956Y009818D02*
X019246Y009818D01*
X018896Y010137D02*
X017956Y010137D01*
X017956Y010455D02*
X018547Y010455D01*
X018197Y010774D02*
X018193Y010774D01*
X017662Y011162D02*
X017336Y010798D01*
X017336Y007762D01*
X018179Y008226D02*
X018639Y008226D01*
X018632Y007907D02*
X018584Y007907D01*
X019262Y007907D02*
X019262Y007907D01*
X019262Y007762D02*
X019262Y008762D01*
X019262Y007762D01*
X019262Y006762D01*
X019262Y007762D01*
X019262Y007762D01*
X019262Y007762D01*
X019262Y007589D02*
X019262Y007589D01*
X019262Y007270D02*
X019262Y007270D01*
X019262Y006951D02*
X019262Y006951D01*
X019813Y006633D02*
X018600Y006633D01*
X017831Y006633D02*
X017735Y006633D01*
X016937Y006633D02*
X012892Y006633D01*
X012959Y006951D02*
X016601Y006951D01*
X016494Y007270D02*
X013025Y007270D01*
X013092Y007589D02*
X016494Y007589D01*
X016494Y007907D02*
X013158Y007907D01*
X013225Y008226D02*
X016494Y008226D01*
X016590Y008544D02*
X013432Y008544D01*
X013678Y008863D02*
X016716Y008863D01*
X016716Y009181D02*
X013925Y009181D01*
X014171Y009500D02*
X016716Y009500D01*
X016716Y009818D02*
X014418Y009818D01*
X014664Y010137D02*
X016716Y010137D01*
X016716Y010455D02*
X014911Y010455D01*
X012623Y011730D02*
X009980Y011730D01*
X009933Y011711D02*
X010190Y011814D01*
X010387Y012008D01*
X010495Y012263D01*
X010498Y012540D01*
X010217Y013235D01*
X010023Y013433D01*
X009768Y013541D01*
X009491Y013543D01*
X009234Y013440D01*
X009037Y013246D01*
X008929Y012991D01*
X008926Y012714D01*
X009207Y012019D01*
X009401Y011821D01*
X009656Y011713D01*
X009933Y011711D01*
X009617Y011730D02*
X006771Y011730D01*
X006453Y012048D02*
X009195Y012048D01*
X009066Y012367D02*
X006134Y012367D01*
X005816Y012685D02*
X008938Y012685D01*
X008934Y013004D02*
X005497Y013004D01*
X005179Y013322D02*
X009115Y013322D01*
X010132Y013322D02*
X010601Y013322D01*
X010609Y013286D02*
X010712Y013031D01*
X010815Y012776D01*
X010855Y012709D01*
X010906Y012649D01*
X010964Y012598D01*
X011031Y012556D01*
X011103Y012526D01*
X011178Y012507D01*
X011256Y012500D01*
X011334Y012506D01*
X011410Y012523D01*
X011446Y012538D01*
X011245Y013037D01*
X011245Y013036D01*
X011447Y012538D01*
X011483Y012553D01*
X011550Y012593D01*
X011609Y012643D01*
X011661Y012702D01*
X011702Y012768D01*
X011733Y012840D01*
X011748Y012902D01*
X012300Y012902D01*
X012431Y012956D01*
X012455Y012946D01*
X012561Y012902D01*
X012562Y012902D01*
X012760Y012902D01*
X013067Y012902D01*
X013251Y012978D01*
X013392Y013119D01*
X013482Y013209D01*
X013482Y013209D01*
X013581Y013209D01*
X013618Y013119D01*
X013759Y012978D01*
X013860Y012936D01*
X011446Y010582D01*
X008586Y010582D01*
X008502Y010666D01*
X008197Y010792D01*
X007709Y010792D01*
X003876Y014625D01*
X003869Y014639D01*
X003800Y014702D01*
X011566Y014702D01*
X011470Y014606D01*
X011424Y014496D01*
X011394Y014422D01*
X011394Y013863D01*
X011359Y013849D01*
X011314Y013877D01*
X011242Y013908D01*
X011166Y013927D01*
X011088Y013934D01*
X011010Y013928D01*
X010934Y013911D01*
X010898Y013896D01*
X011087Y013429D01*
X011087Y013428D01*
X010898Y013896D01*
X010862Y013881D01*
X010795Y013841D01*
X010735Y013791D01*
X010684Y013732D01*
X010642Y013666D01*
X010612Y013594D01*
X010593Y013518D01*
X010586Y013440D01*
X010591Y013362D01*
X010609Y013286D01*
X010712Y013031D02*
X011129Y013200D01*
X011129Y013200D01*
X010712Y013031D01*
X010723Y013004D02*
X010311Y013004D01*
X010439Y012685D02*
X010875Y012685D01*
X010496Y012367D02*
X013276Y012367D01*
X013603Y012685D02*
X011646Y012685D01*
X011387Y012685D02*
X011387Y012685D01*
X011258Y013004D02*
X011258Y013004D01*
X011001Y013641D02*
X011001Y013641D01*
X010632Y013641D02*
X004860Y013641D01*
X004541Y013959D02*
X011394Y013959D01*
X011394Y014278D02*
X004223Y014278D01*
X003904Y014596D02*
X011466Y014596D01*
X011394Y014422D02*
X011394Y014422D01*
X013277Y013004D02*
X013733Y013004D01*
X012949Y012048D02*
X010404Y012048D01*
X011969Y011093D02*
X007408Y011093D01*
X007090Y011411D02*
X012296Y011411D01*
X011643Y010774D02*
X008241Y010774D01*
X007662Y009962D02*
X003362Y014262D01*
X002182Y014202D01*
X003382Y013322D02*
X003425Y013322D01*
X003368Y013004D02*
X003744Y013004D01*
X007662Y009962D02*
X011698Y009962D01*
X016545Y014689D01*
X023935Y014689D01*
X024062Y013562D01*
X023062Y013562D02*
X023062Y013047D01*
X024693Y011596D01*
X024693Y009053D01*
X024062Y008662D01*
X022962Y008662D02*
X023062Y010562D01*
X023706Y011329D02*
X023501Y011534D01*
X023216Y011652D01*
X022908Y011652D01*
X022623Y011534D01*
X022562Y011473D01*
X022501Y011534D01*
X022216Y011652D01*
X021908Y011652D01*
X021623Y011534D01*
X021562Y011473D01*
X021501Y011534D01*
X021216Y011652D01*
X020908Y011652D01*
X020623Y011534D01*
X020405Y011316D01*
X020287Y011031D01*
X020287Y010547D01*
X019703Y011079D01*
X019716Y011077D01*
X019762Y011077D01*
X019808Y011077D01*
X019899Y011091D01*
X019987Y011120D01*
X020069Y011162D01*
X020143Y011216D01*
X020208Y011281D01*
X020262Y011355D01*
X020304Y011437D01*
X020333Y011525D01*
X020347Y011616D01*
X020347Y011662D01*
X020347Y011708D01*
X020333Y011799D01*
X020304Y011887D01*
X020262Y011969D01*
X020227Y012017D01*
X020428Y012217D01*
X020514Y012427D01*
X020623Y012502D01*
X020625Y012503D01*
X020703Y012557D01*
X020908Y012472D01*
X021216Y012472D01*
X021501Y012590D01*
X021562Y012651D01*
X021623Y012590D01*
X021908Y012472D01*
X022216Y012472D01*
X022501Y012590D01*
X022562Y012651D01*
X022623Y012590D01*
X022656Y012576D01*
X022711Y012521D01*
X022728Y012514D01*
X023936Y011439D01*
X023927Y011438D01*
X023841Y011410D01*
X023761Y011369D01*
X023706Y011329D01*
X023624Y011411D02*
X023845Y011411D01*
X023610Y011730D02*
X020344Y011730D01*
X020347Y011662D02*
X019762Y011662D01*
X019177Y011662D01*
X019177Y011616D01*
X019188Y011549D01*
X018871Y011837D01*
X018620Y012376D01*
X018736Y012492D01*
X018862Y012797D01*
X018862Y013127D01*
X018736Y013432D01*
X018706Y013462D01*
X018736Y013492D01*
X018862Y013797D01*
X018862Y014069D01*
X020303Y014069D01*
X020287Y014031D01*
X020287Y013778D01*
X020017Y013590D01*
X019809Y013447D01*
X019606Y013447D01*
X019317Y013328D01*
X019097Y013107D01*
X018977Y012818D01*
X018977Y012506D01*
X019097Y012217D01*
X019297Y012017D01*
X019262Y011969D01*
X019220Y011887D01*
X019191Y011799D01*
X019177Y011708D01*
X019177Y011662D01*
X019762Y011662D01*
X019762Y011662D01*
X019762Y011077D01*
X019762Y011662D01*
X019762Y011662D01*
X019762Y011662D01*
X020347Y011662D01*
X020291Y011411D02*
X020500Y011411D01*
X020312Y011093D02*
X019902Y011093D01*
X019762Y011093D02*
X019762Y011093D01*
X019762Y011411D02*
X019762Y011411D01*
X019180Y011730D02*
X018989Y011730D01*
X018773Y012048D02*
X019266Y012048D01*
X019035Y012367D02*
X018624Y012367D01*
X018816Y012685D02*
X018977Y012685D01*
X019054Y013004D02*
X018862Y013004D01*
X018781Y013322D02*
X019312Y013322D01*
X018797Y013641D02*
X020090Y013641D01*
X020287Y013959D02*
X018862Y013959D01*
X017662Y013962D02*
X016862Y013962D01*
X016762Y013862D01*
X012662Y008562D01*
X011382Y002442D01*
X012759Y005996D02*
X019702Y005996D01*
X019702Y006314D02*
X012825Y006314D01*
X018082Y008544D02*
X018783Y008544D01*
X019262Y008544D02*
X019262Y008544D01*
X019262Y008226D02*
X019262Y008226D01*
X020038Y010774D02*
X020287Y010774D01*
X020258Y012048D02*
X023252Y012048D01*
X022894Y012367D02*
X020489Y012367D01*
X020372Y013082D02*
X019762Y012662D01*
X020372Y013082D02*
X021062Y013562D01*
D17*
X021562Y012062D03*
X018162Y010362D03*
X017662Y011162D03*
X016762Y011762D03*
X012762Y012962D03*
X006882Y013482D03*
X005962Y008282D03*
X014562Y006162D03*
X015962Y003062D03*
X021362Y001862D03*
X007762Y002962D03*
X004242Y001262D03*
M02*
