G75*
G70*
%OFA0B0*%
%FSLAX24Y24*%
%IPPOS*%
%LPD*%
%AMOC8*
5,1,8,0,0,1.08239X$1,22.5*
%
%ADD10C,0.0080*%
%ADD11C,0.0150*%
D10*
X016942Y006187D02*
X016860Y005997D01*
X016769Y005811D01*
X016669Y005629D01*
X016561Y005453D01*
X016444Y005282D01*
X016319Y005117D01*
X016185Y004958D01*
X016045Y004806D01*
X015897Y004661D01*
X015742Y004523D01*
X015580Y004394D01*
X015413Y004272D01*
X015239Y004158D01*
X015061Y004054D01*
X014877Y003958D01*
X014689Y003871D01*
X014497Y003793D01*
X014301Y003725D01*
X014102Y003666D01*
X013901Y003618D01*
X013697Y003579D01*
X013492Y003550D01*
X013286Y003531D01*
X013079Y003523D01*
X012872Y003524D01*
X012665Y003536D01*
X012459Y003557D01*
X012254Y003589D01*
X012051Y003631D01*
X011850Y003682D01*
X011653Y003743D01*
X011458Y003814D01*
X011267Y003895D01*
X011080Y003984D01*
X010898Y004083D01*
X010721Y004190D01*
X010549Y004306D01*
X010383Y004430D01*
X010223Y004562D01*
X010070Y004702D01*
X009924Y004849D01*
X009786Y005003D01*
X009655Y005163D01*
X009532Y005330D01*
X009417Y005503D01*
X009311Y005681D01*
X009214Y005864D01*
X009126Y006051D01*
X009047Y006243D01*
X008977Y006438D01*
X008917Y006636D01*
X008867Y006837D01*
X008827Y007040D01*
X008797Y007245D01*
X008776Y007451D01*
X008766Y007658D01*
X008766Y007866D01*
X008776Y008073D01*
X008797Y008279D01*
X008827Y008484D01*
X008867Y008687D01*
X008917Y008888D01*
X008977Y009086D01*
X009047Y009281D01*
X009126Y009473D01*
X009214Y009660D01*
X009311Y009843D01*
X009417Y010021D01*
X009532Y010194D01*
X009655Y010361D01*
X009786Y010521D01*
X009924Y010675D01*
X010070Y010822D01*
X010223Y010962D01*
X010383Y011094D01*
X010549Y011218D01*
X010721Y011334D01*
X010898Y011441D01*
X011080Y011540D01*
X011267Y011629D01*
X011458Y011710D01*
X011653Y011781D01*
X011850Y011842D01*
X012051Y011893D01*
X012254Y011935D01*
X012459Y011967D01*
X012665Y011988D01*
X012872Y012000D01*
X013079Y012001D01*
X013286Y011993D01*
X013492Y011974D01*
X013697Y011945D01*
X013901Y011906D01*
X014102Y011858D01*
X014301Y011799D01*
X014497Y011731D01*
X014689Y011653D01*
X014877Y011566D01*
X015061Y011470D01*
X015239Y011366D01*
X015413Y011252D01*
X015580Y011130D01*
X015742Y011001D01*
X015897Y010863D01*
X016045Y010718D01*
X016185Y010566D01*
X016319Y010407D01*
X016444Y010242D01*
X016561Y010071D01*
X016669Y009895D01*
X016769Y009713D01*
X016860Y009527D01*
X016942Y009337D01*
X018123Y009337D01*
X018123Y006187D01*
X016942Y006187D01*
X011102Y012339D02*
X010372Y012044D01*
X010371Y012045D02*
X010328Y012033D01*
X010284Y012024D01*
X010240Y012019D01*
X010195Y012017D01*
X010150Y012019D01*
X010106Y012024D01*
X010062Y012033D01*
X010019Y012045D01*
X009977Y012061D01*
X009936Y012080D01*
X009897Y012102D01*
X009860Y012127D01*
X009825Y012155D01*
X009793Y012186D01*
X009762Y012219D01*
X009735Y012255D01*
X009470Y012911D02*
X009465Y012956D01*
X009464Y013000D01*
X009466Y013045D01*
X009472Y013090D01*
X009481Y013133D01*
X009494Y013176D01*
X009510Y013218D01*
X009529Y013259D01*
X009552Y013297D01*
X009577Y013334D01*
X009605Y013369D01*
X009636Y013402D01*
X009670Y013431D01*
X009705Y013459D01*
X009743Y013483D01*
X009782Y013504D01*
X009782Y013505D02*
X010512Y013800D01*
X010513Y013799D02*
X010556Y013811D01*
X010600Y013820D01*
X010644Y013825D01*
X010689Y013827D01*
X010734Y013825D01*
X010778Y013820D01*
X010822Y013811D01*
X010865Y013799D01*
X010907Y013783D01*
X010948Y013764D01*
X010987Y013742D01*
X011024Y013717D01*
X011059Y013689D01*
X011091Y013658D01*
X011122Y013625D01*
X011149Y013589D01*
X011414Y012933D02*
X011419Y012888D01*
X011420Y012844D01*
X011418Y012799D01*
X011412Y012754D01*
X011403Y012711D01*
X011390Y012668D01*
X011374Y012626D01*
X011355Y012585D01*
X011332Y012547D01*
X011307Y012510D01*
X011279Y012475D01*
X011248Y012442D01*
X011214Y012413D01*
X011179Y012385D01*
X011141Y012361D01*
X011102Y012340D01*
D11*
X018762Y008762D02*
X018762Y006762D01*
X018816Y006711D01*
X018872Y006663D01*
X018931Y006618D01*
X018992Y006576D01*
X019055Y006537D01*
X019120Y006502D01*
X019187Y006470D01*
X019255Y006442D01*
X019325Y006417D01*
X019396Y006396D01*
X019468Y006379D01*
X019541Y006365D01*
X019614Y006356D01*
X019688Y006350D01*
X019762Y006348D01*
X019836Y006350D01*
X019910Y006356D01*
X019983Y006365D01*
X020056Y006379D01*
X020128Y006396D01*
X020199Y006417D01*
X020269Y006442D01*
X020337Y006470D01*
X020404Y006502D01*
X020469Y006537D01*
X020532Y006576D01*
X020593Y006618D01*
X020652Y006663D01*
X020708Y006711D01*
X020762Y006762D01*
X020813Y006816D01*
X020861Y006872D01*
X020906Y006931D01*
X020948Y006992D01*
X020987Y007055D01*
X021022Y007120D01*
X021054Y007187D01*
X021082Y007255D01*
X021107Y007325D01*
X021128Y007396D01*
X021145Y007468D01*
X021159Y007541D01*
X021168Y007614D01*
X021174Y007688D01*
X021176Y007762D01*
X021174Y007836D01*
X021168Y007910D01*
X021159Y007983D01*
X021145Y008056D01*
X021128Y008128D01*
X021107Y008199D01*
X021082Y008269D01*
X021054Y008337D01*
X021022Y008404D01*
X020987Y008469D01*
X020948Y008532D01*
X020906Y008593D01*
X020861Y008652D01*
X020813Y008708D01*
X020762Y008762D01*
X020708Y008813D01*
X020652Y008861D01*
X020593Y008906D01*
X020532Y008948D01*
X020469Y008987D01*
X020404Y009022D01*
X020337Y009054D01*
X020269Y009082D01*
X020199Y009107D01*
X020128Y009128D01*
X020056Y009145D01*
X019983Y009159D01*
X019910Y009168D01*
X019836Y009174D01*
X019762Y009176D01*
X019688Y009174D01*
X019614Y009168D01*
X019541Y009159D01*
X019468Y009145D01*
X019396Y009128D01*
X019325Y009107D01*
X019255Y009082D01*
X019187Y009054D01*
X019120Y009022D01*
X019055Y008987D01*
X018992Y008948D01*
X018931Y008906D01*
X018872Y008861D01*
X018816Y008813D01*
X018762Y008762D01*
M02*
