G75*
G70*
%OFA0B0*%
%FSLAX24Y24*%
%IPPOS*%
%LPD*%
%AMOC8*
5,1,8,0,0,1.08239X$1,22.5*
%
%ADD10C,0.0000*%
%ADD11C,0.0630*%
%ADD12C,0.0740*%
%ADD13C,0.0472*%
%ADD14C,0.0650*%
%ADD15C,0.0765*%
%ADD16C,0.0320*%
%ADD17C,0.0380*%
D10*
X000262Y000262D02*
X000262Y015262D01*
X025262Y015262D01*
X025262Y000262D01*
X000262Y000262D01*
D11*
X021062Y010247D02*
X021062Y010877D01*
X022062Y010877D02*
X022062Y010247D01*
X023062Y010247D02*
X023062Y010877D01*
X024062Y010877D02*
X024062Y010247D01*
X024062Y013247D02*
X024062Y013877D01*
X023062Y013877D02*
X023062Y013247D01*
X022062Y013247D02*
X022062Y013877D01*
X021062Y013877D02*
X021062Y013247D01*
D12*
X018032Y012962D02*
X017292Y012962D01*
X017292Y013962D02*
X018032Y013962D01*
X022962Y009032D02*
X022962Y008292D01*
X024062Y008292D02*
X024062Y009032D01*
X020262Y008132D02*
X020262Y007392D01*
X019262Y007392D02*
X019262Y008132D01*
X022962Y006032D02*
X022962Y005292D01*
X024062Y005292D02*
X024062Y006032D01*
X023332Y002362D02*
X022592Y002362D01*
X022592Y001362D02*
X023332Y001362D01*
X011752Y001442D02*
X011012Y001442D01*
X011012Y002442D02*
X011752Y002442D01*
X003832Y003262D02*
X003092Y003262D01*
X003092Y004262D02*
X003832Y004262D01*
X007292Y008962D02*
X008032Y008962D01*
X008032Y009962D02*
X007292Y009962D01*
X002552Y013202D02*
X001812Y013202D01*
X001812Y014202D02*
X002552Y014202D01*
D13*
X009624Y012846D02*
X009800Y012408D01*
X011261Y012998D02*
X011084Y013436D01*
D14*
X019762Y012662D03*
X019762Y011662D03*
D15*
X017336Y008145D02*
X017336Y007380D01*
X009462Y007380D02*
X009462Y008145D01*
D16*
X009462Y008226D02*
X009462Y008226D01*
X009462Y008544D02*
X009462Y008544D01*
X009336Y008776D02*
X009255Y008754D01*
X009177Y008722D01*
X009104Y008680D01*
X009037Y008629D01*
X008978Y008569D01*
X008927Y008502D01*
X008885Y008429D01*
X008852Y008352D01*
X008831Y008270D01*
X008820Y008187D01*
X008820Y007762D01*
X008820Y007337D01*
X008831Y007254D01*
X008852Y007173D01*
X008885Y007095D01*
X008927Y007022D01*
X008978Y006955D01*
X009037Y006895D01*
X009104Y006844D01*
X009177Y006802D01*
X009255Y006770D01*
X009336Y006748D01*
X009420Y006737D01*
X009462Y006737D01*
X009504Y006737D01*
X009588Y006748D01*
X009669Y006770D01*
X009747Y006802D01*
X009820Y006844D01*
X009887Y006895D01*
X009946Y006955D01*
X009997Y007022D01*
X010039Y007095D01*
X010072Y007173D01*
X010094Y007254D01*
X010105Y007337D01*
X010105Y007762D01*
X010105Y008187D01*
X010094Y008270D01*
X010072Y008352D01*
X010039Y008429D01*
X009997Y008502D01*
X009946Y008569D01*
X009887Y008629D01*
X009820Y008680D01*
X009747Y008722D01*
X009669Y008754D01*
X009588Y008776D01*
X009504Y008787D01*
X009462Y008787D01*
X009420Y008787D01*
X009336Y008776D01*
X009462Y008787D02*
X009462Y007762D01*
X008820Y007762D01*
X009462Y007762D01*
X009462Y007762D01*
X009462Y006737D01*
X009462Y007762D01*
X009462Y007762D01*
X009462Y007762D01*
X009462Y008787D01*
X008959Y008544D02*
X008757Y008544D01*
X008736Y008492D02*
X008862Y008797D01*
X008862Y009127D01*
X008736Y009432D01*
X008706Y009462D01*
X008736Y009492D01*
X008862Y009797D01*
X008862Y010127D01*
X008736Y010432D01*
X008502Y010666D01*
X008197Y010792D01*
X007127Y010792D01*
X006822Y010666D01*
X006588Y010432D01*
X006462Y010127D01*
X006462Y009797D01*
X006488Y009734D01*
X005886Y009809D01*
X005917Y013942D01*
X014706Y013942D01*
X016342Y012486D01*
X016423Y012409D01*
X016433Y012405D01*
X016442Y012397D01*
X016547Y012360D01*
X016652Y012319D01*
X016664Y012320D01*
X016675Y012316D01*
X016759Y012321D01*
X016822Y012258D01*
X017127Y012132D01*
X017787Y012132D01*
X017381Y011749D01*
X017294Y011713D01*
X017111Y011530D01*
X017012Y011291D01*
X017012Y011033D01*
X017111Y010794D01*
X017294Y010611D01*
X017533Y010512D01*
X017791Y010512D01*
X018030Y010611D01*
X018213Y010794D01*
X018237Y010852D01*
X018898Y011475D01*
X019177Y011630D01*
X019177Y011616D01*
X019191Y011525D01*
X019220Y011437D01*
X019262Y011355D01*
X019316Y011281D01*
X019381Y011216D01*
X019455Y011162D01*
X019537Y011120D01*
X019625Y011091D01*
X019716Y011077D01*
X019762Y011077D01*
X019808Y011077D01*
X019899Y011091D01*
X019987Y011120D01*
X020069Y011162D01*
X020143Y011216D01*
X020208Y011281D01*
X020262Y011355D01*
X020304Y011437D01*
X020333Y011525D01*
X020347Y011616D01*
X020347Y011662D01*
X020347Y011708D01*
X020333Y011799D01*
X020304Y011887D01*
X020262Y011969D01*
X020227Y012017D01*
X020428Y012217D01*
X020547Y012506D01*
X020547Y012666D01*
X020623Y012590D01*
X020908Y012472D01*
X021216Y012472D01*
X021501Y012590D01*
X021562Y012651D01*
X021623Y012590D01*
X021908Y012472D01*
X022216Y012472D01*
X022501Y012590D01*
X022562Y012651D01*
X022623Y012590D01*
X022908Y012472D01*
X023216Y012472D01*
X023501Y012590D01*
X023562Y012651D01*
X023623Y012590D01*
X023908Y012472D01*
X024216Y012472D01*
X024501Y012590D01*
X024702Y012791D01*
X024702Y009566D01*
X024532Y009736D01*
X024407Y009787D01*
X024437Y009808D01*
X024501Y009872D01*
X024554Y009946D01*
X024595Y010026D01*
X024623Y010112D01*
X024637Y010202D01*
X024637Y010562D01*
X024637Y010922D01*
X024623Y011012D01*
X024595Y011098D01*
X024554Y011178D01*
X024501Y011252D01*
X024437Y011316D01*
X024363Y011369D01*
X024283Y011410D01*
X024197Y011438D01*
X024107Y011452D01*
X024062Y011452D01*
X024017Y011452D01*
X023927Y011438D01*
X023841Y011410D01*
X023761Y011369D01*
X023706Y011329D01*
X023501Y011534D01*
X023216Y011652D01*
X022908Y011652D01*
X022623Y011534D01*
X022562Y011473D01*
X022501Y011534D01*
X022216Y011652D01*
X021908Y011652D01*
X021623Y011534D01*
X021562Y011473D01*
X021501Y011534D01*
X021216Y011652D01*
X020908Y011652D01*
X020623Y011534D01*
X020405Y011316D01*
X020287Y011031D01*
X020287Y010664D01*
X019885Y010262D01*
X014492Y010262D01*
X013197Y011084D01*
X010326Y012966D01*
X010217Y013235D01*
X010023Y013433D01*
X009768Y013541D01*
X009491Y013543D01*
X009234Y013440D01*
X009037Y013246D01*
X008929Y012991D01*
X008926Y012714D01*
X009207Y012019D01*
X009401Y011821D01*
X009656Y011713D01*
X009933Y011711D01*
X009961Y011722D01*
X012423Y010108D01*
X012426Y010105D01*
X012524Y010042D01*
X012625Y009976D01*
X012630Y009975D01*
X013922Y009155D01*
X013961Y009116D01*
X014025Y009090D01*
X014084Y009052D01*
X014138Y009043D01*
X014189Y009022D01*
X014258Y009022D01*
X014327Y009010D01*
X014381Y009022D01*
X019642Y009022D01*
X019642Y008686D01*
X019612Y008656D01*
X019592Y008671D01*
X019504Y008716D01*
X019410Y008746D01*
X019312Y008762D01*
X019262Y008762D01*
X019212Y008762D01*
X019114Y008746D01*
X019020Y008716D01*
X018932Y008671D01*
X018852Y008613D01*
X018781Y008542D01*
X018723Y008462D01*
X018678Y008374D01*
X018648Y008280D01*
X018632Y008182D01*
X018632Y007762D01*
X018632Y007342D01*
X018648Y007244D01*
X018678Y007150D01*
X018723Y007062D01*
X018781Y006982D01*
X018852Y006911D01*
X018932Y006853D01*
X019020Y006808D01*
X019114Y006778D01*
X019212Y006762D01*
X019262Y006762D01*
X019312Y006762D01*
X019410Y006778D01*
X019504Y006808D01*
X019592Y006853D01*
X019612Y006868D01*
X019709Y006772D01*
X017514Y004882D01*
X004386Y004882D01*
X004302Y004966D01*
X003997Y005092D01*
X002927Y005092D01*
X002622Y004966D01*
X002388Y004732D01*
X002262Y004427D01*
X002262Y004097D01*
X002388Y003792D01*
X002418Y003762D01*
X002388Y003732D01*
X002262Y003427D01*
X002262Y003097D01*
X002388Y002792D01*
X002622Y002558D01*
X002927Y002432D01*
X003827Y002432D01*
X007368Y000919D01*
X007371Y000916D01*
X007483Y000870D01*
X007592Y000823D01*
X007595Y000823D01*
X007599Y000822D01*
X007719Y000822D01*
X007725Y000822D01*
X000822Y000822D01*
X000822Y014702D01*
X001138Y014702D01*
X001108Y014672D01*
X000982Y014367D01*
X000982Y014037D01*
X001108Y013732D01*
X001138Y013702D01*
X001108Y013672D01*
X000982Y013367D01*
X000982Y013037D01*
X001108Y012732D01*
X001342Y012498D01*
X001647Y012372D01*
X002717Y012372D01*
X003022Y012498D01*
X003256Y012732D01*
X003382Y013037D01*
X003382Y013367D01*
X003256Y013672D01*
X003226Y013702D01*
X003256Y013732D01*
X003382Y014037D01*
X003382Y014367D01*
X003256Y014672D01*
X003226Y014702D01*
X004688Y014702D01*
X004683Y014690D01*
X004683Y014688D01*
X004682Y014685D01*
X004682Y014563D01*
X004642Y009303D01*
X004632Y009217D01*
X004641Y009181D01*
X000822Y009181D01*
X000822Y008863D02*
X004785Y008863D01*
X004795Y008853D02*
X004848Y008784D01*
X004881Y008766D01*
X004907Y008739D01*
X004987Y008705D01*
X005063Y008662D01*
X005100Y008658D01*
X005134Y008643D01*
X005221Y008642D01*
X006612Y008469D01*
X006822Y008258D01*
X007127Y008132D01*
X008197Y008132D01*
X008502Y008258D01*
X008736Y008492D01*
X008825Y008226D02*
X008423Y008226D01*
X008820Y007907D02*
X000822Y007907D01*
X000822Y007589D02*
X008820Y007589D01*
X008828Y007270D02*
X000822Y007270D01*
X000822Y006951D02*
X008981Y006951D01*
X009462Y006951D02*
X009462Y006951D01*
X009462Y007270D02*
X009462Y007270D01*
X009462Y007589D02*
X009462Y007589D01*
X009462Y007762D02*
X009462Y007762D01*
X010105Y007762D01*
X009462Y007762D01*
X009462Y007907D02*
X009462Y007907D01*
X010105Y007907D02*
X016494Y007907D01*
X016494Y007589D02*
X010105Y007589D01*
X010096Y007270D02*
X016494Y007270D01*
X016494Y007212D02*
X016622Y006902D01*
X016859Y006665D01*
X017168Y006537D01*
X017504Y006537D01*
X017813Y006665D01*
X018050Y006902D01*
X018179Y007212D01*
X018179Y008312D01*
X018050Y008622D01*
X017813Y008859D01*
X017504Y008987D01*
X017168Y008987D01*
X016859Y008859D01*
X016622Y008622D01*
X016494Y008312D01*
X016494Y007212D01*
X016601Y006951D02*
X009943Y006951D01*
X010099Y008226D02*
X016494Y008226D01*
X016590Y008544D02*
X009965Y008544D01*
X008862Y008863D02*
X016868Y008863D01*
X017804Y008863D02*
X019642Y008863D01*
X019262Y008762D02*
X019262Y007762D01*
X019262Y006762D01*
X019262Y007762D01*
X019262Y007762D01*
X018632Y007762D01*
X019262Y007762D01*
X019262Y007762D01*
X019262Y008762D01*
X019262Y008544D02*
X019262Y008544D01*
X019262Y008226D02*
X019262Y008226D01*
X019262Y007907D02*
X019262Y007907D01*
X019262Y007762D02*
X019262Y007762D01*
X019262Y007589D02*
X019262Y007589D01*
X019262Y007270D02*
X019262Y007270D01*
X019262Y006951D02*
X019262Y006951D01*
X019548Y006633D02*
X017735Y006633D01*
X018071Y006951D02*
X018812Y006951D01*
X018644Y007270D02*
X018179Y007270D01*
X018179Y007589D02*
X018632Y007589D01*
X018632Y007907D02*
X018179Y007907D01*
X018179Y008226D02*
X018639Y008226D01*
X018783Y008544D02*
X018082Y008544D01*
X020262Y007762D02*
X020262Y009642D01*
X020262Y009762D01*
X021062Y010562D01*
X020287Y010774D02*
X018193Y010774D01*
X018492Y011093D02*
X019622Y011093D01*
X019762Y011093D02*
X019762Y011093D01*
X019762Y011077D02*
X019762Y011662D01*
X019762Y011662D01*
X019762Y011077D01*
X019902Y011093D02*
X020312Y011093D01*
X020291Y011411D02*
X020500Y011411D01*
X020347Y011662D02*
X019762Y011662D01*
X020347Y011662D01*
X020344Y011730D02*
X024702Y011730D01*
X024702Y012048D02*
X020258Y012048D01*
X020489Y012367D02*
X024702Y012367D01*
X024702Y012685D02*
X024596Y012685D01*
X024702Y011411D02*
X024279Y011411D01*
X024062Y011411D02*
X024062Y011411D01*
X024062Y011452D02*
X024062Y010562D01*
X024062Y010562D01*
X024062Y011452D01*
X023845Y011411D02*
X023624Y011411D01*
X024062Y011093D02*
X024062Y011093D01*
X024062Y010774D02*
X024062Y010774D01*
X024062Y010562D02*
X024637Y010562D01*
X024062Y010562D01*
X024062Y010562D01*
X024637Y010455D02*
X024702Y010455D01*
X024702Y010137D02*
X024627Y010137D01*
X024702Y009818D02*
X024446Y009818D01*
X024637Y010774D02*
X024702Y010774D01*
X024702Y011093D02*
X024597Y011093D01*
X022062Y010562D02*
X022062Y007980D01*
X017744Y004262D01*
X003462Y004262D01*
X002414Y003766D02*
X000822Y003766D01*
X000822Y003447D02*
X002271Y003447D01*
X002262Y003129D02*
X000822Y003129D01*
X000822Y002810D02*
X002381Y002810D01*
X002783Y002492D02*
X000822Y002492D01*
X000822Y002173D02*
X004432Y002173D01*
X005178Y001855D02*
X000822Y001855D01*
X000822Y001536D02*
X005924Y001536D01*
X006669Y001218D02*
X000822Y001218D01*
X000822Y000899D02*
X007413Y000899D01*
X007722Y001442D02*
X003462Y003262D01*
X004573Y003642D02*
X017721Y003642D01*
X017821Y003635D01*
X017844Y003642D01*
X017868Y003642D01*
X017960Y003680D01*
X018055Y003712D01*
X018073Y003727D01*
X018095Y003736D01*
X018166Y003807D01*
X022142Y007231D01*
X022823Y006862D01*
X022797Y006862D01*
X022492Y006736D01*
X022258Y006502D01*
X022132Y006197D01*
X022132Y005813D01*
X017174Y002081D01*
X012494Y002066D01*
X012582Y002277D01*
X012582Y002607D01*
X012456Y002912D01*
X012222Y003146D01*
X011917Y003272D01*
X010847Y003272D01*
X010542Y003146D01*
X010308Y002912D01*
X010182Y002607D01*
X010182Y002277D01*
X010271Y002062D01*
X007849Y002062D01*
X004662Y003424D01*
X004662Y003427D01*
X004573Y003642D01*
X004654Y003447D02*
X018989Y003447D01*
X018566Y003129D02*
X012239Y003129D01*
X012498Y002810D02*
X018143Y002810D01*
X017719Y002492D02*
X012582Y002492D01*
X012539Y002173D02*
X017296Y002173D01*
X017382Y001462D02*
X011382Y001442D01*
X007722Y001442D01*
X007588Y002173D02*
X010225Y002173D01*
X010182Y002492D02*
X006843Y002492D01*
X006097Y002810D02*
X010266Y002810D01*
X010525Y003129D02*
X005352Y003129D01*
X002384Y004722D02*
X000822Y004722D01*
X000822Y005040D02*
X002802Y005040D01*
X002262Y004403D02*
X000822Y004403D01*
X000822Y004085D02*
X002267Y004085D01*
X004122Y005040D02*
X017698Y005040D01*
X018068Y005359D02*
X000822Y005359D01*
X000822Y005677D02*
X018438Y005677D01*
X018808Y005996D02*
X000822Y005996D01*
X000822Y006314D02*
X019178Y006314D01*
X020338Y005677D02*
X021951Y005677D01*
X022132Y005996D02*
X020708Y005996D01*
X021078Y006314D02*
X022181Y006314D01*
X022389Y006633D02*
X021448Y006633D01*
X021818Y006951D02*
X022658Y006951D01*
X022062Y007980D02*
X024683Y006559D01*
X024683Y004103D01*
X022962Y002362D01*
X022122Y003066D02*
X021888Y002832D01*
X021762Y002527D01*
X021762Y002197D01*
X021888Y001892D01*
X021918Y001862D01*
X021888Y001832D01*
X021762Y001527D01*
X021762Y001197D01*
X021888Y000892D01*
X021958Y000822D01*
X012306Y000822D01*
X012309Y000825D01*
X017339Y000842D01*
X017418Y000831D01*
X017462Y000842D01*
X017507Y000842D01*
X017580Y000873D01*
X017656Y000893D01*
X017693Y000920D01*
X017735Y000938D01*
X017790Y000993D01*
X022540Y004568D01*
X022797Y004462D01*
X023127Y004462D01*
X023432Y004588D01*
X023512Y004668D01*
X023592Y004588D01*
X023897Y004462D01*
X024063Y004462D01*
X024063Y004357D01*
X022911Y003192D01*
X022427Y003192D01*
X022122Y003066D01*
X022275Y003129D02*
X020628Y003129D01*
X021051Y003447D02*
X023163Y003447D01*
X023478Y003766D02*
X021474Y003766D01*
X021897Y004085D02*
X023793Y004085D01*
X024063Y004403D02*
X022320Y004403D01*
X021105Y005040D02*
X019598Y005040D01*
X019228Y004722D02*
X020682Y004722D01*
X020259Y004403D02*
X018858Y004403D01*
X018488Y004085D02*
X019835Y004085D01*
X019412Y003766D02*
X018125Y003766D01*
X019781Y002492D02*
X021762Y002492D01*
X021772Y002173D02*
X019358Y002173D01*
X018935Y001855D02*
X021911Y001855D01*
X021766Y001536D02*
X018511Y001536D01*
X018088Y001218D02*
X021762Y001218D01*
X021885Y000899D02*
X017665Y000899D01*
X017382Y001462D02*
X022962Y005662D01*
X021528Y005359D02*
X019968Y005359D01*
X016937Y006633D02*
X000822Y006633D01*
X000822Y008226D02*
X006901Y008226D01*
X006006Y008544D02*
X000822Y008544D01*
X000822Y009500D02*
X004644Y009500D01*
X004646Y009818D02*
X000822Y009818D01*
X000822Y010137D02*
X004649Y010137D01*
X004651Y010455D02*
X000822Y010455D01*
X000822Y010774D02*
X004653Y010774D01*
X004656Y011093D02*
X000822Y011093D01*
X000822Y011411D02*
X004658Y011411D01*
X004661Y011730D02*
X000822Y011730D01*
X000822Y012048D02*
X004663Y012048D01*
X004666Y012367D02*
X000822Y012367D01*
X000822Y012685D02*
X001155Y012685D01*
X000996Y013004D02*
X000822Y013004D01*
X000822Y013322D02*
X000982Y013322D01*
X001095Y013641D02*
X000822Y013641D01*
X000822Y013959D02*
X001014Y013959D01*
X000982Y014278D02*
X000822Y014278D01*
X000822Y014596D02*
X001077Y014596D01*
X003287Y014596D02*
X004682Y014596D01*
X004680Y014278D02*
X003382Y014278D01*
X003350Y013959D02*
X004678Y013959D01*
X004675Y013641D02*
X003269Y013641D01*
X003382Y013322D02*
X004673Y013322D01*
X004670Y013004D02*
X003368Y013004D01*
X003209Y012685D02*
X004668Y012685D01*
X005908Y012685D02*
X008938Y012685D01*
X008934Y013004D02*
X005910Y013004D01*
X005913Y013322D02*
X009115Y013322D01*
X009712Y012627D02*
X012862Y010562D01*
X014312Y009642D01*
X020262Y009642D01*
X020079Y010455D02*
X014187Y010455D01*
X013685Y010774D02*
X017131Y010774D01*
X017012Y011093D02*
X013184Y011093D01*
X012698Y011411D02*
X017062Y011411D01*
X017334Y011730D02*
X012212Y011730D01*
X011726Y012048D02*
X017698Y012048D01*
X018530Y011980D02*
X017662Y011162D01*
X018830Y011411D02*
X019233Y011411D01*
X019762Y011411D02*
X019762Y011411D01*
X019762Y011662D02*
X019762Y011662D01*
X019762Y012662D02*
X018530Y011980D01*
X017662Y012962D02*
X016762Y012942D01*
X014942Y014562D01*
X005302Y014562D01*
X005262Y009262D01*
X007662Y008962D01*
X008739Y009500D02*
X013379Y009500D01*
X012877Y009818D02*
X008862Y009818D01*
X008858Y010137D02*
X012380Y010137D01*
X011894Y010455D02*
X008712Y010455D01*
X008241Y010774D02*
X011408Y010774D01*
X010922Y011093D02*
X005896Y011093D01*
X005898Y011411D02*
X010436Y011411D01*
X009617Y011730D02*
X005901Y011730D01*
X005903Y012048D02*
X009195Y012048D01*
X009066Y012367D02*
X005905Y012367D01*
X005915Y013641D02*
X010632Y013641D01*
X010642Y013666D02*
X010612Y013594D01*
X010593Y013518D01*
X010586Y013440D01*
X010591Y013362D01*
X010609Y013286D01*
X010712Y013031D01*
X010815Y012776D01*
X010855Y012709D01*
X010906Y012649D01*
X010964Y012598D01*
X011031Y012556D01*
X011103Y012526D01*
X011178Y012507D01*
X011256Y012500D01*
X011334Y012506D01*
X011410Y012523D01*
X011446Y012538D01*
X011172Y013217D01*
X011172Y013217D01*
X010712Y013031D01*
X011172Y013217D01*
X010898Y013896D01*
X011172Y013217D01*
X011172Y013217D01*
X011632Y013403D01*
X011529Y013658D01*
X011489Y013725D01*
X011439Y013785D01*
X011380Y013836D01*
X011314Y013877D01*
X011242Y013908D01*
X011166Y013927D01*
X011088Y013934D01*
X011010Y013928D01*
X010934Y013911D01*
X010898Y013896D01*
X010862Y013881D01*
X010795Y013841D01*
X010735Y013791D01*
X010684Y013732D01*
X010642Y013666D01*
X011001Y013641D02*
X011001Y013641D01*
X011129Y013322D02*
X011130Y013322D01*
X011173Y013217D02*
X011172Y013217D01*
X011447Y012538D01*
X011483Y012553D01*
X011550Y012593D01*
X011609Y012643D01*
X011661Y012702D01*
X011702Y012768D01*
X011733Y012840D01*
X011751Y012916D01*
X011758Y012994D01*
X011753Y013071D01*
X011735Y013148D01*
X011632Y013403D01*
X011173Y013217D01*
X011172Y013217D02*
X011172Y013217D01*
X011432Y013322D02*
X011433Y013322D01*
X011665Y013322D02*
X015402Y013322D01*
X015044Y013641D02*
X011536Y013641D01*
X010601Y013322D02*
X010132Y013322D01*
X010311Y013004D02*
X010723Y013004D01*
X010754Y012685D02*
X010875Y012685D01*
X011240Y012367D02*
X016529Y012367D01*
X016118Y012685D02*
X011646Y012685D01*
X011387Y012685D02*
X011387Y012685D01*
X011258Y013004D02*
X011258Y013004D01*
X011758Y013004D02*
X015760Y013004D01*
X017662Y013962D02*
X018062Y014512D01*
X022062Y014512D01*
X022062Y013562D01*
X013881Y009181D02*
X008840Y009181D01*
X006462Y009818D02*
X005886Y009818D01*
X005889Y010137D02*
X006466Y010137D01*
X006612Y010455D02*
X005891Y010455D01*
X005893Y010774D02*
X007083Y010774D01*
X004641Y009181D02*
X004641Y009143D01*
X004674Y009063D01*
X004697Y008979D01*
X004720Y008949D01*
X004734Y008915D01*
X004795Y008853D01*
X020204Y002810D02*
X021879Y002810D01*
D17*
X021362Y001862D03*
X015962Y003062D03*
X014562Y006162D03*
X007762Y002962D03*
X004242Y001262D03*
X005962Y008282D03*
X012762Y012962D03*
X016762Y011762D03*
X017662Y011162D03*
X018162Y010362D03*
X021562Y012062D03*
X006882Y013482D03*
M02*
