G75*
G70*
%OFA0B0*%
%FSLAX24Y24*%
%IPPOS*%
%LPD*%
%AMOC8*
5,1,8,0,0,1.08239X$1,22.5*
%
%ADD10C,0.0000*%
%ADD11C,0.0010*%
D10*
X000262Y000262D02*
X000262Y015262D01*
X025262Y015262D01*
X025262Y000262D01*
X000262Y000262D01*
D11*
X003072Y003262D02*
X003074Y003301D01*
X003080Y003339D01*
X003089Y003377D01*
X003103Y003413D01*
X003119Y003449D01*
X003140Y003482D01*
X003163Y003513D01*
X003190Y003541D01*
X003219Y003567D01*
X003250Y003590D01*
X003284Y003609D01*
X003320Y003625D01*
X003356Y003637D01*
X003394Y003646D01*
X003433Y003651D01*
X003472Y003652D01*
X003510Y003649D01*
X003549Y003642D01*
X003586Y003632D01*
X003622Y003617D01*
X003657Y003600D01*
X003690Y003579D01*
X003720Y003554D01*
X003748Y003527D01*
X003773Y003497D01*
X003795Y003465D01*
X003813Y003431D01*
X003828Y003395D01*
X003840Y003358D01*
X003848Y003320D01*
X003852Y003281D01*
X003852Y003243D01*
X003848Y003204D01*
X003840Y003166D01*
X003828Y003129D01*
X003813Y003093D01*
X003795Y003059D01*
X003773Y003027D01*
X003748Y002997D01*
X003720Y002970D01*
X003690Y002945D01*
X003657Y002924D01*
X003622Y002907D01*
X003586Y002892D01*
X003549Y002882D01*
X003510Y002875D01*
X003472Y002872D01*
X003433Y002873D01*
X003394Y002878D01*
X003356Y002887D01*
X003320Y002899D01*
X003284Y002915D01*
X003250Y002934D01*
X003219Y002957D01*
X003190Y002983D01*
X003163Y003011D01*
X003140Y003042D01*
X003119Y003075D01*
X003103Y003111D01*
X003089Y003147D01*
X003080Y003185D01*
X003074Y003223D01*
X003072Y003262D01*
X003062Y002862D02*
X003862Y003662D01*
X003072Y004262D02*
X003074Y004301D01*
X003080Y004339D01*
X003089Y004377D01*
X003103Y004413D01*
X003119Y004449D01*
X003140Y004482D01*
X003163Y004513D01*
X003190Y004541D01*
X003219Y004567D01*
X003250Y004590D01*
X003284Y004609D01*
X003320Y004625D01*
X003356Y004637D01*
X003394Y004646D01*
X003433Y004651D01*
X003472Y004652D01*
X003510Y004649D01*
X003549Y004642D01*
X003586Y004632D01*
X003622Y004617D01*
X003657Y004600D01*
X003690Y004579D01*
X003720Y004554D01*
X003748Y004527D01*
X003773Y004497D01*
X003795Y004465D01*
X003813Y004431D01*
X003828Y004395D01*
X003840Y004358D01*
X003848Y004320D01*
X003852Y004281D01*
X003852Y004243D01*
X003848Y004204D01*
X003840Y004166D01*
X003828Y004129D01*
X003813Y004093D01*
X003795Y004059D01*
X003773Y004027D01*
X003748Y003997D01*
X003720Y003970D01*
X003690Y003945D01*
X003657Y003924D01*
X003622Y003907D01*
X003586Y003892D01*
X003549Y003882D01*
X003510Y003875D01*
X003472Y003872D01*
X003433Y003873D01*
X003394Y003878D01*
X003356Y003887D01*
X003320Y003899D01*
X003284Y003915D01*
X003250Y003934D01*
X003219Y003957D01*
X003190Y003983D01*
X003163Y004011D01*
X003140Y004042D01*
X003119Y004075D01*
X003103Y004111D01*
X003089Y004147D01*
X003080Y004185D01*
X003074Y004223D01*
X003072Y004262D01*
X003062Y003862D02*
X003862Y004662D01*
X007372Y002962D02*
X007374Y003001D01*
X007380Y003039D01*
X007389Y003077D01*
X007403Y003113D01*
X007419Y003149D01*
X007440Y003182D01*
X007463Y003213D01*
X007490Y003241D01*
X007519Y003267D01*
X007550Y003290D01*
X007584Y003309D01*
X007620Y003325D01*
X007656Y003337D01*
X007694Y003346D01*
X007733Y003351D01*
X007772Y003352D01*
X007810Y003349D01*
X007849Y003342D01*
X007886Y003332D01*
X007922Y003317D01*
X007957Y003300D01*
X007990Y003279D01*
X008020Y003254D01*
X008048Y003227D01*
X008073Y003197D01*
X008095Y003165D01*
X008113Y003131D01*
X008128Y003095D01*
X008140Y003058D01*
X008148Y003020D01*
X008152Y002981D01*
X008152Y002943D01*
X008148Y002904D01*
X008140Y002866D01*
X008128Y002829D01*
X008113Y002793D01*
X008095Y002759D01*
X008073Y002727D01*
X008048Y002697D01*
X008020Y002670D01*
X007990Y002645D01*
X007957Y002624D01*
X007922Y002607D01*
X007886Y002592D01*
X007849Y002582D01*
X007810Y002575D01*
X007772Y002572D01*
X007733Y002573D01*
X007694Y002578D01*
X007656Y002587D01*
X007620Y002599D01*
X007584Y002615D01*
X007550Y002634D01*
X007519Y002657D01*
X007490Y002683D01*
X007463Y002711D01*
X007440Y002742D01*
X007419Y002775D01*
X007403Y002811D01*
X007389Y002847D01*
X007380Y002885D01*
X007374Y002923D01*
X007372Y002962D01*
X007362Y002562D02*
X008162Y003362D01*
X012272Y002762D02*
X012274Y002801D01*
X012280Y002839D01*
X012289Y002877D01*
X012303Y002913D01*
X012319Y002949D01*
X012340Y002982D01*
X012363Y003013D01*
X012390Y003041D01*
X012419Y003067D01*
X012450Y003090D01*
X012484Y003109D01*
X012520Y003125D01*
X012556Y003137D01*
X012594Y003146D01*
X012633Y003151D01*
X012672Y003152D01*
X012710Y003149D01*
X012749Y003142D01*
X012786Y003132D01*
X012822Y003117D01*
X012857Y003100D01*
X012890Y003079D01*
X012920Y003054D01*
X012948Y003027D01*
X012973Y002997D01*
X012995Y002965D01*
X013013Y002931D01*
X013028Y002895D01*
X013040Y002858D01*
X013048Y002820D01*
X013052Y002781D01*
X013052Y002743D01*
X013048Y002704D01*
X013040Y002666D01*
X013028Y002629D01*
X013013Y002593D01*
X012995Y002559D01*
X012973Y002527D01*
X012948Y002497D01*
X012920Y002470D01*
X012890Y002445D01*
X012857Y002424D01*
X012822Y002407D01*
X012786Y002392D01*
X012749Y002382D01*
X012710Y002375D01*
X012672Y002372D01*
X012633Y002373D01*
X012594Y002378D01*
X012556Y002387D01*
X012520Y002399D01*
X012484Y002415D01*
X012450Y002434D01*
X012419Y002457D01*
X012390Y002483D01*
X012363Y002511D01*
X012340Y002542D01*
X012319Y002575D01*
X012303Y002611D01*
X012289Y002647D01*
X012280Y002685D01*
X012274Y002723D01*
X012272Y002762D01*
X012262Y002362D02*
X013062Y003162D01*
X012272Y001762D02*
X012274Y001801D01*
X012280Y001839D01*
X012289Y001877D01*
X012303Y001913D01*
X012319Y001949D01*
X012340Y001982D01*
X012363Y002013D01*
X012390Y002041D01*
X012419Y002067D01*
X012450Y002090D01*
X012484Y002109D01*
X012520Y002125D01*
X012556Y002137D01*
X012594Y002146D01*
X012633Y002151D01*
X012672Y002152D01*
X012710Y002149D01*
X012749Y002142D01*
X012786Y002132D01*
X012822Y002117D01*
X012857Y002100D01*
X012890Y002079D01*
X012920Y002054D01*
X012948Y002027D01*
X012973Y001997D01*
X012995Y001965D01*
X013013Y001931D01*
X013028Y001895D01*
X013040Y001858D01*
X013048Y001820D01*
X013052Y001781D01*
X013052Y001743D01*
X013048Y001704D01*
X013040Y001666D01*
X013028Y001629D01*
X013013Y001593D01*
X012995Y001559D01*
X012973Y001527D01*
X012948Y001497D01*
X012920Y001470D01*
X012890Y001445D01*
X012857Y001424D01*
X012822Y001407D01*
X012786Y001392D01*
X012749Y001382D01*
X012710Y001375D01*
X012672Y001372D01*
X012633Y001373D01*
X012594Y001378D01*
X012556Y001387D01*
X012520Y001399D01*
X012484Y001415D01*
X012450Y001434D01*
X012419Y001457D01*
X012390Y001483D01*
X012363Y001511D01*
X012340Y001542D01*
X012319Y001575D01*
X012303Y001611D01*
X012289Y001647D01*
X012280Y001685D01*
X012274Y001723D01*
X012272Y001762D01*
X012262Y001362D02*
X013062Y002162D01*
X015572Y003062D02*
X015574Y003101D01*
X015580Y003139D01*
X015589Y003177D01*
X015603Y003213D01*
X015619Y003249D01*
X015640Y003282D01*
X015663Y003313D01*
X015690Y003341D01*
X015719Y003367D01*
X015750Y003390D01*
X015784Y003409D01*
X015820Y003425D01*
X015856Y003437D01*
X015894Y003446D01*
X015933Y003451D01*
X015972Y003452D01*
X016010Y003449D01*
X016049Y003442D01*
X016086Y003432D01*
X016122Y003417D01*
X016157Y003400D01*
X016190Y003379D01*
X016220Y003354D01*
X016248Y003327D01*
X016273Y003297D01*
X016295Y003265D01*
X016313Y003231D01*
X016328Y003195D01*
X016340Y003158D01*
X016348Y003120D01*
X016352Y003081D01*
X016352Y003043D01*
X016348Y003004D01*
X016340Y002966D01*
X016328Y002929D01*
X016313Y002893D01*
X016295Y002859D01*
X016273Y002827D01*
X016248Y002797D01*
X016220Y002770D01*
X016190Y002745D01*
X016157Y002724D01*
X016122Y002707D01*
X016086Y002692D01*
X016049Y002682D01*
X016010Y002675D01*
X015972Y002672D01*
X015933Y002673D01*
X015894Y002678D01*
X015856Y002687D01*
X015820Y002699D01*
X015784Y002715D01*
X015750Y002734D01*
X015719Y002757D01*
X015690Y002783D01*
X015663Y002811D01*
X015640Y002842D01*
X015619Y002875D01*
X015603Y002911D01*
X015589Y002947D01*
X015580Y002985D01*
X015574Y003023D01*
X015572Y003062D01*
X015562Y002662D02*
X016362Y003462D01*
X014172Y006162D02*
X014174Y006201D01*
X014180Y006239D01*
X014189Y006277D01*
X014203Y006313D01*
X014219Y006349D01*
X014240Y006382D01*
X014263Y006413D01*
X014290Y006441D01*
X014319Y006467D01*
X014350Y006490D01*
X014384Y006509D01*
X014420Y006525D01*
X014456Y006537D01*
X014494Y006546D01*
X014533Y006551D01*
X014572Y006552D01*
X014610Y006549D01*
X014649Y006542D01*
X014686Y006532D01*
X014722Y006517D01*
X014757Y006500D01*
X014790Y006479D01*
X014820Y006454D01*
X014848Y006427D01*
X014873Y006397D01*
X014895Y006365D01*
X014913Y006331D01*
X014928Y006295D01*
X014940Y006258D01*
X014948Y006220D01*
X014952Y006181D01*
X014952Y006143D01*
X014948Y006104D01*
X014940Y006066D01*
X014928Y006029D01*
X014913Y005993D01*
X014895Y005959D01*
X014873Y005927D01*
X014848Y005897D01*
X014820Y005870D01*
X014790Y005845D01*
X014757Y005824D01*
X014722Y005807D01*
X014686Y005792D01*
X014649Y005782D01*
X014610Y005775D01*
X014572Y005772D01*
X014533Y005773D01*
X014494Y005778D01*
X014456Y005787D01*
X014420Y005799D01*
X014384Y005815D01*
X014350Y005834D01*
X014319Y005857D01*
X014290Y005883D01*
X014263Y005911D01*
X014240Y005942D01*
X014219Y005975D01*
X014203Y006011D01*
X014189Y006047D01*
X014180Y006085D01*
X014174Y006123D01*
X014172Y006162D01*
X014162Y005762D02*
X014962Y006562D01*
X016946Y007762D02*
X016948Y007801D01*
X016954Y007839D01*
X016963Y007877D01*
X016977Y007913D01*
X016993Y007949D01*
X017014Y007982D01*
X017037Y008013D01*
X017064Y008041D01*
X017093Y008067D01*
X017124Y008090D01*
X017158Y008109D01*
X017194Y008125D01*
X017230Y008137D01*
X017268Y008146D01*
X017307Y008151D01*
X017346Y008152D01*
X017384Y008149D01*
X017423Y008142D01*
X017460Y008132D01*
X017496Y008117D01*
X017531Y008100D01*
X017564Y008079D01*
X017594Y008054D01*
X017622Y008027D01*
X017647Y007997D01*
X017669Y007965D01*
X017687Y007931D01*
X017702Y007895D01*
X017714Y007858D01*
X017722Y007820D01*
X017726Y007781D01*
X017726Y007743D01*
X017722Y007704D01*
X017714Y007666D01*
X017702Y007629D01*
X017687Y007593D01*
X017669Y007559D01*
X017647Y007527D01*
X017622Y007497D01*
X017594Y007470D01*
X017564Y007445D01*
X017531Y007424D01*
X017496Y007407D01*
X017460Y007392D01*
X017423Y007382D01*
X017384Y007375D01*
X017346Y007372D01*
X017307Y007373D01*
X017268Y007378D01*
X017230Y007387D01*
X017194Y007399D01*
X017158Y007415D01*
X017124Y007434D01*
X017093Y007457D01*
X017064Y007483D01*
X017037Y007511D01*
X017014Y007542D01*
X016993Y007575D01*
X016977Y007611D01*
X016963Y007647D01*
X016954Y007685D01*
X016948Y007723D01*
X016946Y007762D01*
X016936Y007362D02*
X017736Y008162D01*
X020672Y010062D02*
X020674Y010101D01*
X020680Y010139D01*
X020689Y010177D01*
X020703Y010213D01*
X020719Y010249D01*
X020740Y010282D01*
X020763Y010313D01*
X020790Y010341D01*
X020819Y010367D01*
X020850Y010390D01*
X020884Y010409D01*
X020920Y010425D01*
X020956Y010437D01*
X020994Y010446D01*
X021033Y010451D01*
X021072Y010452D01*
X021110Y010449D01*
X021149Y010442D01*
X021186Y010432D01*
X021222Y010417D01*
X021257Y010400D01*
X021290Y010379D01*
X021320Y010354D01*
X021348Y010327D01*
X021373Y010297D01*
X021395Y010265D01*
X021413Y010231D01*
X021428Y010195D01*
X021440Y010158D01*
X021448Y010120D01*
X021452Y010081D01*
X021452Y010043D01*
X021448Y010004D01*
X021440Y009966D01*
X021428Y009929D01*
X021413Y009893D01*
X021395Y009859D01*
X021373Y009827D01*
X021348Y009797D01*
X021320Y009770D01*
X021290Y009745D01*
X021257Y009724D01*
X021222Y009707D01*
X021186Y009692D01*
X021149Y009682D01*
X021110Y009675D01*
X021072Y009672D01*
X021033Y009673D01*
X020994Y009678D01*
X020956Y009687D01*
X020920Y009699D01*
X020884Y009715D01*
X020850Y009734D01*
X020819Y009757D01*
X020790Y009783D01*
X020763Y009811D01*
X020740Y009842D01*
X020719Y009875D01*
X020703Y009911D01*
X020689Y009947D01*
X020680Y009985D01*
X020674Y010023D01*
X020672Y010062D01*
X020662Y009662D02*
X021462Y010462D01*
X020672Y011062D02*
X020674Y011101D01*
X020680Y011139D01*
X020689Y011177D01*
X020703Y011213D01*
X020719Y011249D01*
X020740Y011282D01*
X020763Y011313D01*
X020790Y011341D01*
X020819Y011367D01*
X020850Y011390D01*
X020884Y011409D01*
X020920Y011425D01*
X020956Y011437D01*
X020994Y011446D01*
X021033Y011451D01*
X021072Y011452D01*
X021110Y011449D01*
X021149Y011442D01*
X021186Y011432D01*
X021222Y011417D01*
X021257Y011400D01*
X021290Y011379D01*
X021320Y011354D01*
X021348Y011327D01*
X021373Y011297D01*
X021395Y011265D01*
X021413Y011231D01*
X021428Y011195D01*
X021440Y011158D01*
X021448Y011120D01*
X021452Y011081D01*
X021452Y011043D01*
X021448Y011004D01*
X021440Y010966D01*
X021428Y010929D01*
X021413Y010893D01*
X021395Y010859D01*
X021373Y010827D01*
X021348Y010797D01*
X021320Y010770D01*
X021290Y010745D01*
X021257Y010724D01*
X021222Y010707D01*
X021186Y010692D01*
X021149Y010682D01*
X021110Y010675D01*
X021072Y010672D01*
X021033Y010673D01*
X020994Y010678D01*
X020956Y010687D01*
X020920Y010699D01*
X020884Y010715D01*
X020850Y010734D01*
X020819Y010757D01*
X020790Y010783D01*
X020763Y010811D01*
X020740Y010842D01*
X020719Y010875D01*
X020703Y010911D01*
X020689Y010947D01*
X020680Y010985D01*
X020674Y011023D01*
X020672Y011062D01*
X020662Y010662D02*
X021462Y011462D01*
X021672Y011062D02*
X021674Y011101D01*
X021680Y011139D01*
X021689Y011177D01*
X021703Y011213D01*
X021719Y011249D01*
X021740Y011282D01*
X021763Y011313D01*
X021790Y011341D01*
X021819Y011367D01*
X021850Y011390D01*
X021884Y011409D01*
X021920Y011425D01*
X021956Y011437D01*
X021994Y011446D01*
X022033Y011451D01*
X022072Y011452D01*
X022110Y011449D01*
X022149Y011442D01*
X022186Y011432D01*
X022222Y011417D01*
X022257Y011400D01*
X022290Y011379D01*
X022320Y011354D01*
X022348Y011327D01*
X022373Y011297D01*
X022395Y011265D01*
X022413Y011231D01*
X022428Y011195D01*
X022440Y011158D01*
X022448Y011120D01*
X022452Y011081D01*
X022452Y011043D01*
X022448Y011004D01*
X022440Y010966D01*
X022428Y010929D01*
X022413Y010893D01*
X022395Y010859D01*
X022373Y010827D01*
X022348Y010797D01*
X022320Y010770D01*
X022290Y010745D01*
X022257Y010724D01*
X022222Y010707D01*
X022186Y010692D01*
X022149Y010682D01*
X022110Y010675D01*
X022072Y010672D01*
X022033Y010673D01*
X021994Y010678D01*
X021956Y010687D01*
X021920Y010699D01*
X021884Y010715D01*
X021850Y010734D01*
X021819Y010757D01*
X021790Y010783D01*
X021763Y010811D01*
X021740Y010842D01*
X021719Y010875D01*
X021703Y010911D01*
X021689Y010947D01*
X021680Y010985D01*
X021674Y011023D01*
X021672Y011062D01*
X021662Y010662D02*
X022462Y011462D01*
X022672Y011062D02*
X022674Y011101D01*
X022680Y011139D01*
X022689Y011177D01*
X022703Y011213D01*
X022719Y011249D01*
X022740Y011282D01*
X022763Y011313D01*
X022790Y011341D01*
X022819Y011367D01*
X022850Y011390D01*
X022884Y011409D01*
X022920Y011425D01*
X022956Y011437D01*
X022994Y011446D01*
X023033Y011451D01*
X023072Y011452D01*
X023110Y011449D01*
X023149Y011442D01*
X023186Y011432D01*
X023222Y011417D01*
X023257Y011400D01*
X023290Y011379D01*
X023320Y011354D01*
X023348Y011327D01*
X023373Y011297D01*
X023395Y011265D01*
X023413Y011231D01*
X023428Y011195D01*
X023440Y011158D01*
X023448Y011120D01*
X023452Y011081D01*
X023452Y011043D01*
X023448Y011004D01*
X023440Y010966D01*
X023428Y010929D01*
X023413Y010893D01*
X023395Y010859D01*
X023373Y010827D01*
X023348Y010797D01*
X023320Y010770D01*
X023290Y010745D01*
X023257Y010724D01*
X023222Y010707D01*
X023186Y010692D01*
X023149Y010682D01*
X023110Y010675D01*
X023072Y010672D01*
X023033Y010673D01*
X022994Y010678D01*
X022956Y010687D01*
X022920Y010699D01*
X022884Y010715D01*
X022850Y010734D01*
X022819Y010757D01*
X022790Y010783D01*
X022763Y010811D01*
X022740Y010842D01*
X022719Y010875D01*
X022703Y010911D01*
X022689Y010947D01*
X022680Y010985D01*
X022674Y011023D01*
X022672Y011062D01*
X022662Y010662D02*
X023462Y011462D01*
X023672Y011062D02*
X023674Y011101D01*
X023680Y011139D01*
X023689Y011177D01*
X023703Y011213D01*
X023719Y011249D01*
X023740Y011282D01*
X023763Y011313D01*
X023790Y011341D01*
X023819Y011367D01*
X023850Y011390D01*
X023884Y011409D01*
X023920Y011425D01*
X023956Y011437D01*
X023994Y011446D01*
X024033Y011451D01*
X024072Y011452D01*
X024110Y011449D01*
X024149Y011442D01*
X024186Y011432D01*
X024222Y011417D01*
X024257Y011400D01*
X024290Y011379D01*
X024320Y011354D01*
X024348Y011327D01*
X024373Y011297D01*
X024395Y011265D01*
X024413Y011231D01*
X024428Y011195D01*
X024440Y011158D01*
X024448Y011120D01*
X024452Y011081D01*
X024452Y011043D01*
X024448Y011004D01*
X024440Y010966D01*
X024428Y010929D01*
X024413Y010893D01*
X024395Y010859D01*
X024373Y010827D01*
X024348Y010797D01*
X024320Y010770D01*
X024290Y010745D01*
X024257Y010724D01*
X024222Y010707D01*
X024186Y010692D01*
X024149Y010682D01*
X024110Y010675D01*
X024072Y010672D01*
X024033Y010673D01*
X023994Y010678D01*
X023956Y010687D01*
X023920Y010699D01*
X023884Y010715D01*
X023850Y010734D01*
X023819Y010757D01*
X023790Y010783D01*
X023763Y010811D01*
X023740Y010842D01*
X023719Y010875D01*
X023703Y010911D01*
X023689Y010947D01*
X023680Y010985D01*
X023674Y011023D01*
X023672Y011062D01*
X023662Y010662D02*
X024462Y011462D01*
X021172Y012562D02*
X021174Y012601D01*
X021180Y012639D01*
X021189Y012677D01*
X021203Y012713D01*
X021219Y012749D01*
X021240Y012782D01*
X021263Y012813D01*
X021290Y012841D01*
X021319Y012867D01*
X021350Y012890D01*
X021384Y012909D01*
X021420Y012925D01*
X021456Y012937D01*
X021494Y012946D01*
X021533Y012951D01*
X021572Y012952D01*
X021610Y012949D01*
X021649Y012942D01*
X021686Y012932D01*
X021722Y012917D01*
X021757Y012900D01*
X021790Y012879D01*
X021820Y012854D01*
X021848Y012827D01*
X021873Y012797D01*
X021895Y012765D01*
X021913Y012731D01*
X021928Y012695D01*
X021940Y012658D01*
X021948Y012620D01*
X021952Y012581D01*
X021952Y012543D01*
X021948Y012504D01*
X021940Y012466D01*
X021928Y012429D01*
X021913Y012393D01*
X021895Y012359D01*
X021873Y012327D01*
X021848Y012297D01*
X021820Y012270D01*
X021790Y012245D01*
X021757Y012224D01*
X021722Y012207D01*
X021686Y012192D01*
X021649Y012182D01*
X021610Y012175D01*
X021572Y012172D01*
X021533Y012173D01*
X021494Y012178D01*
X021456Y012187D01*
X021420Y012199D01*
X021384Y012215D01*
X021350Y012234D01*
X021319Y012257D01*
X021290Y012283D01*
X021263Y012311D01*
X021240Y012342D01*
X021219Y012375D01*
X021203Y012411D01*
X021189Y012447D01*
X021180Y012485D01*
X021174Y012523D01*
X021172Y012562D01*
X021162Y012162D02*
X021962Y012962D01*
X021672Y014062D02*
X021674Y014101D01*
X021680Y014139D01*
X021689Y014177D01*
X021703Y014213D01*
X021719Y014249D01*
X021740Y014282D01*
X021763Y014313D01*
X021790Y014341D01*
X021819Y014367D01*
X021850Y014390D01*
X021884Y014409D01*
X021920Y014425D01*
X021956Y014437D01*
X021994Y014446D01*
X022033Y014451D01*
X022072Y014452D01*
X022110Y014449D01*
X022149Y014442D01*
X022186Y014432D01*
X022222Y014417D01*
X022257Y014400D01*
X022290Y014379D01*
X022320Y014354D01*
X022348Y014327D01*
X022373Y014297D01*
X022395Y014265D01*
X022413Y014231D01*
X022428Y014195D01*
X022440Y014158D01*
X022448Y014120D01*
X022452Y014081D01*
X022452Y014043D01*
X022448Y014004D01*
X022440Y013966D01*
X022428Y013929D01*
X022413Y013893D01*
X022395Y013859D01*
X022373Y013827D01*
X022348Y013797D01*
X022320Y013770D01*
X022290Y013745D01*
X022257Y013724D01*
X022222Y013707D01*
X022186Y013692D01*
X022149Y013682D01*
X022110Y013675D01*
X022072Y013672D01*
X022033Y013673D01*
X021994Y013678D01*
X021956Y013687D01*
X021920Y013699D01*
X021884Y013715D01*
X021850Y013734D01*
X021819Y013757D01*
X021790Y013783D01*
X021763Y013811D01*
X021740Y013842D01*
X021719Y013875D01*
X021703Y013911D01*
X021689Y013947D01*
X021680Y013985D01*
X021674Y014023D01*
X021672Y014062D01*
X021662Y013662D02*
X022462Y014462D01*
X022672Y014062D02*
X022674Y014101D01*
X022680Y014139D01*
X022689Y014177D01*
X022703Y014213D01*
X022719Y014249D01*
X022740Y014282D01*
X022763Y014313D01*
X022790Y014341D01*
X022819Y014367D01*
X022850Y014390D01*
X022884Y014409D01*
X022920Y014425D01*
X022956Y014437D01*
X022994Y014446D01*
X023033Y014451D01*
X023072Y014452D01*
X023110Y014449D01*
X023149Y014442D01*
X023186Y014432D01*
X023222Y014417D01*
X023257Y014400D01*
X023290Y014379D01*
X023320Y014354D01*
X023348Y014327D01*
X023373Y014297D01*
X023395Y014265D01*
X023413Y014231D01*
X023428Y014195D01*
X023440Y014158D01*
X023448Y014120D01*
X023452Y014081D01*
X023452Y014043D01*
X023448Y014004D01*
X023440Y013966D01*
X023428Y013929D01*
X023413Y013893D01*
X023395Y013859D01*
X023373Y013827D01*
X023348Y013797D01*
X023320Y013770D01*
X023290Y013745D01*
X023257Y013724D01*
X023222Y013707D01*
X023186Y013692D01*
X023149Y013682D01*
X023110Y013675D01*
X023072Y013672D01*
X023033Y013673D01*
X022994Y013678D01*
X022956Y013687D01*
X022920Y013699D01*
X022884Y013715D01*
X022850Y013734D01*
X022819Y013757D01*
X022790Y013783D01*
X022763Y013811D01*
X022740Y013842D01*
X022719Y013875D01*
X022703Y013911D01*
X022689Y013947D01*
X022680Y013985D01*
X022674Y014023D01*
X022672Y014062D01*
X022662Y013662D02*
X023462Y014462D01*
X023672Y014062D02*
X023674Y014101D01*
X023680Y014139D01*
X023689Y014177D01*
X023703Y014213D01*
X023719Y014249D01*
X023740Y014282D01*
X023763Y014313D01*
X023790Y014341D01*
X023819Y014367D01*
X023850Y014390D01*
X023884Y014409D01*
X023920Y014425D01*
X023956Y014437D01*
X023994Y014446D01*
X024033Y014451D01*
X024072Y014452D01*
X024110Y014449D01*
X024149Y014442D01*
X024186Y014432D01*
X024222Y014417D01*
X024257Y014400D01*
X024290Y014379D01*
X024320Y014354D01*
X024348Y014327D01*
X024373Y014297D01*
X024395Y014265D01*
X024413Y014231D01*
X024428Y014195D01*
X024440Y014158D01*
X024448Y014120D01*
X024452Y014081D01*
X024452Y014043D01*
X024448Y014004D01*
X024440Y013966D01*
X024428Y013929D01*
X024413Y013893D01*
X024395Y013859D01*
X024373Y013827D01*
X024348Y013797D01*
X024320Y013770D01*
X024290Y013745D01*
X024257Y013724D01*
X024222Y013707D01*
X024186Y013692D01*
X024149Y013682D01*
X024110Y013675D01*
X024072Y013672D01*
X024033Y013673D01*
X023994Y013678D01*
X023956Y013687D01*
X023920Y013699D01*
X023884Y013715D01*
X023850Y013734D01*
X023819Y013757D01*
X023790Y013783D01*
X023763Y013811D01*
X023740Y013842D01*
X023719Y013875D01*
X023703Y013911D01*
X023689Y013947D01*
X023680Y013985D01*
X023674Y014023D01*
X023672Y014062D01*
X023662Y013662D02*
X024462Y014462D01*
X020672Y014062D02*
X020674Y014101D01*
X020680Y014139D01*
X020689Y014177D01*
X020703Y014213D01*
X020719Y014249D01*
X020740Y014282D01*
X020763Y014313D01*
X020790Y014341D01*
X020819Y014367D01*
X020850Y014390D01*
X020884Y014409D01*
X020920Y014425D01*
X020956Y014437D01*
X020994Y014446D01*
X021033Y014451D01*
X021072Y014452D01*
X021110Y014449D01*
X021149Y014442D01*
X021186Y014432D01*
X021222Y014417D01*
X021257Y014400D01*
X021290Y014379D01*
X021320Y014354D01*
X021348Y014327D01*
X021373Y014297D01*
X021395Y014265D01*
X021413Y014231D01*
X021428Y014195D01*
X021440Y014158D01*
X021448Y014120D01*
X021452Y014081D01*
X021452Y014043D01*
X021448Y014004D01*
X021440Y013966D01*
X021428Y013929D01*
X021413Y013893D01*
X021395Y013859D01*
X021373Y013827D01*
X021348Y013797D01*
X021320Y013770D01*
X021290Y013745D01*
X021257Y013724D01*
X021222Y013707D01*
X021186Y013692D01*
X021149Y013682D01*
X021110Y013675D01*
X021072Y013672D01*
X021033Y013673D01*
X020994Y013678D01*
X020956Y013687D01*
X020920Y013699D01*
X020884Y013715D01*
X020850Y013734D01*
X020819Y013757D01*
X020790Y013783D01*
X020763Y013811D01*
X020740Y013842D01*
X020719Y013875D01*
X020703Y013911D01*
X020689Y013947D01*
X020680Y013985D01*
X020674Y014023D01*
X020672Y014062D01*
X020662Y013662D02*
X021462Y014462D01*
X019762Y013562D02*
X019762Y013162D01*
X019762Y013562D02*
X020162Y013562D01*
X020162Y012762D01*
X019362Y012762D01*
X019362Y013562D01*
X019762Y013562D01*
X017672Y013962D02*
X017674Y014001D01*
X017680Y014039D01*
X017689Y014077D01*
X017703Y014113D01*
X017719Y014149D01*
X017740Y014182D01*
X017763Y014213D01*
X017790Y014241D01*
X017819Y014267D01*
X017850Y014290D01*
X017884Y014309D01*
X017920Y014325D01*
X017956Y014337D01*
X017994Y014346D01*
X018033Y014351D01*
X018072Y014352D01*
X018110Y014349D01*
X018149Y014342D01*
X018186Y014332D01*
X018222Y014317D01*
X018257Y014300D01*
X018290Y014279D01*
X018320Y014254D01*
X018348Y014227D01*
X018373Y014197D01*
X018395Y014165D01*
X018413Y014131D01*
X018428Y014095D01*
X018440Y014058D01*
X018448Y014020D01*
X018452Y013981D01*
X018452Y013943D01*
X018448Y013904D01*
X018440Y013866D01*
X018428Y013829D01*
X018413Y013793D01*
X018395Y013759D01*
X018373Y013727D01*
X018348Y013697D01*
X018320Y013670D01*
X018290Y013645D01*
X018257Y013624D01*
X018222Y013607D01*
X018186Y013592D01*
X018149Y013582D01*
X018110Y013575D01*
X018072Y013572D01*
X018033Y013573D01*
X017994Y013578D01*
X017956Y013587D01*
X017920Y013599D01*
X017884Y013615D01*
X017850Y013634D01*
X017819Y013657D01*
X017790Y013683D01*
X017763Y013711D01*
X017740Y013742D01*
X017719Y013775D01*
X017703Y013811D01*
X017689Y013847D01*
X017680Y013885D01*
X017674Y013923D01*
X017672Y013962D01*
X017662Y013562D02*
X018462Y014362D01*
X017672Y012962D02*
X017674Y013001D01*
X017680Y013039D01*
X017689Y013077D01*
X017703Y013113D01*
X017719Y013149D01*
X017740Y013182D01*
X017763Y013213D01*
X017790Y013241D01*
X017819Y013267D01*
X017850Y013290D01*
X017884Y013309D01*
X017920Y013325D01*
X017956Y013337D01*
X017994Y013346D01*
X018033Y013351D01*
X018072Y013352D01*
X018110Y013349D01*
X018149Y013342D01*
X018186Y013332D01*
X018222Y013317D01*
X018257Y013300D01*
X018290Y013279D01*
X018320Y013254D01*
X018348Y013227D01*
X018373Y013197D01*
X018395Y013165D01*
X018413Y013131D01*
X018428Y013095D01*
X018440Y013058D01*
X018448Y013020D01*
X018452Y012981D01*
X018452Y012943D01*
X018448Y012904D01*
X018440Y012866D01*
X018428Y012829D01*
X018413Y012793D01*
X018395Y012759D01*
X018373Y012727D01*
X018348Y012697D01*
X018320Y012670D01*
X018290Y012645D01*
X018257Y012624D01*
X018222Y012607D01*
X018186Y012592D01*
X018149Y012582D01*
X018110Y012575D01*
X018072Y012572D01*
X018033Y012573D01*
X017994Y012578D01*
X017956Y012587D01*
X017920Y012599D01*
X017884Y012615D01*
X017850Y012634D01*
X017819Y012657D01*
X017790Y012683D01*
X017763Y012711D01*
X017740Y012742D01*
X017719Y012775D01*
X017703Y012811D01*
X017689Y012847D01*
X017680Y012885D01*
X017674Y012923D01*
X017672Y012962D01*
X017662Y012562D02*
X018462Y013362D01*
X019762Y012562D02*
X019762Y012162D01*
X019762Y012562D02*
X020162Y012562D01*
X020162Y011762D01*
X019362Y011762D01*
X019362Y012562D01*
X019762Y012562D01*
X018772Y011562D02*
X018774Y011601D01*
X018780Y011639D01*
X018789Y011677D01*
X018803Y011713D01*
X018819Y011749D01*
X018840Y011782D01*
X018863Y011813D01*
X018890Y011841D01*
X018919Y011867D01*
X018950Y011890D01*
X018984Y011909D01*
X019020Y011925D01*
X019056Y011937D01*
X019094Y011946D01*
X019133Y011951D01*
X019172Y011952D01*
X019210Y011949D01*
X019249Y011942D01*
X019286Y011932D01*
X019322Y011917D01*
X019357Y011900D01*
X019390Y011879D01*
X019420Y011854D01*
X019448Y011827D01*
X019473Y011797D01*
X019495Y011765D01*
X019513Y011731D01*
X019528Y011695D01*
X019540Y011658D01*
X019548Y011620D01*
X019552Y011581D01*
X019552Y011543D01*
X019548Y011504D01*
X019540Y011466D01*
X019528Y011429D01*
X019513Y011393D01*
X019495Y011359D01*
X019473Y011327D01*
X019448Y011297D01*
X019420Y011270D01*
X019390Y011245D01*
X019357Y011224D01*
X019322Y011207D01*
X019286Y011192D01*
X019249Y011182D01*
X019210Y011175D01*
X019172Y011172D01*
X019133Y011173D01*
X019094Y011178D01*
X019056Y011187D01*
X019020Y011199D01*
X018984Y011215D01*
X018950Y011234D01*
X018919Y011257D01*
X018890Y011283D01*
X018863Y011311D01*
X018840Y011342D01*
X018819Y011375D01*
X018803Y011411D01*
X018789Y011447D01*
X018780Y011485D01*
X018774Y011523D01*
X018772Y011562D01*
X018762Y011162D02*
X019562Y011962D01*
X017272Y011162D02*
X017274Y011201D01*
X017280Y011239D01*
X017289Y011277D01*
X017303Y011313D01*
X017319Y011349D01*
X017340Y011382D01*
X017363Y011413D01*
X017390Y011441D01*
X017419Y011467D01*
X017450Y011490D01*
X017484Y011509D01*
X017520Y011525D01*
X017556Y011537D01*
X017594Y011546D01*
X017633Y011551D01*
X017672Y011552D01*
X017710Y011549D01*
X017749Y011542D01*
X017786Y011532D01*
X017822Y011517D01*
X017857Y011500D01*
X017890Y011479D01*
X017920Y011454D01*
X017948Y011427D01*
X017973Y011397D01*
X017995Y011365D01*
X018013Y011331D01*
X018028Y011295D01*
X018040Y011258D01*
X018048Y011220D01*
X018052Y011181D01*
X018052Y011143D01*
X018048Y011104D01*
X018040Y011066D01*
X018028Y011029D01*
X018013Y010993D01*
X017995Y010959D01*
X017973Y010927D01*
X017948Y010897D01*
X017920Y010870D01*
X017890Y010845D01*
X017857Y010824D01*
X017822Y010807D01*
X017786Y010792D01*
X017749Y010782D01*
X017710Y010775D01*
X017672Y010772D01*
X017633Y010773D01*
X017594Y010778D01*
X017556Y010787D01*
X017520Y010799D01*
X017484Y010815D01*
X017450Y010834D01*
X017419Y010857D01*
X017390Y010883D01*
X017363Y010911D01*
X017340Y010942D01*
X017319Y010975D01*
X017303Y011011D01*
X017289Y011047D01*
X017280Y011085D01*
X017274Y011123D01*
X017272Y011162D01*
X017262Y010762D02*
X018062Y011562D01*
X016872Y011962D02*
X016874Y012001D01*
X016880Y012039D01*
X016889Y012077D01*
X016903Y012113D01*
X016919Y012149D01*
X016940Y012182D01*
X016963Y012213D01*
X016990Y012241D01*
X017019Y012267D01*
X017050Y012290D01*
X017084Y012309D01*
X017120Y012325D01*
X017156Y012337D01*
X017194Y012346D01*
X017233Y012351D01*
X017272Y012352D01*
X017310Y012349D01*
X017349Y012342D01*
X017386Y012332D01*
X017422Y012317D01*
X017457Y012300D01*
X017490Y012279D01*
X017520Y012254D01*
X017548Y012227D01*
X017573Y012197D01*
X017595Y012165D01*
X017613Y012131D01*
X017628Y012095D01*
X017640Y012058D01*
X017648Y012020D01*
X017652Y011981D01*
X017652Y011943D01*
X017648Y011904D01*
X017640Y011866D01*
X017628Y011829D01*
X017613Y011793D01*
X017595Y011759D01*
X017573Y011727D01*
X017548Y011697D01*
X017520Y011670D01*
X017490Y011645D01*
X017457Y011624D01*
X017422Y011607D01*
X017386Y011592D01*
X017349Y011582D01*
X017310Y011575D01*
X017272Y011572D01*
X017233Y011573D01*
X017194Y011578D01*
X017156Y011587D01*
X017120Y011599D01*
X017084Y011615D01*
X017050Y011634D01*
X017019Y011657D01*
X016990Y011683D01*
X016963Y011711D01*
X016940Y011742D01*
X016919Y011775D01*
X016903Y011811D01*
X016889Y011847D01*
X016880Y011885D01*
X016874Y011923D01*
X016872Y011962D01*
X016862Y011562D02*
X017662Y012362D01*
X012372Y012962D02*
X012374Y013001D01*
X012380Y013039D01*
X012389Y013077D01*
X012403Y013113D01*
X012419Y013149D01*
X012440Y013182D01*
X012463Y013213D01*
X012490Y013241D01*
X012519Y013267D01*
X012550Y013290D01*
X012584Y013309D01*
X012620Y013325D01*
X012656Y013337D01*
X012694Y013346D01*
X012733Y013351D01*
X012772Y013352D01*
X012810Y013349D01*
X012849Y013342D01*
X012886Y013332D01*
X012922Y013317D01*
X012957Y013300D01*
X012990Y013279D01*
X013020Y013254D01*
X013048Y013227D01*
X013073Y013197D01*
X013095Y013165D01*
X013113Y013131D01*
X013128Y013095D01*
X013140Y013058D01*
X013148Y013020D01*
X013152Y012981D01*
X013152Y012943D01*
X013148Y012904D01*
X013140Y012866D01*
X013128Y012829D01*
X013113Y012793D01*
X013095Y012759D01*
X013073Y012727D01*
X013048Y012697D01*
X013020Y012670D01*
X012990Y012645D01*
X012957Y012624D01*
X012922Y012607D01*
X012886Y012592D01*
X012849Y012582D01*
X012810Y012575D01*
X012772Y012572D01*
X012733Y012573D01*
X012694Y012578D01*
X012656Y012587D01*
X012620Y012599D01*
X012584Y012615D01*
X012550Y012634D01*
X012519Y012657D01*
X012490Y012683D01*
X012463Y012711D01*
X012440Y012742D01*
X012419Y012775D01*
X012403Y012811D01*
X012389Y012847D01*
X012380Y012885D01*
X012374Y012923D01*
X012372Y012962D01*
X012362Y012562D02*
X013162Y013362D01*
X011292Y013557D02*
X011292Y013157D01*
X011292Y013557D02*
X011692Y013157D01*
X011292Y012757D01*
X010892Y013157D01*
X011292Y013557D01*
X009832Y012967D02*
X009832Y012567D01*
X009832Y012967D02*
X010232Y012567D01*
X009832Y012167D01*
X009432Y012567D01*
X009832Y012967D01*
X007572Y012262D02*
X007574Y012301D01*
X007580Y012339D01*
X007589Y012377D01*
X007603Y012413D01*
X007619Y012449D01*
X007640Y012482D01*
X007663Y012513D01*
X007690Y012541D01*
X007719Y012567D01*
X007750Y012590D01*
X007784Y012609D01*
X007820Y012625D01*
X007856Y012637D01*
X007894Y012646D01*
X007933Y012651D01*
X007972Y012652D01*
X008010Y012649D01*
X008049Y012642D01*
X008086Y012632D01*
X008122Y012617D01*
X008157Y012600D01*
X008190Y012579D01*
X008220Y012554D01*
X008248Y012527D01*
X008273Y012497D01*
X008295Y012465D01*
X008313Y012431D01*
X008328Y012395D01*
X008340Y012358D01*
X008348Y012320D01*
X008352Y012281D01*
X008352Y012243D01*
X008348Y012204D01*
X008340Y012166D01*
X008328Y012129D01*
X008313Y012093D01*
X008295Y012059D01*
X008273Y012027D01*
X008248Y011997D01*
X008220Y011970D01*
X008190Y011945D01*
X008157Y011924D01*
X008122Y011907D01*
X008086Y011892D01*
X008049Y011882D01*
X008010Y011875D01*
X007972Y011872D01*
X007933Y011873D01*
X007894Y011878D01*
X007856Y011887D01*
X007820Y011899D01*
X007784Y011915D01*
X007750Y011934D01*
X007719Y011957D01*
X007690Y011983D01*
X007663Y012011D01*
X007640Y012042D01*
X007619Y012075D01*
X007603Y012111D01*
X007589Y012147D01*
X007580Y012185D01*
X007574Y012223D01*
X007572Y012262D01*
X007562Y011862D02*
X008362Y012662D01*
X007272Y009962D02*
X007274Y010001D01*
X007280Y010039D01*
X007289Y010077D01*
X007303Y010113D01*
X007319Y010149D01*
X007340Y010182D01*
X007363Y010213D01*
X007390Y010241D01*
X007419Y010267D01*
X007450Y010290D01*
X007484Y010309D01*
X007520Y010325D01*
X007556Y010337D01*
X007594Y010346D01*
X007633Y010351D01*
X007672Y010352D01*
X007710Y010349D01*
X007749Y010342D01*
X007786Y010332D01*
X007822Y010317D01*
X007857Y010300D01*
X007890Y010279D01*
X007920Y010254D01*
X007948Y010227D01*
X007973Y010197D01*
X007995Y010165D01*
X008013Y010131D01*
X008028Y010095D01*
X008040Y010058D01*
X008048Y010020D01*
X008052Y009981D01*
X008052Y009943D01*
X008048Y009904D01*
X008040Y009866D01*
X008028Y009829D01*
X008013Y009793D01*
X007995Y009759D01*
X007973Y009727D01*
X007948Y009697D01*
X007920Y009670D01*
X007890Y009645D01*
X007857Y009624D01*
X007822Y009607D01*
X007786Y009592D01*
X007749Y009582D01*
X007710Y009575D01*
X007672Y009572D01*
X007633Y009573D01*
X007594Y009578D01*
X007556Y009587D01*
X007520Y009599D01*
X007484Y009615D01*
X007450Y009634D01*
X007419Y009657D01*
X007390Y009683D01*
X007363Y009711D01*
X007340Y009742D01*
X007319Y009775D01*
X007303Y009811D01*
X007289Y009847D01*
X007280Y009885D01*
X007274Y009923D01*
X007272Y009962D01*
X007262Y009562D02*
X008062Y010362D01*
X007272Y008962D02*
X007274Y009001D01*
X007280Y009039D01*
X007289Y009077D01*
X007303Y009113D01*
X007319Y009149D01*
X007340Y009182D01*
X007363Y009213D01*
X007390Y009241D01*
X007419Y009267D01*
X007450Y009290D01*
X007484Y009309D01*
X007520Y009325D01*
X007556Y009337D01*
X007594Y009346D01*
X007633Y009351D01*
X007672Y009352D01*
X007710Y009349D01*
X007749Y009342D01*
X007786Y009332D01*
X007822Y009317D01*
X007857Y009300D01*
X007890Y009279D01*
X007920Y009254D01*
X007948Y009227D01*
X007973Y009197D01*
X007995Y009165D01*
X008013Y009131D01*
X008028Y009095D01*
X008040Y009058D01*
X008048Y009020D01*
X008052Y008981D01*
X008052Y008943D01*
X008048Y008904D01*
X008040Y008866D01*
X008028Y008829D01*
X008013Y008793D01*
X007995Y008759D01*
X007973Y008727D01*
X007948Y008697D01*
X007920Y008670D01*
X007890Y008645D01*
X007857Y008624D01*
X007822Y008607D01*
X007786Y008592D01*
X007749Y008582D01*
X007710Y008575D01*
X007672Y008572D01*
X007633Y008573D01*
X007594Y008578D01*
X007556Y008587D01*
X007520Y008599D01*
X007484Y008615D01*
X007450Y008634D01*
X007419Y008657D01*
X007390Y008683D01*
X007363Y008711D01*
X007340Y008742D01*
X007319Y008775D01*
X007303Y008811D01*
X007289Y008847D01*
X007280Y008885D01*
X007274Y008923D01*
X007272Y008962D01*
X007262Y008562D02*
X008062Y009362D01*
X009072Y007762D02*
X009074Y007801D01*
X009080Y007839D01*
X009089Y007877D01*
X009103Y007913D01*
X009119Y007949D01*
X009140Y007982D01*
X009163Y008013D01*
X009190Y008041D01*
X009219Y008067D01*
X009250Y008090D01*
X009284Y008109D01*
X009320Y008125D01*
X009356Y008137D01*
X009394Y008146D01*
X009433Y008151D01*
X009472Y008152D01*
X009510Y008149D01*
X009549Y008142D01*
X009586Y008132D01*
X009622Y008117D01*
X009657Y008100D01*
X009690Y008079D01*
X009720Y008054D01*
X009748Y008027D01*
X009773Y007997D01*
X009795Y007965D01*
X009813Y007931D01*
X009828Y007895D01*
X009840Y007858D01*
X009848Y007820D01*
X009852Y007781D01*
X009852Y007743D01*
X009848Y007704D01*
X009840Y007666D01*
X009828Y007629D01*
X009813Y007593D01*
X009795Y007559D01*
X009773Y007527D01*
X009748Y007497D01*
X009720Y007470D01*
X009690Y007445D01*
X009657Y007424D01*
X009622Y007407D01*
X009586Y007392D01*
X009549Y007382D01*
X009510Y007375D01*
X009472Y007372D01*
X009433Y007373D01*
X009394Y007378D01*
X009356Y007387D01*
X009320Y007399D01*
X009284Y007415D01*
X009250Y007434D01*
X009219Y007457D01*
X009190Y007483D01*
X009163Y007511D01*
X009140Y007542D01*
X009119Y007575D01*
X009103Y007611D01*
X009089Y007647D01*
X009080Y007685D01*
X009074Y007723D01*
X009072Y007762D01*
X009062Y007362D02*
X009862Y008162D01*
X005272Y009262D02*
X005274Y009301D01*
X005280Y009339D01*
X005289Y009377D01*
X005303Y009413D01*
X005319Y009449D01*
X005340Y009482D01*
X005363Y009513D01*
X005390Y009541D01*
X005419Y009567D01*
X005450Y009590D01*
X005484Y009609D01*
X005520Y009625D01*
X005556Y009637D01*
X005594Y009646D01*
X005633Y009651D01*
X005672Y009652D01*
X005710Y009649D01*
X005749Y009642D01*
X005786Y009632D01*
X005822Y009617D01*
X005857Y009600D01*
X005890Y009579D01*
X005920Y009554D01*
X005948Y009527D01*
X005973Y009497D01*
X005995Y009465D01*
X006013Y009431D01*
X006028Y009395D01*
X006040Y009358D01*
X006048Y009320D01*
X006052Y009281D01*
X006052Y009243D01*
X006048Y009204D01*
X006040Y009166D01*
X006028Y009129D01*
X006013Y009093D01*
X005995Y009059D01*
X005973Y009027D01*
X005948Y008997D01*
X005920Y008970D01*
X005890Y008945D01*
X005857Y008924D01*
X005822Y008907D01*
X005786Y008892D01*
X005749Y008882D01*
X005710Y008875D01*
X005672Y008872D01*
X005633Y008873D01*
X005594Y008878D01*
X005556Y008887D01*
X005520Y008899D01*
X005484Y008915D01*
X005450Y008934D01*
X005419Y008957D01*
X005390Y008983D01*
X005363Y009011D01*
X005340Y009042D01*
X005319Y009075D01*
X005303Y009111D01*
X005289Y009147D01*
X005280Y009185D01*
X005274Y009223D01*
X005272Y009262D01*
X005262Y008862D02*
X006062Y009662D01*
X001372Y013262D02*
X001374Y013301D01*
X001380Y013339D01*
X001389Y013377D01*
X001403Y013413D01*
X001419Y013449D01*
X001440Y013482D01*
X001463Y013513D01*
X001490Y013541D01*
X001519Y013567D01*
X001550Y013590D01*
X001584Y013609D01*
X001620Y013625D01*
X001656Y013637D01*
X001694Y013646D01*
X001733Y013651D01*
X001772Y013652D01*
X001810Y013649D01*
X001849Y013642D01*
X001886Y013632D01*
X001922Y013617D01*
X001957Y013600D01*
X001990Y013579D01*
X002020Y013554D01*
X002048Y013527D01*
X002073Y013497D01*
X002095Y013465D01*
X002113Y013431D01*
X002128Y013395D01*
X002140Y013358D01*
X002148Y013320D01*
X002152Y013281D01*
X002152Y013243D01*
X002148Y013204D01*
X002140Y013166D01*
X002128Y013129D01*
X002113Y013093D01*
X002095Y013059D01*
X002073Y013027D01*
X002048Y012997D01*
X002020Y012970D01*
X001990Y012945D01*
X001957Y012924D01*
X001922Y012907D01*
X001886Y012892D01*
X001849Y012882D01*
X001810Y012875D01*
X001772Y012872D01*
X001733Y012873D01*
X001694Y012878D01*
X001656Y012887D01*
X001620Y012899D01*
X001584Y012915D01*
X001550Y012934D01*
X001519Y012957D01*
X001490Y012983D01*
X001463Y013011D01*
X001440Y013042D01*
X001419Y013075D01*
X001403Y013111D01*
X001389Y013147D01*
X001380Y013185D01*
X001374Y013223D01*
X001372Y013262D01*
X001362Y012862D02*
X002162Y013662D01*
X001372Y014262D02*
X001374Y014301D01*
X001380Y014339D01*
X001389Y014377D01*
X001403Y014413D01*
X001419Y014449D01*
X001440Y014482D01*
X001463Y014513D01*
X001490Y014541D01*
X001519Y014567D01*
X001550Y014590D01*
X001584Y014609D01*
X001620Y014625D01*
X001656Y014637D01*
X001694Y014646D01*
X001733Y014651D01*
X001772Y014652D01*
X001810Y014649D01*
X001849Y014642D01*
X001886Y014632D01*
X001922Y014617D01*
X001957Y014600D01*
X001990Y014579D01*
X002020Y014554D01*
X002048Y014527D01*
X002073Y014497D01*
X002095Y014465D01*
X002113Y014431D01*
X002128Y014395D01*
X002140Y014358D01*
X002148Y014320D01*
X002152Y014281D01*
X002152Y014243D01*
X002148Y014204D01*
X002140Y014166D01*
X002128Y014129D01*
X002113Y014093D01*
X002095Y014059D01*
X002073Y014027D01*
X002048Y013997D01*
X002020Y013970D01*
X001990Y013945D01*
X001957Y013924D01*
X001922Y013907D01*
X001886Y013892D01*
X001849Y013882D01*
X001810Y013875D01*
X001772Y013872D01*
X001733Y013873D01*
X001694Y013878D01*
X001656Y013887D01*
X001620Y013899D01*
X001584Y013915D01*
X001550Y013934D01*
X001519Y013957D01*
X001490Y013983D01*
X001463Y014011D01*
X001440Y014042D01*
X001419Y014075D01*
X001403Y014111D01*
X001389Y014147D01*
X001380Y014185D01*
X001374Y014223D01*
X001372Y014262D01*
X001362Y013862D02*
X002162Y014662D01*
X022562Y008262D02*
X023362Y009062D01*
X022562Y009062D01*
X023362Y008262D01*
X022562Y008262D01*
X023662Y008262D02*
X024462Y009062D01*
X023662Y009062D01*
X024462Y008262D01*
X023662Y008262D01*
X024462Y006062D02*
X023662Y005262D01*
X023662Y006062D02*
X024462Y006062D01*
X023662Y006062D02*
X024462Y005262D01*
X023662Y005262D01*
X023362Y006062D02*
X022562Y005262D01*
X022562Y006062D02*
X023362Y006062D01*
X022562Y006062D02*
X023362Y005262D01*
X022562Y005262D01*
X022572Y002362D02*
X022574Y002401D01*
X022580Y002439D01*
X022589Y002477D01*
X022603Y002513D01*
X022619Y002549D01*
X022640Y002582D01*
X022663Y002613D01*
X022690Y002641D01*
X022719Y002667D01*
X022750Y002690D01*
X022784Y002709D01*
X022820Y002725D01*
X022856Y002737D01*
X022894Y002746D01*
X022933Y002751D01*
X022972Y002752D01*
X023010Y002749D01*
X023049Y002742D01*
X023086Y002732D01*
X023122Y002717D01*
X023157Y002700D01*
X023190Y002679D01*
X023220Y002654D01*
X023248Y002627D01*
X023273Y002597D01*
X023295Y002565D01*
X023313Y002531D01*
X023328Y002495D01*
X023340Y002458D01*
X023348Y002420D01*
X023352Y002381D01*
X023352Y002343D01*
X023348Y002304D01*
X023340Y002266D01*
X023328Y002229D01*
X023313Y002193D01*
X023295Y002159D01*
X023273Y002127D01*
X023248Y002097D01*
X023220Y002070D01*
X023190Y002045D01*
X023157Y002024D01*
X023122Y002007D01*
X023086Y001992D01*
X023049Y001982D01*
X023010Y001975D01*
X022972Y001972D01*
X022933Y001973D01*
X022894Y001978D01*
X022856Y001987D01*
X022820Y001999D01*
X022784Y002015D01*
X022750Y002034D01*
X022719Y002057D01*
X022690Y002083D01*
X022663Y002111D01*
X022640Y002142D01*
X022619Y002175D01*
X022603Y002211D01*
X022589Y002247D01*
X022580Y002285D01*
X022574Y002323D01*
X022572Y002362D01*
X022562Y001962D02*
X023362Y002762D01*
X020972Y001862D02*
X020974Y001901D01*
X020980Y001939D01*
X020989Y001977D01*
X021003Y002013D01*
X021019Y002049D01*
X021040Y002082D01*
X021063Y002113D01*
X021090Y002141D01*
X021119Y002167D01*
X021150Y002190D01*
X021184Y002209D01*
X021220Y002225D01*
X021256Y002237D01*
X021294Y002246D01*
X021333Y002251D01*
X021372Y002252D01*
X021410Y002249D01*
X021449Y002242D01*
X021486Y002232D01*
X021522Y002217D01*
X021557Y002200D01*
X021590Y002179D01*
X021620Y002154D01*
X021648Y002127D01*
X021673Y002097D01*
X021695Y002065D01*
X021713Y002031D01*
X021728Y001995D01*
X021740Y001958D01*
X021748Y001920D01*
X021752Y001881D01*
X021752Y001843D01*
X021748Y001804D01*
X021740Y001766D01*
X021728Y001729D01*
X021713Y001693D01*
X021695Y001659D01*
X021673Y001627D01*
X021648Y001597D01*
X021620Y001570D01*
X021590Y001545D01*
X021557Y001524D01*
X021522Y001507D01*
X021486Y001492D01*
X021449Y001482D01*
X021410Y001475D01*
X021372Y001472D01*
X021333Y001473D01*
X021294Y001478D01*
X021256Y001487D01*
X021220Y001499D01*
X021184Y001515D01*
X021150Y001534D01*
X021119Y001557D01*
X021090Y001583D01*
X021063Y001611D01*
X021040Y001642D01*
X021019Y001675D01*
X021003Y001711D01*
X020989Y001747D01*
X020980Y001785D01*
X020974Y001823D01*
X020972Y001862D01*
X020962Y001462D02*
X021762Y002262D01*
X022572Y001362D02*
X022574Y001401D01*
X022580Y001439D01*
X022589Y001477D01*
X022603Y001513D01*
X022619Y001549D01*
X022640Y001582D01*
X022663Y001613D01*
X022690Y001641D01*
X022719Y001667D01*
X022750Y001690D01*
X022784Y001709D01*
X022820Y001725D01*
X022856Y001737D01*
X022894Y001746D01*
X022933Y001751D01*
X022972Y001752D01*
X023010Y001749D01*
X023049Y001742D01*
X023086Y001732D01*
X023122Y001717D01*
X023157Y001700D01*
X023190Y001679D01*
X023220Y001654D01*
X023248Y001627D01*
X023273Y001597D01*
X023295Y001565D01*
X023313Y001531D01*
X023328Y001495D01*
X023340Y001458D01*
X023348Y001420D01*
X023352Y001381D01*
X023352Y001343D01*
X023348Y001304D01*
X023340Y001266D01*
X023328Y001229D01*
X023313Y001193D01*
X023295Y001159D01*
X023273Y001127D01*
X023248Y001097D01*
X023220Y001070D01*
X023190Y001045D01*
X023157Y001024D01*
X023122Y001007D01*
X023086Y000992D01*
X023049Y000982D01*
X023010Y000975D01*
X022972Y000972D01*
X022933Y000973D01*
X022894Y000978D01*
X022856Y000987D01*
X022820Y000999D01*
X022784Y001015D01*
X022750Y001034D01*
X022719Y001057D01*
X022690Y001083D01*
X022663Y001111D01*
X022640Y001142D01*
X022619Y001175D01*
X022603Y001211D01*
X022589Y001247D01*
X022580Y001285D01*
X022574Y001323D01*
X022572Y001362D01*
X022562Y000962D02*
X023362Y001762D01*
M02*
