G75*
G70*
%OFA0B0*%
%FSLAX24Y24*%
%IPPOS*%
%LPD*%
%AMOC8*
5,1,8,0,0,1.08239X$1,22.5*
%
%ADD10C,0.0080*%
%ADD11OC8,0.0630*%
%ADD12C,0.0740*%
%ADD13C,0.0472*%
%ADD14C,0.0650*%
%ADD15C,0.0765*%
%ADD16C,0.0320*%
%ADD17C,0.0380*%
%ADD18C,0.0240*%
D10*
X007708Y007562D02*
X008322Y007562D01*
X015346Y005102D02*
X015960Y005102D01*
X015653Y005102D02*
X015653Y006023D01*
X015960Y005716D01*
X016267Y006023D02*
X016881Y006023D01*
X016574Y006023D02*
X016574Y005102D01*
X017187Y005102D02*
X017187Y005716D01*
X017494Y006023D01*
X017801Y005716D01*
X017801Y005102D01*
X018108Y005255D02*
X018262Y005102D01*
X018722Y005102D01*
X018722Y006023D01*
X018262Y006023D01*
X018108Y005869D01*
X018108Y005716D01*
X018262Y005562D01*
X018722Y005562D01*
X018262Y005562D02*
X018108Y005409D01*
X018108Y005255D01*
X017801Y005562D02*
X017187Y005562D01*
X018115Y006955D02*
X018115Y007569D01*
X018422Y007262D02*
X017808Y007262D01*
X010622Y013202D02*
X010622Y014123D01*
X010162Y014123D01*
X010008Y013969D01*
X010008Y013662D01*
X010162Y013509D01*
X010622Y013509D01*
X009701Y013355D02*
X009548Y013202D01*
X009241Y013202D01*
X009087Y013355D01*
X008781Y013202D02*
X008167Y013202D01*
X008474Y013202D02*
X008474Y014123D01*
X008781Y013816D01*
X009087Y013969D02*
X009241Y014123D01*
X009548Y014123D01*
X009701Y013969D01*
X009701Y013355D01*
D11*
X021062Y014062D03*
X022062Y014062D03*
X023062Y014062D03*
X024062Y014062D03*
X024062Y011062D03*
X023062Y011062D03*
X022062Y011062D03*
X021062Y011062D03*
D12*
X018062Y012962D03*
X018062Y013962D03*
X022962Y008662D03*
X024062Y008662D03*
X024062Y005662D03*
X022962Y005662D03*
X022962Y002362D03*
X022962Y001362D03*
X012662Y001762D03*
X012662Y002762D03*
X003462Y003262D03*
X003462Y004262D03*
X007662Y008962D03*
X007662Y009962D03*
X001762Y013262D03*
X001762Y014262D03*
D13*
X009832Y012567D03*
X011292Y013157D03*
D14*
X019762Y013162D03*
X019762Y012162D03*
D15*
X017336Y007762D03*
X009462Y007762D03*
D16*
X000822Y000822D02*
X000822Y014702D01*
X001046Y014702D01*
X000932Y014427D01*
X000932Y014097D01*
X001058Y013792D01*
X001088Y013762D01*
X001058Y013732D01*
X000932Y013427D01*
X000932Y013097D01*
X001058Y012792D01*
X001182Y012668D01*
X001182Y004847D01*
X001270Y004634D01*
X001434Y004470D01*
X002632Y003272D01*
X002632Y003097D01*
X002758Y002792D01*
X002992Y002558D01*
X003297Y002432D01*
X003627Y002432D01*
X003932Y002558D01*
X004166Y002792D01*
X004292Y003097D01*
X004292Y003427D01*
X004166Y003732D01*
X004136Y003762D01*
X004166Y003792D01*
X004292Y004097D01*
X004292Y004427D01*
X004166Y004732D01*
X003932Y004966D01*
X003627Y005092D01*
X003297Y005092D01*
X002992Y004966D01*
X002785Y004759D01*
X002342Y005202D01*
X002342Y012668D01*
X002466Y012792D01*
X002592Y013097D01*
X002592Y013427D01*
X002466Y013732D01*
X002436Y013762D01*
X002466Y013792D01*
X002592Y014097D01*
X002592Y014427D01*
X002478Y014702D01*
X015710Y014702D01*
X011462Y010542D01*
X008256Y010542D01*
X008132Y010666D01*
X007827Y010792D01*
X007497Y010792D01*
X007192Y010666D01*
X006958Y010432D01*
X006832Y010127D01*
X006832Y009797D01*
X006958Y009492D01*
X006988Y009462D01*
X006958Y009432D01*
X006832Y009127D01*
X006832Y008797D01*
X006958Y008492D01*
X007192Y008258D01*
X007497Y008132D01*
X007827Y008132D01*
X008132Y008258D01*
X008366Y008492D01*
X008492Y008797D01*
X008492Y009127D01*
X008386Y009382D01*
X011696Y009382D01*
X011807Y009381D01*
X011810Y009382D01*
X011814Y009382D01*
X011916Y009424D01*
X012022Y009467D01*
X012024Y009469D01*
X012027Y009470D01*
X012104Y009548D01*
X016722Y014069D01*
X017232Y014069D01*
X017232Y013952D01*
X012170Y008891D01*
X012082Y008677D01*
X012082Y008447D01*
X012082Y003356D01*
X011958Y003232D01*
X011832Y002927D01*
X011832Y002597D01*
X011958Y002292D01*
X011988Y002262D01*
X011958Y002232D01*
X011832Y001927D01*
X011832Y001597D01*
X011958Y001292D01*
X012192Y001058D01*
X012497Y000932D01*
X012827Y000932D01*
X013132Y001058D01*
X013366Y001292D01*
X013492Y001597D01*
X013492Y001927D01*
X013366Y002232D01*
X013336Y002262D01*
X013366Y002292D01*
X013492Y002597D01*
X013492Y002927D01*
X013366Y003232D01*
X013242Y003356D01*
X013242Y008322D01*
X017385Y012465D01*
X017592Y012258D01*
X017613Y012250D01*
X017701Y011812D01*
X017533Y011812D01*
X017294Y011713D01*
X017111Y011530D01*
X017023Y011318D01*
X016914Y011197D01*
X016844Y011127D01*
X016838Y011112D01*
X016827Y011099D01*
X016794Y011005D01*
X016756Y010914D01*
X016756Y010897D01*
X016751Y010882D01*
X016756Y010783D01*
X016756Y008374D01*
X016622Y008239D01*
X016494Y007930D01*
X016494Y007594D01*
X016622Y007285D01*
X016859Y007048D01*
X017168Y006920D01*
X017444Y006920D01*
X017525Y006839D01*
X017643Y006790D01*
X017691Y006672D01*
X017832Y006532D01*
X018008Y006459D01*
X017978Y006447D01*
X017878Y006346D01*
X017778Y006447D01*
X017668Y006492D01*
X017594Y006523D01*
X017594Y006523D01*
X017395Y006523D01*
X017211Y006447D01*
X017187Y006423D01*
X017164Y006447D01*
X016980Y006523D01*
X016167Y006523D01*
X015984Y006447D01*
X015960Y006423D01*
X015936Y006447D01*
X015826Y006492D01*
X015752Y006523D01*
X015553Y006523D01*
X015370Y006447D01*
X015229Y006306D01*
X015184Y006196D01*
X015153Y006122D01*
X015153Y005563D01*
X015063Y005526D01*
X014922Y005385D01*
X014846Y005201D01*
X014846Y005003D01*
X014922Y004819D01*
X015063Y004678D01*
X015246Y004602D01*
X016059Y004602D01*
X016243Y004678D01*
X016267Y004702D01*
X016290Y004678D01*
X016474Y004602D01*
X016673Y004602D01*
X016857Y004678D01*
X016881Y004702D01*
X016904Y004678D01*
X017088Y004602D01*
X017287Y004602D01*
X017471Y004678D01*
X017494Y004702D01*
X017518Y004678D01*
X017702Y004602D01*
X017901Y004602D01*
X018031Y004656D01*
X018053Y004647D01*
X018162Y004602D01*
X018821Y004602D01*
X019005Y004678D01*
X019146Y004819D01*
X019222Y005003D01*
X019222Y005201D01*
X019222Y005463D01*
X019222Y005662D01*
X019222Y005923D01*
X019222Y006122D01*
X019146Y006306D01*
X019005Y006447D01*
X018821Y006523D01*
X018377Y006523D01*
X018398Y006532D01*
X018539Y006672D01*
X018588Y006790D01*
X018705Y006839D01*
X018846Y006979D01*
X018922Y007163D01*
X018922Y007362D01*
X018846Y007546D01*
X018705Y007686D01*
X018588Y007735D01*
X018539Y007853D01*
X018398Y007993D01*
X018215Y008069D01*
X018121Y008069D01*
X018050Y008239D01*
X017916Y008374D01*
X017916Y010564D01*
X018030Y010611D01*
X018209Y010790D01*
X022538Y006385D01*
X022492Y006366D01*
X022258Y006132D01*
X022132Y005827D01*
X022132Y005497D01*
X022258Y005192D01*
X022492Y004958D01*
X022797Y004832D01*
X023127Y004832D01*
X023432Y004958D01*
X023502Y005028D01*
X023570Y002928D01*
X023432Y003066D01*
X023127Y003192D01*
X022797Y003192D01*
X022492Y003066D01*
X022258Y002832D01*
X022132Y002527D01*
X022132Y002197D01*
X022258Y001892D01*
X022288Y001862D01*
X022258Y001832D01*
X022132Y001527D01*
X022132Y001197D01*
X022258Y000892D01*
X022328Y000822D01*
X000822Y000822D01*
X000822Y000899D02*
X022255Y000899D01*
X022132Y001218D02*
X013291Y001218D01*
X013467Y001536D02*
X022136Y001536D01*
X022281Y001855D02*
X013492Y001855D01*
X013390Y002173D02*
X022142Y002173D01*
X022132Y002492D02*
X013448Y002492D01*
X013492Y002810D02*
X022249Y002810D01*
X022645Y003129D02*
X013408Y003129D01*
X013242Y003447D02*
X023553Y003447D01*
X023563Y003129D02*
X023279Y003129D01*
X023543Y003766D02*
X013242Y003766D01*
X013242Y004085D02*
X023533Y004085D01*
X023522Y004403D02*
X013242Y004403D01*
X013242Y004722D02*
X015019Y004722D01*
X014846Y005040D02*
X013242Y005040D01*
X013242Y005359D02*
X014911Y005359D01*
X015153Y005677D02*
X013242Y005677D01*
X013242Y005996D02*
X015153Y005996D01*
X015153Y006122D02*
X015153Y006122D01*
X015237Y006314D02*
X013242Y006314D01*
X013242Y006633D02*
X017731Y006633D01*
X017091Y006951D02*
X013242Y006951D01*
X013242Y007270D02*
X016637Y007270D01*
X016496Y007589D02*
X013242Y007589D01*
X013242Y007907D02*
X016494Y007907D01*
X016616Y008226D02*
X013242Y008226D01*
X013464Y008544D02*
X016756Y008544D01*
X016756Y008863D02*
X013783Y008863D01*
X014101Y009181D02*
X016756Y009181D01*
X016756Y009500D02*
X014420Y009500D01*
X014739Y009818D02*
X016756Y009818D01*
X016756Y010137D02*
X015057Y010137D01*
X015376Y010455D02*
X016756Y010455D01*
X016756Y010774D02*
X015694Y010774D01*
X016013Y011093D02*
X016825Y011093D01*
X017062Y011411D02*
X016331Y011411D01*
X016650Y011730D02*
X017334Y011730D01*
X017653Y012048D02*
X016968Y012048D01*
X017287Y012367D02*
X017484Y012367D01*
X016284Y013004D02*
X015634Y013004D01*
X015959Y013322D02*
X016602Y013322D01*
X016285Y013641D02*
X016921Y013641D01*
X016610Y013959D02*
X017232Y013959D01*
X018736Y013462D02*
X018766Y013492D01*
X018892Y013797D01*
X018892Y014069D01*
X019849Y014069D01*
X019727Y013947D01*
X019606Y013947D01*
X019317Y013828D01*
X019097Y013607D01*
X018977Y013318D01*
X018977Y013006D01*
X019097Y012717D01*
X019297Y012517D01*
X019262Y012469D01*
X019220Y012387D01*
X019191Y012299D01*
X019177Y012208D01*
X019177Y012162D01*
X019177Y012116D01*
X019191Y012025D01*
X019220Y011937D01*
X019262Y011855D01*
X019316Y011781D01*
X019381Y011716D01*
X019455Y011662D01*
X019537Y011620D01*
X019625Y011591D01*
X019716Y011577D01*
X019762Y011577D01*
X019808Y011577D01*
X019899Y011591D01*
X019987Y011620D01*
X020069Y011662D01*
X020143Y011716D01*
X020208Y011781D01*
X020262Y011855D01*
X020304Y011937D01*
X020333Y012025D01*
X020347Y012116D01*
X020347Y012162D01*
X020347Y012208D01*
X020333Y012299D01*
X020304Y012387D01*
X020262Y012469D01*
X020227Y012517D01*
X020428Y012717D01*
X020547Y013006D01*
X020547Y013127D01*
X020724Y013304D01*
X020741Y013287D01*
X021383Y013287D01*
X021562Y013466D01*
X021741Y013287D01*
X022383Y013287D01*
X022495Y013399D01*
X022570Y013218D01*
X022734Y013055D01*
X024013Y011776D01*
X024013Y011637D01*
X023824Y011637D01*
X023703Y011517D01*
X023383Y011837D01*
X022741Y011837D01*
X022562Y011658D01*
X022383Y011837D01*
X021741Y011837D01*
X021562Y011658D01*
X021383Y011837D01*
X020741Y011837D01*
X020287Y011383D01*
X020287Y010741D01*
X020741Y010287D01*
X021383Y010287D01*
X021562Y010466D01*
X021741Y010287D01*
X022383Y010287D01*
X022452Y010356D01*
X022407Y009281D01*
X022258Y009132D01*
X022132Y008827D01*
X022132Y008497D01*
X022163Y008421D01*
X018897Y011745D01*
X018751Y012477D01*
X018766Y012492D01*
X018892Y012797D01*
X018892Y013127D01*
X018766Y013432D01*
X018736Y013462D01*
X018811Y013322D02*
X018979Y013322D01*
X018978Y013004D02*
X018892Y013004D01*
X018846Y012685D02*
X019129Y012685D01*
X019213Y012367D02*
X018773Y012367D01*
X018836Y012048D02*
X019188Y012048D01*
X019177Y012162D02*
X019762Y012162D01*
X019762Y011577D01*
X019762Y012162D01*
X019762Y012162D01*
X019762Y012162D01*
X019177Y012162D01*
X019762Y012162D02*
X020347Y012162D01*
X019762Y012162D01*
X019762Y012162D01*
X019762Y012048D02*
X019762Y012048D01*
X019762Y011730D02*
X019762Y011730D01*
X019367Y011730D02*
X018912Y011730D01*
X019225Y011411D02*
X020315Y011411D01*
X020287Y011093D02*
X019538Y011093D01*
X019851Y010774D02*
X020287Y010774D01*
X020164Y010455D02*
X020573Y010455D01*
X020477Y010137D02*
X022443Y010137D01*
X022430Y009818D02*
X020791Y009818D01*
X021104Y009500D02*
X022416Y009500D01*
X022308Y009181D02*
X021417Y009181D01*
X021730Y008863D02*
X022147Y008863D01*
X022132Y008544D02*
X022043Y008544D01*
X021042Y007907D02*
X018484Y007907D01*
X018803Y007589D02*
X021356Y007589D01*
X021669Y007270D02*
X018922Y007270D01*
X018818Y006951D02*
X021982Y006951D01*
X022295Y006633D02*
X018500Y006633D01*
X019138Y006314D02*
X022441Y006314D01*
X022202Y005996D02*
X019222Y005996D01*
X019222Y005677D02*
X022132Y005677D01*
X022189Y005359D02*
X019222Y005359D01*
X019222Y005040D02*
X022410Y005040D01*
X023512Y004722D02*
X019049Y004722D01*
X015752Y006523D02*
X015752Y006523D01*
X018056Y008226D02*
X020729Y008226D01*
X020416Y008544D02*
X017916Y008544D01*
X017916Y008863D02*
X020103Y008863D01*
X019790Y009181D02*
X017916Y009181D01*
X017916Y009500D02*
X019477Y009500D01*
X019164Y009818D02*
X017916Y009818D01*
X017916Y010137D02*
X018851Y010137D01*
X018538Y010455D02*
X017916Y010455D01*
X018193Y010774D02*
X018225Y010774D01*
X020157Y011730D02*
X020634Y011730D01*
X020336Y012048D02*
X023741Y012048D01*
X023490Y011730D02*
X024013Y011730D01*
X023422Y012367D02*
X020311Y012367D01*
X020395Y012685D02*
X023104Y012685D01*
X022785Y013004D02*
X020546Y013004D01*
X021418Y013322D02*
X021706Y013322D01*
X022418Y013322D02*
X022527Y013322D01*
X022734Y013055D02*
X022734Y013055D01*
X022634Y011730D02*
X022490Y011730D01*
X021634Y011730D02*
X021490Y011730D01*
X021551Y010455D02*
X021573Y010455D01*
X019131Y013641D02*
X018827Y013641D01*
X018892Y013959D02*
X019739Y013959D01*
X015965Y012685D02*
X015309Y012685D01*
X014983Y012367D02*
X015646Y012367D01*
X015328Y012048D02*
X014658Y012048D01*
X014333Y011730D02*
X015009Y011730D01*
X014691Y011411D02*
X014007Y011411D01*
X013682Y011093D02*
X014372Y011093D01*
X014054Y010774D02*
X013356Y010774D01*
X013031Y010455D02*
X013735Y010455D01*
X013417Y010137D02*
X012706Y010137D01*
X012380Y009818D02*
X013098Y009818D01*
X012780Y009500D02*
X012056Y009500D01*
X012461Y009181D02*
X008470Y009181D01*
X008492Y008863D02*
X012159Y008863D01*
X012082Y008544D02*
X008387Y008544D01*
X008053Y008226D02*
X009017Y008226D01*
X009037Y008246D02*
X008978Y008187D01*
X008927Y008120D01*
X008885Y008047D01*
X008852Y007969D01*
X008831Y007888D01*
X008820Y007804D01*
X008820Y007762D01*
X008820Y007720D01*
X008831Y007636D01*
X008852Y007555D01*
X008885Y007477D01*
X008927Y007404D01*
X008978Y007337D01*
X009037Y007278D01*
X009104Y007227D01*
X009177Y007185D01*
X009255Y007152D01*
X009336Y007131D01*
X009420Y007120D01*
X009462Y007120D01*
X009504Y007120D01*
X009588Y007131D01*
X009669Y007152D01*
X009747Y007185D01*
X009820Y007227D01*
X009887Y007278D01*
X009946Y007337D01*
X009997Y007404D01*
X010039Y007477D01*
X010072Y007555D01*
X010094Y007636D01*
X010105Y007720D01*
X010105Y007762D01*
X010105Y007804D01*
X010094Y007888D01*
X010072Y007969D01*
X010039Y008047D01*
X009997Y008120D01*
X009946Y008187D01*
X009887Y008246D01*
X009820Y008297D01*
X009747Y008339D01*
X009669Y008372D01*
X009588Y008394D01*
X009504Y008405D01*
X009462Y008405D01*
X009420Y008405D01*
X009336Y008394D01*
X009255Y008372D01*
X009177Y008339D01*
X009104Y008297D01*
X009037Y008246D01*
X008746Y007846D02*
X008605Y007986D01*
X008421Y008062D01*
X007609Y008062D01*
X007425Y007986D01*
X007284Y007846D01*
X007208Y007662D01*
X007208Y007463D01*
X007284Y007279D01*
X007425Y007139D01*
X007609Y007062D01*
X008421Y007062D01*
X008605Y007139D01*
X008746Y007279D01*
X008822Y007463D01*
X008822Y007662D01*
X008746Y007846D01*
X008684Y007907D02*
X008836Y007907D01*
X008820Y007762D02*
X009462Y007762D01*
X008820Y007762D01*
X008822Y007589D02*
X008843Y007589D01*
X008737Y007270D02*
X009048Y007270D01*
X009462Y007270D02*
X009462Y007270D01*
X009462Y007120D02*
X009462Y007762D01*
X009462Y007762D01*
X009462Y007762D01*
X009462Y007120D01*
X009876Y007270D02*
X012082Y007270D01*
X012082Y006951D02*
X002342Y006951D01*
X002342Y006633D02*
X012082Y006633D01*
X012082Y006314D02*
X002342Y006314D01*
X002342Y005996D02*
X012082Y005996D01*
X012082Y005677D02*
X002342Y005677D01*
X002342Y005359D02*
X012082Y005359D01*
X012082Y005040D02*
X003752Y005040D01*
X004170Y004722D02*
X012082Y004722D01*
X012082Y004403D02*
X004292Y004403D01*
X004287Y004085D02*
X012082Y004085D01*
X012082Y003766D02*
X004140Y003766D01*
X004284Y003447D02*
X012082Y003447D01*
X011916Y003129D02*
X004292Y003129D01*
X004173Y002810D02*
X011832Y002810D01*
X011876Y002492D02*
X003771Y002492D01*
X003153Y002492D02*
X000822Y002492D01*
X000822Y002810D02*
X002751Y002810D01*
X002632Y003129D02*
X000822Y003129D01*
X000822Y003447D02*
X002456Y003447D01*
X002138Y003766D02*
X000822Y003766D01*
X000822Y004085D02*
X001819Y004085D01*
X001501Y004403D02*
X000822Y004403D01*
X000822Y004722D02*
X001234Y004722D01*
X001182Y005040D02*
X000822Y005040D01*
X000822Y005359D02*
X001182Y005359D01*
X001182Y005677D02*
X000822Y005677D01*
X000822Y005996D02*
X001182Y005996D01*
X001182Y006314D02*
X000822Y006314D01*
X000822Y006633D02*
X001182Y006633D01*
X001182Y006951D02*
X000822Y006951D01*
X000822Y007270D02*
X001182Y007270D01*
X001182Y007589D02*
X000822Y007589D01*
X000822Y007907D02*
X001182Y007907D01*
X001182Y008226D02*
X000822Y008226D01*
X000822Y008544D02*
X001182Y008544D01*
X001182Y008863D02*
X000822Y008863D01*
X000822Y009181D02*
X001182Y009181D01*
X001182Y009500D02*
X000822Y009500D01*
X000822Y009818D02*
X001182Y009818D01*
X001182Y010137D02*
X000822Y010137D01*
X000822Y010455D02*
X001182Y010455D01*
X001182Y010774D02*
X000822Y010774D01*
X000822Y011093D02*
X001182Y011093D01*
X001182Y011411D02*
X000822Y011411D01*
X000822Y011730D02*
X001182Y011730D01*
X001182Y012048D02*
X000822Y012048D01*
X000822Y012367D02*
X001182Y012367D01*
X001165Y012685D02*
X000822Y012685D01*
X000822Y013004D02*
X000971Y013004D01*
X000932Y013322D02*
X000822Y013322D01*
X000822Y013641D02*
X001021Y013641D01*
X000989Y013959D02*
X000822Y013959D01*
X000822Y014278D02*
X000932Y014278D01*
X001002Y014596D02*
X000822Y014596D01*
X002522Y014596D02*
X008311Y014596D01*
X008374Y014623D02*
X008190Y014547D01*
X008050Y014406D01*
X008004Y014296D01*
X007974Y014222D01*
X007974Y013663D01*
X007884Y013626D01*
X007743Y013485D01*
X007667Y013301D01*
X007667Y013103D01*
X007743Y012919D01*
X007884Y012778D01*
X008067Y012702D01*
X008880Y012702D01*
X009011Y012756D01*
X009035Y012746D01*
X009141Y012702D01*
X009142Y012702D01*
X009340Y012702D01*
X009354Y012702D01*
X009348Y012683D01*
X009336Y012606D01*
X009336Y012528D01*
X009348Y012451D01*
X009371Y012381D01*
X009832Y012567D01*
X010018Y012106D01*
X009832Y012567D01*
X009832Y012567D01*
X010293Y012754D01*
X010292Y012758D01*
X010256Y012827D01*
X010210Y012890D01*
X010155Y012946D01*
X010092Y012991D01*
X010060Y013008D01*
X010062Y013009D01*
X010062Y013009D01*
X010161Y013009D01*
X010198Y012919D01*
X010339Y012778D01*
X010523Y012702D01*
X010721Y012702D01*
X010750Y012714D01*
X010898Y012567D01*
X011154Y012461D01*
X011431Y012461D01*
X011686Y012567D01*
X011882Y012763D01*
X011988Y013019D01*
X011988Y013295D01*
X011882Y013551D01*
X011686Y013747D01*
X011431Y013853D01*
X011154Y013853D01*
X011122Y013840D01*
X011122Y014023D01*
X011122Y014222D01*
X011046Y014406D01*
X010905Y014547D01*
X010721Y014623D01*
X010261Y014623D01*
X010062Y014623D01*
X009878Y014547D01*
X009855Y014523D01*
X009831Y014547D01*
X009802Y014559D01*
X009647Y014623D01*
X009448Y014623D01*
X009141Y014623D01*
X008958Y014547D01*
X008857Y014446D01*
X008757Y014547D01*
X008647Y014592D01*
X008573Y014623D01*
X008374Y014623D01*
X008573Y014623D02*
X008573Y014623D01*
X008636Y014596D02*
X009078Y014596D01*
X009711Y014596D02*
X009999Y014596D01*
X009831Y014547D02*
X009831Y014547D01*
X009831Y014547D01*
X010785Y014596D02*
X015603Y014596D01*
X015277Y014278D02*
X011099Y014278D01*
X011122Y013959D02*
X014952Y013959D01*
X014627Y013641D02*
X011793Y013641D01*
X011977Y013322D02*
X014301Y013322D01*
X013976Y013004D02*
X011982Y013004D01*
X011805Y012685D02*
X013651Y012685D01*
X013325Y012367D02*
X010287Y012367D01*
X010292Y012377D02*
X010316Y012451D01*
X010328Y012528D01*
X010328Y012606D01*
X010316Y012683D01*
X010293Y012753D01*
X009832Y012567D01*
X009832Y012567D01*
X009371Y012381D01*
X009372Y012377D01*
X009408Y012307D01*
X009454Y012244D01*
X009509Y012189D01*
X009572Y012143D01*
X009641Y012107D01*
X009716Y012083D01*
X009793Y012071D01*
X009871Y012071D01*
X009948Y012083D01*
X010018Y012106D01*
X010022Y012107D01*
X010092Y012143D01*
X010155Y012189D01*
X010210Y012244D01*
X010256Y012307D01*
X010292Y012377D01*
X009913Y012367D02*
X009913Y012367D01*
X009832Y012567D02*
X009832Y012567D01*
X010124Y012685D02*
X010125Y012685D01*
X010315Y012685D02*
X010779Y012685D01*
X010163Y013004D02*
X010068Y013004D01*
X009349Y012685D02*
X002359Y012685D01*
X002342Y012367D02*
X009377Y012367D01*
X007708Y013004D02*
X002553Y013004D01*
X002592Y013322D02*
X007675Y013322D01*
X007920Y013641D02*
X002504Y013641D01*
X002535Y013959D02*
X007974Y013959D01*
X007974Y014222D02*
X007974Y014222D01*
X007997Y014278D02*
X002592Y014278D01*
X002342Y012048D02*
X013000Y012048D01*
X012674Y011730D02*
X002342Y011730D01*
X002342Y011411D02*
X012349Y011411D01*
X012024Y011093D02*
X002342Y011093D01*
X002342Y010774D02*
X007453Y010774D01*
X007871Y010774D02*
X011698Y010774D01*
X009462Y008405D02*
X009462Y007762D01*
X009462Y008405D01*
X009462Y008226D02*
X009462Y008226D01*
X009462Y007907D02*
X009462Y007907D01*
X009462Y007762D02*
X009462Y007762D01*
X010105Y007762D01*
X009462Y007762D01*
X009462Y007762D01*
X009462Y007589D02*
X009462Y007589D01*
X010081Y007589D02*
X012082Y007589D01*
X012082Y007907D02*
X010088Y007907D01*
X009907Y008226D02*
X012082Y008226D01*
X007346Y007907D02*
X002342Y007907D01*
X002342Y007589D02*
X007208Y007589D01*
X007294Y007270D02*
X002342Y007270D01*
X002342Y008226D02*
X007271Y008226D01*
X006937Y008544D02*
X002342Y008544D01*
X002342Y008863D02*
X006832Y008863D01*
X006854Y009181D02*
X002342Y009181D01*
X002342Y009500D02*
X006955Y009500D01*
X006832Y009818D02*
X002342Y009818D01*
X002342Y010137D02*
X006836Y010137D01*
X006982Y010455D02*
X002342Y010455D01*
X002504Y005040D02*
X003172Y005040D01*
X000822Y002173D02*
X011934Y002173D01*
X011832Y001855D02*
X000822Y001855D01*
X000822Y001536D02*
X011857Y001536D01*
X012033Y001218D02*
X000822Y001218D01*
D17*
X007762Y002962D03*
X014562Y006162D03*
X015962Y003062D03*
X021362Y001862D03*
X021062Y010062D03*
X019162Y011562D03*
X017662Y011162D03*
X017262Y011962D03*
X021562Y012562D03*
X012762Y012962D03*
X007962Y012262D03*
X005662Y009262D03*
D18*
X007662Y009962D02*
X011698Y009962D01*
X016485Y014649D01*
X023475Y014649D01*
X024062Y014062D01*
X023062Y014062D02*
X023062Y013547D01*
X024593Y012016D01*
X024593Y009093D01*
X024062Y008662D01*
X022962Y008662D02*
X023062Y011062D01*
X020547Y013947D02*
X019762Y013162D01*
X020547Y013947D02*
X020547Y014062D01*
X021062Y014062D01*
X018062Y013962D02*
X012662Y008562D01*
X012662Y002762D01*
X017336Y007762D02*
X017336Y010798D01*
X017662Y011162D01*
X018362Y011462D02*
X018062Y012962D01*
X018362Y011462D02*
X024062Y005662D01*
X024162Y002562D01*
X022962Y001362D01*
X003462Y003262D02*
X001762Y004962D01*
X001762Y013262D01*
M02*
