G75*
G70*
%OFA0B0*%
%FSLAX24Y24*%
%IPPOS*%
%LPD*%
%AMOC8*
5,1,8,0,0,1.08239X$1,22.5*
%
%ADD10C,0.0100*%
%ADD11C,0.0080*%
%ADD12C,0.0150*%
D10*
X020562Y011062D02*
X024562Y011062D01*
X020762Y011662D02*
X020764Y011690D01*
X020770Y011717D01*
X020779Y011743D01*
X020792Y011768D01*
X020809Y011791D01*
X020828Y011811D01*
X020850Y011828D01*
X020874Y011842D01*
X020900Y011852D01*
X020927Y011859D01*
X020955Y011862D01*
X020983Y011861D01*
X021010Y011856D01*
X021037Y011847D01*
X021062Y011835D01*
X021085Y011820D01*
X021106Y011801D01*
X021124Y011780D01*
X021139Y011756D01*
X021150Y011730D01*
X021158Y011704D01*
X021162Y011676D01*
X021162Y011648D01*
X021158Y011620D01*
X021150Y011594D01*
X021139Y011568D01*
X021124Y011544D01*
X021106Y011523D01*
X021085Y011504D01*
X021062Y011489D01*
X021037Y011477D01*
X021010Y011468D01*
X020983Y011463D01*
X020955Y011462D01*
X020927Y011465D01*
X020900Y011472D01*
X020874Y011482D01*
X020850Y011496D01*
X020828Y011513D01*
X020809Y011533D01*
X020792Y011556D01*
X020779Y011581D01*
X020770Y011607D01*
X020764Y011634D01*
X020762Y011662D01*
D11*
X020262Y011162D02*
X019262Y011162D01*
X019262Y013162D01*
X020262Y013162D01*
X020262Y011162D01*
X020562Y011062D02*
X020562Y013062D01*
X024562Y013062D01*
X024562Y011062D01*
X024062Y008262D02*
X024062Y008162D01*
X024362Y008162D01*
X024362Y006162D01*
X024062Y006162D01*
X024062Y006062D01*
X024062Y006162D02*
X023762Y006162D01*
X023762Y008162D01*
X024062Y008162D01*
X023262Y008162D02*
X022962Y008162D01*
X022962Y008262D01*
X022962Y008162D02*
X022662Y008162D01*
X022662Y006162D01*
X022962Y006162D01*
X022962Y006062D01*
X022962Y006162D02*
X023262Y006162D01*
X023262Y008162D01*
X020012Y012162D02*
X019512Y012162D01*
D12*
X004462Y004762D02*
X004513Y004708D01*
X004561Y004652D01*
X004606Y004593D01*
X004648Y004532D01*
X004687Y004469D01*
X004722Y004404D01*
X004754Y004337D01*
X004782Y004269D01*
X004807Y004199D01*
X004828Y004128D01*
X004845Y004056D01*
X004859Y003983D01*
X004868Y003910D01*
X004874Y003836D01*
X004876Y003762D01*
X004874Y003688D01*
X004868Y003614D01*
X004859Y003541D01*
X004845Y003468D01*
X004828Y003396D01*
X004807Y003325D01*
X004782Y003255D01*
X004754Y003187D01*
X004722Y003120D01*
X004687Y003055D01*
X004648Y002992D01*
X004606Y002931D01*
X004561Y002872D01*
X004513Y002816D01*
X004462Y002762D01*
X004408Y002711D01*
X004352Y002663D01*
X004293Y002618D01*
X004232Y002576D01*
X004169Y002537D01*
X004104Y002502D01*
X004037Y002470D01*
X003969Y002442D01*
X003899Y002417D01*
X003828Y002396D01*
X003756Y002379D01*
X003683Y002365D01*
X003610Y002356D01*
X003536Y002350D01*
X003462Y002348D01*
X003388Y002350D01*
X003314Y002356D01*
X003241Y002365D01*
X003168Y002379D01*
X003096Y002396D01*
X003025Y002417D01*
X002955Y002442D01*
X002887Y002470D01*
X002820Y002502D01*
X002755Y002537D01*
X002692Y002576D01*
X002631Y002618D01*
X002572Y002663D01*
X002516Y002711D01*
X002462Y002762D01*
X002411Y002816D01*
X002363Y002872D01*
X002318Y002931D01*
X002276Y002992D01*
X002237Y003055D01*
X002202Y003120D01*
X002170Y003187D01*
X002142Y003255D01*
X002117Y003325D01*
X002096Y003396D01*
X002079Y003468D01*
X002065Y003541D01*
X002056Y003614D01*
X002050Y003688D01*
X002048Y003762D01*
X002050Y003836D01*
X002056Y003910D01*
X002065Y003983D01*
X002079Y004056D01*
X002096Y004128D01*
X002117Y004199D01*
X002142Y004269D01*
X002170Y004337D01*
X002202Y004404D01*
X002237Y004469D01*
X002276Y004532D01*
X002318Y004593D01*
X002363Y004652D01*
X002411Y004708D01*
X002462Y004762D01*
X004462Y004762D01*
X010382Y002942D02*
X012382Y002942D01*
X012433Y002888D01*
X012481Y002832D01*
X012526Y002773D01*
X012568Y002712D01*
X012607Y002649D01*
X012642Y002584D01*
X012674Y002517D01*
X012702Y002449D01*
X012727Y002379D01*
X012748Y002308D01*
X012765Y002236D01*
X012779Y002163D01*
X012788Y002090D01*
X012794Y002016D01*
X012796Y001942D01*
X012794Y001868D01*
X012788Y001794D01*
X012779Y001721D01*
X012765Y001648D01*
X012748Y001576D01*
X012727Y001505D01*
X012702Y001435D01*
X012674Y001367D01*
X012642Y001300D01*
X012607Y001235D01*
X012568Y001172D01*
X012526Y001111D01*
X012481Y001052D01*
X012433Y000996D01*
X012382Y000942D01*
X012328Y000891D01*
X012272Y000843D01*
X012213Y000798D01*
X012152Y000756D01*
X012089Y000717D01*
X012024Y000682D01*
X011957Y000650D01*
X011889Y000622D01*
X011819Y000597D01*
X011748Y000576D01*
X011676Y000559D01*
X011603Y000545D01*
X011530Y000536D01*
X011456Y000530D01*
X011382Y000528D01*
X011308Y000530D01*
X011234Y000536D01*
X011161Y000545D01*
X011088Y000559D01*
X011016Y000576D01*
X010945Y000597D01*
X010875Y000622D01*
X010807Y000650D01*
X010740Y000682D01*
X010675Y000717D01*
X010612Y000756D01*
X010551Y000798D01*
X010492Y000843D01*
X010436Y000891D01*
X010382Y000942D01*
X010331Y000996D01*
X010283Y001052D01*
X010238Y001111D01*
X010196Y001172D01*
X010157Y001235D01*
X010122Y001300D01*
X010090Y001367D01*
X010062Y001435D01*
X010037Y001505D01*
X010016Y001576D01*
X009999Y001648D01*
X009985Y001721D01*
X009976Y001794D01*
X009970Y001868D01*
X009968Y001942D01*
X009970Y002016D01*
X009976Y002090D01*
X009985Y002163D01*
X009999Y002236D01*
X010016Y002308D01*
X010037Y002379D01*
X010062Y002449D01*
X010090Y002517D01*
X010122Y002584D01*
X010157Y002649D01*
X010196Y002712D01*
X010238Y002773D01*
X010283Y002832D01*
X010331Y002888D01*
X010382Y002942D01*
X008662Y010462D02*
X008713Y010408D01*
X008761Y010352D01*
X008806Y010293D01*
X008848Y010232D01*
X008887Y010169D01*
X008922Y010104D01*
X008954Y010037D01*
X008982Y009969D01*
X009007Y009899D01*
X009028Y009828D01*
X009045Y009756D01*
X009059Y009683D01*
X009068Y009610D01*
X009074Y009536D01*
X009076Y009462D01*
X009074Y009388D01*
X009068Y009314D01*
X009059Y009241D01*
X009045Y009168D01*
X009028Y009096D01*
X009007Y009025D01*
X008982Y008955D01*
X008954Y008887D01*
X008922Y008820D01*
X008887Y008755D01*
X008848Y008692D01*
X008806Y008631D01*
X008761Y008572D01*
X008713Y008516D01*
X008662Y008462D01*
X008608Y008411D01*
X008552Y008363D01*
X008493Y008318D01*
X008432Y008276D01*
X008369Y008237D01*
X008304Y008202D01*
X008237Y008170D01*
X008169Y008142D01*
X008099Y008117D01*
X008028Y008096D01*
X007956Y008079D01*
X007883Y008065D01*
X007810Y008056D01*
X007736Y008050D01*
X007662Y008048D01*
X007588Y008050D01*
X007514Y008056D01*
X007441Y008065D01*
X007368Y008079D01*
X007296Y008096D01*
X007225Y008117D01*
X007155Y008142D01*
X007087Y008170D01*
X007020Y008202D01*
X006955Y008237D01*
X006892Y008276D01*
X006831Y008318D01*
X006772Y008363D01*
X006716Y008411D01*
X006662Y008462D01*
X006611Y008516D01*
X006563Y008572D01*
X006518Y008631D01*
X006476Y008692D01*
X006437Y008755D01*
X006402Y008820D01*
X006370Y008887D01*
X006342Y008955D01*
X006317Y009025D01*
X006296Y009096D01*
X006279Y009168D01*
X006265Y009241D01*
X006256Y009314D01*
X006250Y009388D01*
X006248Y009462D01*
X006250Y009536D01*
X006256Y009610D01*
X006265Y009683D01*
X006279Y009756D01*
X006296Y009828D01*
X006317Y009899D01*
X006342Y009969D01*
X006370Y010037D01*
X006402Y010104D01*
X006437Y010169D01*
X006476Y010232D01*
X006518Y010293D01*
X006563Y010352D01*
X006611Y010408D01*
X006662Y010462D01*
X008662Y010462D01*
X003182Y014702D02*
X003233Y014648D01*
X003281Y014592D01*
X003326Y014533D01*
X003368Y014472D01*
X003407Y014409D01*
X003442Y014344D01*
X003474Y014277D01*
X003502Y014209D01*
X003527Y014139D01*
X003548Y014068D01*
X003565Y013996D01*
X003579Y013923D01*
X003588Y013850D01*
X003594Y013776D01*
X003596Y013702D01*
X003594Y013628D01*
X003588Y013554D01*
X003579Y013481D01*
X003565Y013408D01*
X003548Y013336D01*
X003527Y013265D01*
X003502Y013195D01*
X003474Y013127D01*
X003442Y013060D01*
X003407Y012995D01*
X003368Y012932D01*
X003326Y012871D01*
X003281Y012812D01*
X003233Y012756D01*
X003182Y012702D01*
X003128Y012651D01*
X003072Y012603D01*
X003013Y012558D01*
X002952Y012516D01*
X002889Y012477D01*
X002824Y012442D01*
X002757Y012410D01*
X002689Y012382D01*
X002619Y012357D01*
X002548Y012336D01*
X002476Y012319D01*
X002403Y012305D01*
X002330Y012296D01*
X002256Y012290D01*
X002182Y012288D01*
X002108Y012290D01*
X002034Y012296D01*
X001961Y012305D01*
X001888Y012319D01*
X001816Y012336D01*
X001745Y012357D01*
X001675Y012382D01*
X001607Y012410D01*
X001540Y012442D01*
X001475Y012477D01*
X001412Y012516D01*
X001351Y012558D01*
X001292Y012603D01*
X001236Y012651D01*
X001182Y012702D01*
X001131Y012756D01*
X001083Y012812D01*
X001038Y012871D01*
X000996Y012932D01*
X000957Y012995D01*
X000922Y013060D01*
X000890Y013127D01*
X000862Y013195D01*
X000837Y013265D01*
X000816Y013336D01*
X000799Y013408D01*
X000785Y013481D01*
X000776Y013554D01*
X000770Y013628D01*
X000768Y013702D01*
X000770Y013776D01*
X000776Y013850D01*
X000785Y013923D01*
X000799Y013996D01*
X000816Y014068D01*
X000837Y014139D01*
X000862Y014209D01*
X000890Y014277D01*
X000922Y014344D01*
X000957Y014409D01*
X000996Y014472D01*
X001038Y014533D01*
X001083Y014592D01*
X001131Y014648D01*
X001182Y014702D01*
X003182Y014702D01*
X016662Y014462D02*
X018662Y014462D01*
X018713Y014408D01*
X018761Y014352D01*
X018806Y014293D01*
X018848Y014232D01*
X018887Y014169D01*
X018922Y014104D01*
X018954Y014037D01*
X018982Y013969D01*
X019007Y013899D01*
X019028Y013828D01*
X019045Y013756D01*
X019059Y013683D01*
X019068Y013610D01*
X019074Y013536D01*
X019076Y013462D01*
X019074Y013388D01*
X019068Y013314D01*
X019059Y013241D01*
X019045Y013168D01*
X019028Y013096D01*
X019007Y013025D01*
X018982Y012955D01*
X018954Y012887D01*
X018922Y012820D01*
X018887Y012755D01*
X018848Y012692D01*
X018806Y012631D01*
X018761Y012572D01*
X018713Y012516D01*
X018662Y012462D01*
X018608Y012411D01*
X018552Y012363D01*
X018493Y012318D01*
X018432Y012276D01*
X018369Y012237D01*
X018304Y012202D01*
X018237Y012170D01*
X018169Y012142D01*
X018099Y012117D01*
X018028Y012096D01*
X017956Y012079D01*
X017883Y012065D01*
X017810Y012056D01*
X017736Y012050D01*
X017662Y012048D01*
X017588Y012050D01*
X017514Y012056D01*
X017441Y012065D01*
X017368Y012079D01*
X017296Y012096D01*
X017225Y012117D01*
X017155Y012142D01*
X017087Y012170D01*
X017020Y012202D01*
X016955Y012237D01*
X016892Y012276D01*
X016831Y012318D01*
X016772Y012363D01*
X016716Y012411D01*
X016662Y012462D01*
X016611Y012516D01*
X016563Y012572D01*
X016518Y012631D01*
X016476Y012692D01*
X016437Y012755D01*
X016402Y012820D01*
X016370Y012887D01*
X016342Y012955D01*
X016317Y013025D01*
X016296Y013096D01*
X016279Y013168D01*
X016265Y013241D01*
X016256Y013314D01*
X016250Y013388D01*
X016248Y013462D01*
X016250Y013536D01*
X016256Y013610D01*
X016265Y013683D01*
X016279Y013756D01*
X016296Y013828D01*
X016317Y013899D01*
X016342Y013969D01*
X016370Y014037D01*
X016402Y014104D01*
X016437Y014169D01*
X016476Y014232D01*
X016518Y014293D01*
X016563Y014352D01*
X016611Y014408D01*
X016662Y014462D01*
X021962Y002862D02*
X023962Y002862D01*
X024013Y002808D01*
X024061Y002752D01*
X024106Y002693D01*
X024148Y002632D01*
X024187Y002569D01*
X024222Y002504D01*
X024254Y002437D01*
X024282Y002369D01*
X024307Y002299D01*
X024328Y002228D01*
X024345Y002156D01*
X024359Y002083D01*
X024368Y002010D01*
X024374Y001936D01*
X024376Y001862D01*
X024374Y001788D01*
X024368Y001714D01*
X024359Y001641D01*
X024345Y001568D01*
X024328Y001496D01*
X024307Y001425D01*
X024282Y001355D01*
X024254Y001287D01*
X024222Y001220D01*
X024187Y001155D01*
X024148Y001092D01*
X024106Y001031D01*
X024061Y000972D01*
X024013Y000916D01*
X023962Y000862D01*
X023908Y000811D01*
X023852Y000763D01*
X023793Y000718D01*
X023732Y000676D01*
X023669Y000637D01*
X023604Y000602D01*
X023537Y000570D01*
X023469Y000542D01*
X023399Y000517D01*
X023328Y000496D01*
X023256Y000479D01*
X023183Y000465D01*
X023110Y000456D01*
X023036Y000450D01*
X022962Y000448D01*
X022888Y000450D01*
X022814Y000456D01*
X022741Y000465D01*
X022668Y000479D01*
X022596Y000496D01*
X022525Y000517D01*
X022455Y000542D01*
X022387Y000570D01*
X022320Y000602D01*
X022255Y000637D01*
X022192Y000676D01*
X022131Y000718D01*
X022072Y000763D01*
X022016Y000811D01*
X021962Y000862D01*
X021911Y000916D01*
X021863Y000972D01*
X021818Y001031D01*
X021776Y001092D01*
X021737Y001155D01*
X021702Y001220D01*
X021670Y001287D01*
X021642Y001355D01*
X021617Y001425D01*
X021596Y001496D01*
X021579Y001568D01*
X021565Y001641D01*
X021556Y001714D01*
X021550Y001788D01*
X021548Y001862D01*
X021550Y001936D01*
X021556Y002010D01*
X021565Y002083D01*
X021579Y002156D01*
X021596Y002228D01*
X021617Y002299D01*
X021642Y002369D01*
X021670Y002437D01*
X021702Y002504D01*
X021737Y002569D01*
X021776Y002632D01*
X021818Y002693D01*
X021863Y002752D01*
X021911Y002808D01*
X021962Y002862D01*
M02*
