%
M48
M72
T01C0.0240
T02C0.0280
T03C0.0310
T04C0.0320
T05C0.0350
T06C0.0510
%
T01
X7762Y2962
X14562Y6162
X15962Y3062
X21362Y1862
X21062Y10062
X19162Y11562
X17662Y11162
X17262Y11962
X21562Y12562
X12762Y12962
X7962Y12262
X5662Y9262
T02
X19762Y12162
X19762Y13162
T03
X11292Y13157
X9832Y12567
T04
X3462Y3262
X3462Y4262
X7662Y8962
X7662Y9962
X1762Y13262
X1762Y14262
X18062Y13962
X18062Y12962
X21062Y14062
X22062Y14062
X23062Y14062
X24062Y14062
X24062Y11062
X23062Y11062
X22062Y11062
X21062Y11062
X12662Y2762
X12662Y1762
X22962Y1362
X22962Y2362
T05
X22962Y5662
X24062Y5662
X24062Y8662
X22962Y8662
T06
X17336Y7762
X9462Y7762
M30
